<svg xmlns="http://www.w3.org/2000/svg" width="392.176" height="558.605" viewBox="0 0 103.763 147.797"><defs><filter height="1" y="0" width="1" x="0" id="c" color-interpolation-filters="sRGB"><feGaussianBlur/></filter><filter id="a" x="0" width="1" y="0" height="1" color-interpolation-filters="sRGB"><feGaussianBlur/></filter><filter id="b" x="0" width="1" y="0" height="1" color-interpolation-filters="sRGB"><feGaussianBlur stdDeviation=".001"/></filter></defs><path style="mix-blend-mode:normal" d="M47.987 144.325c.07-.325-.79-.724-1.024-.975-.642-.691.273-1.656 1.828-2.527 4.455-2.158 9.201-2.364 12.12-5.568 2.661-3.311 1.742-3.945 2.035-8.268 1.156-1.783 5.706-.943 4.959.516-.99 1.93-.911 4.995-1.208 6.962-.292 1.939.14 3.422.615 3.588.967.794 6.53 2.385 9.452 2.825 2.966.445 7.167 2.131 7.036 2.737-.079.362-3.045 1.26-4.902 1.322-.6.02-4.029.074-5.96.394-1.93.32-5.036 1.032-6.307 1.226-1.438.22-1.928.152-2.08.418-.414.72-.652 1.076-.515.035-3.71-.684-5.744-1.138-7.156-1.338-6.48-.918-7.12-1.366-8.242-1.074-.747.195-.773.287-.651-.273z" fill="#4a98b9"/><path d="M109.847 174.897c-.614-.164-.921 2.018-1.246 2.689-.325.67-.225.73-.809 1.27-1.127.75-3.641 2.206-4.508 2.554-1.114.404-4.264 1.869-4.774 2.134a20.69 20.69 0 00-2.783 1.665c-.698.469-1.088.721-1.601 1.21-.239.521-.305.82.013.65.928-.607 1.603-1.163 2.496-1.716 1.04-.644 1.637-.94 2.82-1.505a72.481 72.481 0 014.181-1.822c.933-.36 2.436-.856 3.273-1.206.642-.269 1.071-.309 1.82-.573.75-.264 1.332.564 1.394.893.127.662.069 1.844-.13 3.737-.098.947-.319 2.602-.405 3.447-.168 1.64.595.886.605.81.194-1.497.515-3.463.698-5.035.183-1.584.253-2.28.469-2.543.215-.263.56-.068 1.419.503.86.572 3.32 1.332 4.056 1.582 1.136.254 3.525.838 5.487 1.233.981.197 2.677.242 4.085.622.694.187 2.022.656 2.498.732.476.077.1-.239.105-.263.005-.025-.15-.201-.668-.36-.446-.137-1.035-.414-1.755-.596-1.44-.364-3.325-.549-4.332-.77-2.013-.445-3.717-.796-4.7-1.074-.906-.259-3.432-1.076-4.307-1.651-.796-.513-1.856-.964-1.965-2.171-.073-.793.709-4.601.283-4.84-.478-.268-.504 1.292-1 1.091-.496-.201-.105-.533-.719-.697z" fill="#396c90" fill-opacity=".5" filter="url(#a)" transform="translate(-45.667 -42.44)"/><path d="M83.327 144.148c-.371-.358-.221-.835.23-.843.299-.005.818.88.611 1.095-.09.093-.632-.05-.84-.252zM47.971 144.321c.089-.356.13-.306.3-.43.088-.065.318-.254.656-.223.627.057.16.862-.351.97-.527.113-.763.321-.605-.317zm15.77 2.619c.124-.501.612-.61.845-.225.154.257-.353 1.15-.641 1.078-.127-.03-.274-.571-.204-.853z" fill="#63605d"/><g><path d="M30.218 128.107c-1.701-.82-1.725-.937-6.968-.975-1.484.028-4.943-.152-7.133-.677-2.19-.526-3.288-1.364-3.821-1.946-.801-.876-1.542-1.204-2.425-1.336-.658-.099-1.856-.47-2.664-.824-1.359-.596-1.93-1.03-3.518-2.674a317.891 317.891 0 00-1.741-1.777c-.63-.64-1.081-1.266-1.002-1.394.322-.521 3.59-1.7 4.864-1.99.733-.166 1.474-.402 1.977-.56.385-.122 1.127-.282 1.914-.421.896-.089 1.766-.166 2.52-.28.664-.1 2.56-.371 4.234-.497 1.673-.126 3.352-.46 3.787-.514.878-.11 1.541-.286 2.514-.287 2.59-.003 5.645-.85 7.101-1.593.705.133.896 1.65 1.66 2.584.763.935.998 1.584 2.113 2.354 2.241 1.55 4.114 3.131 5.711 4.263 2.582 1.745 3.216 2.488 2.392 2.804-.212.082-.55.774-.924 1.51-1.05 2.07-2.716 3.321-5.626 3.714-.682.092-1.783.464-2.275.798-.895.608-.989.537-2.69-.282z" style="mix-blend-mode:normal" fill="#4a98b9"/><path d="M41.701 58.764c2.372-5.833 3.35-7.788 4.964-11.364 1.615-3.576 4.655-8.867 8.617-12.834 1.355-1.356 14.108 2.51 16.52 10.038.603 1.881 8.296 4.057 7.151 6.416-1.25 2.577-2.418 5.249-1.964 8.783.455 3.547-2.151 8.014-2.67 12.518-.517 4.505-.74 9.626-1.152 15.262-.304 4.157 2.149 9.362 2.241 13.567.093 4.204-1.284 13.364-3.547 16.482-4.526 6.236-21.386 3.63-24.45 2.46-4.703-1.793-10.133-3.486-13.073-5.514-2.94-2.029-3.995-2.41-4.457-4.118-.568-2.104-1.769-6.077-.984-10.095.51-2.606 3.334-14.494 5.97-23.523 2.636-9.029 5.95-15.904 6.834-18.078z" fill="#e6e6e6"/><path d="M66.116 0c-.562.006-1.183.048-2.104.182-1.938.263-3.055.269-4.469.933-1.413.664-2.037.986-3.08 1.642-1.044.655-1.755 1.03-2.668 1.825-.913.796-2.34 2.08-3.177 2.823-1.166.87-4.36 4.729-5.588 5.995.474.533 7.589 6.722 10.81 14.253 1.033.935.632 4.038-.777 6.017-.28.392-.508.843-.508 1 0 .159-.239.438-.53.62-.598.373-.692.888-.198 1.08.212.084-.025.477-.661 1.098-1.334 1.301-1.375 2.606-.05 1.605.968-.733 1.017-.405.087.587-1.642 1.752-3.54 3.993-3.224 4.31.041.04 1.09-1.098 1.44-1.38.719-.577.485 1.675.946 1.198.518-.536.3-1.29.445-1.905.145-.615.653-1.092.772-1.076.238.031.211.632.187 1.838-.025 1.249.077 2.09.27 2.251.228.19.426-.066.334-.547-.132-.694.398-.702 1.835-1.748.992-.723 1.027.05.066 1.465-.363.536-.661 1.021-.661 1.079 0 .346 2.1-.303 2.66-.824.758-.703 1.573-.827 1.573-.24 0 .212-.182.54-.405.727-1.048.88-1.205 1.107-1.13 1.631.127.89 1.062.843 1.75-.088.853-1.154 1.449-1.08 1.218.15-.118.63-.072 1.022.137 1.15.616.382.77-3.195 1.447-2.103.392.632-.005 2.99 1.264 1.8 2.526-2.368 2.131-1.804 1.894-.76-.231 1.017.174 1.68 1.27.549 2.652-2.734.835 3.82 1.256 3.89.841.14 1.606-2.681 1.606-2.681.695-1.187.678-.713 1.379 1.51.367 1.164.609-1.435 2.254-1.773 1.081-.221-1.076 2.67.116 1.895 1.055-.685 1.727-1.035 1.869-.434.07.3-.733 1.274-.473 1.576.442.514 1.493-1.089 1.473-.207-.017.816-.166 2.384.244 2.365.41-.02 1.168-.519 1.397-.953.216-.41.489-.89 1.013-2.545.46-1.453.869-2.228 1.08-2.792.212-.563.482-1.893.775-2.768.292-.876.511-1.873.726-2.568.215-.694.837-2.105 1.242-3.566.23-.822.85-2.281 1.18-3.766.132-.447.185-.627 1.04-3.458.854-2.83 1.397-6.644 1.493-8.907.096-2.264.075-3.213-.062-5.011-.136-1.799-.512-2.42-.934-3.416-.421-.997-.898-2.007-1.55-2.876-.653-.869-1.332-1.854-2.392-3.119-1.06-1.265-1.573-1.746-2.056-2.284-.78-.866-1.96-1.804-3.03-2.71-.657-.566-3.092-1.547-3.994-1.743-2.86-.62-3.58-.688-5.077-.75-.684-.018-1.187-.05-1.75-.045zM88.35 46.079c-.605 1.146-2.172 2.384-5.305 5.2-.36.567-2.23.499-2.528 1.005-1.222 1.979-2.276 4.223-3.42 6.174-.46 1.144-.22.052-.847 1.677-.628 1.625-.283 3.946-.433 5.613-.144 1.273-1.205 1.948-1.725 3.407-.41 1.15-.85 2.092-1.143 2.941-.296.86-.544 1.238-1.236 2.861-1.338 3.88-1.56 6.235-1.735 9.246.149 4.09.223 5.816.907 8.455.685 2.64 2.238 7.29 2.918 9.278.68 1.987.64 2.037.819 2.897.178.86-.397 1.596-.765 2.355-.776 1.597-1.892 3.357-2.517 4.703-1.03 2.222-2.642 6.001-5.324 7.469-2.483 1.358-2.716 1.686-8.481.42-4.352-1.523-7.154-2.71-10.549-3.858-3.15-.878-4.902-1.588-9.594-3.854-3.27-1.714-3.126-2.447-5.231-2.517-1.109-.037-1.374.025-1.83.33-.162.108-.509.35-.603.766-.095.416 1.267 1.926 2.45 2.678 1.2.763 2.55 1.587 3.594 2.105.691.375 1.274.603 1.968.938 1.241.599 2.46 1.068 5.239 2.371.612.287 1.933.826 2.961 1.147 1.028.32 2.285.79 2.795 1.043.51.252 2.057.787 3.44 1.19 1.382.401 3.432 1.018 4.556 1.37 1.41.44 2.668.64 4.053.64 2.01 0 1.596 2.025 1.826 2.844.1 2.497.995-.41 2.405.037.984.246 1.326.898 1.997.855.671-.044 1.672-.784 2.388-1.735 1.43-1.9 1.617-2.651 2.089-3.392.559-.876.842-1.14 1.455-2.027.901-.962 1.905-2.232 2.52-3.437.539-1.377 1.45-3.747 2.035-4.752.993-1.793 1.8-1.867 3.108-5.9 1.365-4.208-8.099-19.257-6.998-24.28 2.202-10.047 4.529-13.77 7.305-15.923 4.209-6.506 5.397-7.458 8.48-15.977.573-1.658-.861-4.228-1.044-4.363z" fill="#a1a09d"/><path d="M283.213 582.608c-.851.364-4.45 5.115-5.24 5.411-2.15-.574-6.223-.107-11.66-.394-5.436-.286-10.988-.241-13.479-.053-3.403.258-8.987 1.048-11.641 1.317-2.773.282-11.699 1.217-20.467 2.28-7.519.612-20.606 2.812-25.923 3.442-5.14 1.333-19.158 5.796-18.524 6.92.965 1.71 2.378.313 3.11.313.949 0 5.98-1.898 10.134-2.859 8.91-2.06 24.883-4.243 31.99-4.993 9.505-.547 25.21-3.257 29.86-3.25 3.057.005 11.24-.394 15.457.263 2.541.395 7.407.667 7.45 2.703.035 1.595-.616 3.012-2.205 4.1-2.226 1.525-3.936 2.943-5.616 4.364-2.636 2.23-8.601 6.573-11.167 8.854-3.96 3.52-19.822 20.216-21.501 22.072-.45.498-2.531 2.88-2.531 2.88 1.259 3.685 2.861 1.74 6.095-1.855 4.443-4.028 13.918-14.835 20.422-20.332 6.344-5.343 9.999-9.412 14.749-12.595 4.055-2.718 6.136-4.837 7.66-.81 3.147 8.322 6.554 22.632 7.425 26.055.842 3.473 2.15 9.518 2.664 11.768 1.207 5.28 1.58 7.887 4.416 5.937l-6.318-27.375c-.933-2.985-2.86-10.032-3.559-12.238-.874-2.757-2.852-7.923-.35-8.697 1.132-.35 7.117 3.497 13.169 7.39 6.052 3.894 7.927 4.89 15.076 8.79 7.149 3.9 10.735 6.623 17.068 11.091 2.716-1.985 2.692-1.563-7.347-8.347-11.672-6.478-26.351-15.364-38.739-23.67.032.55 1.98-3.093 2.713-4.547.946-1.876.535-4.733-.716-4.465 0 0-1.623.166-2.475.53z" transform="matrix(.26458 0 0 .26458 -45.667 -42.44)" fill="#396c90" fill-opacity=".5" filter="url(#b)"/><path d="M31.867 129.285c-.343-.687-.443-.985-.162-1.652.309-.41.784.111.8.612.036 1.032-.39 1.69-.638 1.04zm-16.932-2.396c-.25-.25.437-1.174.91-1.174.51 0 .563.873.034.975-.224.043-.843.3-.944.2zM77.885 66.8c-.229-1.158-.062-1.883.357-2.65.783-1.46.798-.89 2.908-2.052s1.373-1.888 2.22-2.457c.849-.57.938-1.473 1.957-2.897 1.018-1.425 2.261-3.604 2.593-7.022.246-3.24-1.073-.687-1.401-.44-.328.248-1.854 2.257-3.896 4.56-1.841 2.076-3.16.677-3.324.69-.253.02 5.943-11.57 5.98-11.645.563-1.154 1.64-3.093 2.92-5.067 1.28-1.973 3.218-4.64 4.444-6.562.92-1.398 2.886-4.014 3.234-4.626 1.49-2.618 2.289-4.066 3.122-4.972 0 0 1.927-2.773 3.658-3.443 2.508-.97.025 3.919-.394 6.415-.183 1.087.258 2.467.468 3.582.35 1.872-1.8 5.018-2.941 7.146-1.494 2.784-.613 4.501.025 5.042 1.757 1.492 2.18.972 1.228 4.02-.131.42-.553 1.764-.668 2.767-.172 1.498-.56 2.526-2.094 5.59-2.915 5.82-6.611 12.813-7.328 13.756-1.683 2.214.005 3.574-.292 6.798-.312 3.372-4.21 5.03-8.288 4.304-.606-2.055-2.608-3.854-3.452-7.656-.44-1.167-.807-2.023-1.036-3.18zM75.03 47.337c-.543-1.72-.408-2.009-.253-2.304.264-.504.523.206.991 1.032.18.318.424.857.592.827.673-.12-.019-.825-.273-2.098-.126-.63-.291-.805-.718-.76-.62.064-.647-.07-.801-4.044-.1-2.582-.312-3.44-.849-3.44-.491 0-.479.27.049 1.022.294.42.342.696.154.884-.15.15-.206.694-.122 1.207.194 1.197-.836 1.067-2.017-.254-.811-.908-1.56-.886-1.806.053-.256.978-.596.595-1.234-1.39-.082-.255-.388-.463-.68-.463-.45 0-.506-.122-.369-.808.154-.769.128-.8-.549-.63-.657.166-.698.129-.542-.493.129-.51.04-.74-.366-.958-.818-.437-1.099-.347-1.099.354 0 .858-.257 1.477-.614 1.477-.16 0-.545.317-.855.706-.373.467-.711.649-1.002.537-.548-.21-.578-1.207-.043-1.412.219-.084.397-.304.397-.489s-.178-.484-.397-.665c-.703-.584-1.27.17-1.084 1.442.167 1.136-.123.987-1.073-.551-.532-.863-.932.613-.43 1.593.385.755.145 2.02-.383 2.01-1.184-.024-1.57-4.59-.413-4.881.513-.13.578-.304.529-1.428-.045-1.03-.115-1.2-.357-.868-.166.226-.252.541-.19.7.124.324-.854 1.289-1.56 1.538-.577.204-.605-.292-.061-1.068.36-.516.357-.597-.034-.816-.297-.167-.34-.303-.137-.428.355-.22.403-1.91.06-2.122-.13-.081-.227-.554-.213-1.05.059-2.058-.905-2.415-7.578-2.813-7.937-.473-14.962.424-22.939 2.461-1.418.363-3.986.935-5.878 1.158-1.892.222-4.664.556-5.246.684-4.154.911-6.389.66-5.37-.675 1.636-2.145 5.267-4.461 8.883-5.692 1.092-.371 3.072-1.156 3.548-1.33.476-.175 1.48-.397 2.881-.87 1.498-.503 2.393-.867 3.052-1.158.659-.292 1.272-.57 1.938-.81.666-.242 1.519-.664 2.51-.955.992-.292 1.601-.72 2.331-.977s2.58-1.142 4.164-1.737c1.327-.672 1.569-.955 2.669-1.589 1.1-.633 3.405-2.11 3.616-2.524.067-.132 5.132-.616 6.84-.673 1.01-.034 1.5-.157 2.408-.342.909-.185 2.395.078 3.416-1.458 0-.074-.268-.186-.595-.25-.544-.104-.548-.117-.05-.15.3-.02.889-.393 1.307-.83.418-.436 1.029-.793 1.357-.793.328 0 .664-.11.747-.244.083-.134.801-.208 1.596-.164.99.055 1.542-.035 1.75-.285.167-.201.527-.366.8-.366.884 0 .527.768-.628 1.35-1.378.695-1.348.669-1.135 1.014.113.183.705.004 1.68-.51.828-.437 1.704-.795 1.947-.795.69 0 1.29-.297 1.13-.557-.081-.13-.55-.237-1.042-.237s-.96-.106-1.04-.235c-.242-.392.602-.896 1.227-.732.356.093.773-.015 1.06-.275.353-.32.922-.415 2.22-.372 1.34.043 1.718-.024 1.625-.29-.084-.237-.546-.322-1.482-.271-.7.038-1.675.048-1.85-.11-.173-.158.454-.484.806-.837.247-.247.164-.318-.375-.318-.935 0-1.53.253-1.53.649 0 .335-.826 1.203-1.145 1.203-.453 0-.139-1.3.352-1.455.29-.092.529-.324.529-.514 0-.85 3.647-1.898 4.307-1.238.163.163.873.297 1.577.297 1.238 0 1.277.024 1.203.728-.068.649.01.727.718.727.855 0 3.025.916 3.036 1.281.004.123-.231.526-.522.896-.715.908-.672 1.212.308 2.192.685.685.77.886.463 1.104-.304.216-.293.24.063.127.605-.193 1.406.444 1.208.96-.186.484-1.842.165-2.592-.5-.23-.205-.678-.371-.997-.371-.318 0-1.211-.358-1.985-.794-1.4-.79-3.612-1.114-3.612-.53 0 .146.002.355.005.464.002.109.635.159 1.405.11 1.034-.064 1.492.023 1.748.332.19.23.561.418.823.418.262 0 .847.311 1.3.692.625.526 1.006.656 1.585.54.51-.101.872-.018 1.097.253.185.223.776.63 1.313.904.538.274 1.047.678 1.13.897.085.219.85.75 1.703 1.18 1.674.845 2.557 1.62 1.847 1.62-.219 0-.54-.172-.712-.38-.365-.44-1.729-.796-2.12-.554-.15.093.137.57.654 1.087.507.507.922 1.04.922 1.186 0 .49-.85.61-1.104.156-.135-.24-.498-.438-.807-.438-.562 0-.562 0-.026.596.294.327.61.805.7 1.062.091.257.459.579.818.715.358.136.78.49.938.784.314.586.076.557-1.313-.164-.363-.189-.847-.344-1.074-.345-.228-.001-.756-.359-1.174-.795-.757-.79-1.64-1.094-1.346-.464.085.182.223.522.308.755.162.45 1.714 1.296 2.378 1.296a.63.63 0 01.542.38c.08.21.305.32.5.244.512-.196 1.454.851 1.454 1.617 0 .472-.11.61-.397.5-.565-.217-.521-.066.692 2.346.879 1.748 1.031 2.255.793 2.636-.162.26-.294.816-.294 1.237 0 .42-.179.913-.397 1.094-.218.181-.397.494-.397.694 0 .582-.442.424-1.015-.363-.78-1.071-.938-.595-.43 1.3.7 2.612.553 3.91-.384 3.408-.662-.354-.681-.235-.136.819.597 1.154.324 1.75-.542 1.182-.357-.234-.6-.56-.748-.425-.2.183-.043 1.23.024 2.734.132 2.979-.168 4.198-.889 3.6-.27-.223-.385-1.603-.799-1.326-.284.19.332 1.492.364 1.64.134.611.371 2.587-.043 3.141-.668.894-.756 1.165-1.067 2.124-1.289 2.675-1.431.625-1.878-.36-.447-.987-1.152.331-1.88-1.296zm1.997-7.545c-.015-.914-.037-.942-.274-.348-.141.354-.197.8-.123.992.244.636.414.36.397-.644zm2.663-.596c0-.513-.452-.959-.71-.7-.081.08-.07.455.025.831.189.754.685.66.685-.13zm-6.886-.865c-.61-1.168-1.244-1.843-1.827-1.14-.252.302-.168.45.43.765.93.49 1.652.865 1.397.375zM69.9 36.815c0-.29-.239-.767-.53-1.058-.56-.56-.71-1.323-.262-1.323.147 0 .471.238.72.53.25.29.701.528 1.003.528.303 0 .693.143.868.318.247.247.317.192.317-.247a.774.774 0 00-.548-.738c-.47-.15-.525-.316-.381-1.166.168-.996-.633-2.93-1.214-2.93-.13 0-.238-.237-.238-.528 0-.294-.176-.53-.397-.53-.62 0-.47.584.431 1.678.913 1.108.763 1.801-.27 1.248-.455-.243-.558-.223-.558.108 0 .575-.458.504-.794-.123-.155-.291-.451-.53-.657-.53-.392 0-.086 1.405.429 1.972.126.138.228.45.228.695 0 .244.179.592.397.773.219.181.397.672.397 1.091 0 .585.123.761.53.761.352 0 .529-.176.529-.529zm-.8-3.049c-.184-.222-.263-.475-.176-.562.271-.27 1.05.422 1.21.817.257.636-.604.262-1.034-.255zm7.308 2.89c-.094-.245-.23-.386-.303-.313-.073.072-.056.333.039.578.094.245.23.387.303.314.073-.073.055-.333-.039-.579zm2.898-1.187c.098-.158.403-.229.678-.157.665.174.69.212-.872-1.285-.91-.872-1.22-1.072-.926-.595.55.889.564 1.267.048 1.267-.54 0-.501.442.066.772.6.35.79.35 1.006-.002zm-2.792-1.977c-.107-.2-.119-.339-.264-.249-.146.09-.265.276-.265.413 0 .137.614.612.827.513.215-.1-.133-.367-.298-.677zm-10.497-.217c-.148-.25-.463-.693-.6-.693-.355 0-.254.645-.061.957.138.224.935.601 1.065.55.131-.053-.17-.418-.404-.814zm15.892-.54c-.165-.43-.894-.774-1.133-.535-.166.167.71.911 1.072.911.113 0 .14-.17.061-.376zm-7.512.016c0-.306-1.714-2.184-2.139-2.343a.845.845 0 01-.506-.736c0-.522-.66-1.016-.96-.717-.257.257.406 1.184 1.818 2.543 1.223 1.176 1.787 1.572 1.787 1.253zm3.175-.657c0-.123-.238-.44-.529-.703-.29-.263-.53-.609-.53-.768-.001-.16-.307-.647-.68-1.084-.677-.794-.677-.794-.529-.092.304 1.437 2.268 3.73 2.268 2.647zm-8.947-.628c-.19-.19-.313-.205-.313-.04 0 .354.547.76.723.584.076-.076-.238-.372-.41-.544zm-3.761.124c-.005-.11-.183-.43-.397-.712-.396-.524-.517-.263-.228.492.162.42.64.59.625.22zm16.148-.719c0-.235-1.644-1.993-1.864-1.993-.122 0 .09.476.471 1.058.572.873 1.393 1.425 1.393.935zm-13.014-.604c-.049-.255-.364-.503-.701-.55-.547-.078-.582-.028-.32.462.362.676 1.146.743 1.021.088zm16.365-1.084c.004-.706.088-1.413.186-1.572.183-.295-.879-1.48-1.115-1.244-.071.072.016.402.194.734.229.429.251.922.077 1.7-.167.742-.155 1.186.039 1.38.498.498.611.315.619-.998zm-18.697.107c0-.614-.42-1.14-.692-.867-.201.201.451 1.747.714 1.747.13 0-.022-.525-.022-.88zm7.54.134c0-.556-1.29-2.119-1.757-2.127a.69.69 0 01-.587-.404c-.084-.218-.275-.397-.425-.397-.15 0-.273.179-.273.397 0 .219.113.397.251.397.348 0 1.833 1.615 2.021 2.198.17.523.77.474.77-.064zm-4.596-.48c-.25-.466-1.512-1.654-1.755-1.654-.315 0-.09 1.194.307 1.633.596.658 1.8.675 1.448.02zm1.432-.265c-.099-.4-.307-.846-.462-.992-.197-.185-.232-.065-.117.397.09.364.166.81.168.992.002.182.136.33.297.33.187 0 .228-.263.114-.727zm-6.024.15c-.163-.492-.733-.573-.733-.106 0 .23.585.667.816.667.23 0-.025-.39-.083-.562zm17.93-.727c-.095-.156-.3-.283-.455-.283-.175 0-.155.152.053.404.363.437.688.34.403-.121zm-.25-5.282c-.525-.58-1.413-.878-1.62-.543-.143.231 1.767 1.35 1.969 1.154.06-.059-.097-.333-.348-.61zm-24.447-6.518c.327-.717-.295-1.932-1.126-2.197-.28-.09-.258.017.082.401.963 1.086.076 2.324-1.083 1.512-.66-.462-.77-.077-.155.538.673.672 1.924.533 2.282-.254zm19.688-.278c-.23-.396-.576-.63-.888-.631-.728.009-.728.009-.103.529.753.627 1.211.674.991.102zm4.595-.177c-.008-.395-2.06-1.394-2.323-1.131-.268.269 1.213 1.462 1.816 1.462.283 0 .511-.15.507-.331zm-2.275-2.193c.224-.583-.806-.893-1.877-.564-.749.23-.995.183-1.672-.318-.437-.323-.922-.509-1.077-.413-.512.316.155.61 3.204 1.411 1.28.336 1.248.339 1.422-.116zm-6.317-1.974c.096-.155-.173-.265-.646-.265-.445 0-.809.12-.809.265 0 .145.29.264.646.264.355 0 .72-.119.81-.264zM62.924 9.067c.286-.343-.539-.298-1.643-.298-1.307 0-1.377.376-.112.603.364.066.677.135.695.155.02.02.88-.242 1.06-.46zm5.784-.015c-.234-.039-.285-.018-.512-.018-.227 0-.412.119-.412.265 0 .145.112.264.249.264s1.127-.435.958-.463zm7.18-1.227c-.947-.92-1.733-1.103-1.95-.454-.058.176.195.396.563.489.368.092.808.334.977.538.17.204.55.371.845.371.46 0 .396-.138-.435-.944zm1.31-.311c.258-.474-.326-.401-.708-.869-.494-.21-.769-.13-.769.158 0 .504.63.476 1.477.711zm-5.38-.861c.45 0 .727-.09.618-.199-.237-.237-2.535-.283-2.535-.051 0 .326.378.527.735.39.201-.077.733-.14 1.182-.14zm.057 36.069c-.516-1.168-.589-1.55-.327-1.716.563-.358.867-.255 1.64.55.72.752.53 1.84.04 1.345-.738-.749-.627-.145-.217.661.556 1.094-.455.698-1.136-.84zM65.67 39.46c-.226-.753-.227-2.117 0-2.117.451 0 .598.72.309 1.513-.148.405-.287.677-.309.604zm-2.383-.91c0-.398.475-.82.685-.61.185.185-.18.99-.449.99-.13 0-.236-.17-.236-.38zm22.542-12.339c-.174-.175-.652-1.35-.652-1.466 0-.315.771-.056.777.334.008.54.245 1.502-.125 1.132zm-.783-4.21c-.43-.69-.417-1.08.033-.907.52.2 1.15 1.596.717 1.596-.18 0-.57-.4-.75-.689zM79.455 8.53c-.297-.188-.272-.281.133-.494.583-.306 1.81.062 1.559.468-.202.326-1.192.342-1.691.026zm-22.778-.428c.184-.221 1.05-.613 1.117-.546.183.183-.454 1.181-.774 1.181-.175 0-.552-.383-.343-.635zm4.119-1.94c-.2-.323 1.907-1.954 2.25-1.742.175.108-.084.526-.663 1.073-.97.915-1.34 1.07-1.587.67zm2.755-.831c0-.44.176-.53 1.042-.53 1.263 0 1.63.432.676.795-1.114.423-1.718.33-1.718-.265zm4.497-3.45c0-.202-.237-.252-.675-.142-.62.155-.65.123-.38-.383.538-1.004 2.526-.829 2.329.205-.099.516-1.274.81-1.274.32zm3.616-.166c-.648-.649.477-.848 1.295-.23.487.37.472.39-.302.398-.45.004-.896-.071-.993-.168z" fill="#63605d"/><path d="M80.986 110.685c.484-.905.27-4.02-.277-4.02-.131 0-.272.392-.4.727-.32.844-.652.408-1.314-.015s-.697-.938-1.724-1.883c-1.028-.944-2.576-4.138-3.102-5.769-.526-1.63-.733-2.07-1.468-4.554-.734-2.484-2.626-10.467-1.23-16.161.511-2.335 2.005-5.89 2.688-7.655.683-1.766.782-2.618 2.241-4.057 1.46-1.438 5.002-2.847 6.641-1.784 1.64 1.063 2.526 1.513 3.625 2.346 1.1.833 1.632 2.195 3.478 4.47 1.846 2.277.897 16.205-1.14 23.596-.281 1.019-.954 3.28-1.324 4.824-.588 2.457-1.912 5.466-3.209 7.784-1.296 2.318-2.564 4.388-3.039 4.079-.569-.154-.62-1.278-.446-1.928zm-50.29-16.263c-.653.349-1.908-2.36-3.139-5.608-1.995-5.268-1.685-8.472-1.335-11.443.35-2.97 1.339-4.835 2.272-6.77.933-1.934 2.244-3.8 3.379-4.907 1.134-1.107 1.552-1.447 2.54-2.24.986-.791 3.74-2.185 4.728-2.71.312-.165 1.177-.48 1.748-.331.576.15-.355 1.554-1.135 3.343-1.988 4.559-5.081 13.187-5.854 17.195-.3 1.555-.834 4.08-1.187 5.61-.353 1.53-.719 3.376-.813 4.101-.638 2.298-.607 2.757-1.205 3.76zm46.108-50.595c-.007-.807.053-.954.248-.619.162.277.165.668.01 1.058-.217.541-.25.486-.257-.44zm2.025.132c-.197-.438-.937-2.493-1.18-3.277-.11-.35-.046-.462.215-.377.602.196 1.335 2.025 1.235 3.085-.057.602-.159.816-.27.569zm1.285-2.537c-.194-.506.044-.972.388-.76.315.195.323 1.18.01 1.18-.13 0-.309-.19-.398-.42zm-4.741-.545c-.1-.1-.18-.469-.18-.82 0-.733.608-.693.752.05.101.522-.291 1.05-.572.77zm4.733-3.155c-.097-.387-.118-.764-.045-.837.073-.073.212.185.31.573.097.387.117.764.044.837-.073.073-.212-.185-.31-.573zm-3.263-1.432c-.44-.705-.418-.772.201-.61.293.077.53.361.53.637 0 .647-.317.635-.73-.027zm3.817-1.503a.729.729 0 01-.176-.45c0-.166.123-.15.313.04.172.172.252.374.176.45-.075.075-.216.057-.313-.04zm-6.118-2.713c-.459-.886-.496-1.08-.21-1.078.334.003 1.11 1.564.856 1.72-.13.082-.422-.207-.646-.642zm-2.736.19c-.587-.586-.39-1.152.211-.608.544.492.693.926.318.926-.117 0-.355-.143-.53-.318zM9.998 30.806s6.557-2.384 8.922-3.052c.994-.28 1.932-.641 3.12-.92 1.19-.279 1.473-.247 2.518-.632 2.015-.68 3.607-.981 4.729-1.301 1.607-.464 3.442-.827 5.093-1.335 1.651-.507 2.618-.762 4.322-1.33 1.704-.567 2.896-.903 3.786-1.218a8.521 8.521 0 002.502-1.423c.757-.615 1.075-1.523 1.702-2.2.627-.678.91-1.618 1.711-2.029.8-.41 2.4-.626 2.949-.966.802-.496.64-.56 1.075-.327.405.217.676-.59.982-.843.496-.411 3.41-.38 4.206.046 1.435.769 2.392 3.465 1.693 4.771-.447.835.109 1.442 2.051 2.244 2.339.966 2.677 1.048 2.88 2.032.204.984.388 2.233.264 2.498-.517 1.097-1.467 1.734-3.58 1.962-.536.058-2.585.498-3.24.577-1.038.127-1.797.394-2.487-.042-.742-.47-1.25-.372-2.287-.556-1.037-.185-2.232-.19-3.956-.321-2.415-.112-3.079-.184-4.064-.118a70.78 70.78 0 01-3.658.163c-1.846.17-2.88.263-4.938.546-2.054.271-5.763 1.047-8.889 1.754-4.297.972-13.207 2.402-15.433 2.531 0 0-.924.11-1.376-.025-.451-.136-.597-.486-.597-.486zm47.144-13.717c1.293-.906.36-3.557-1.252-3.557-1.142 0-1.864.69-1.864 1.784 0 1.792 1.703 2.762 3.116 1.773zm-1.617-1.352c-.322-.323-.183-.882.22-.882.22 0 .397.235.397.529 0 .527-.282.688-.617.353zm4.725 12.977c-.236-.236-.38-.477-.322-.536.196-.195.934.206 1.08.588.194.506-.23.477-.758-.052zm12.192-1.578c-.088-.23-.16-.852-.16-1.383 0-.964 0-.964.664-.3.597.597.63.735.33 1.38-.38.82-.604.901-.834.303zm4.27-1.157c-.2-.284-.98-1.009-1.735-1.61-1.475-1.174-1.687-1.577-.832-1.577.872 0 2.102 1.095 2.75 2.447.604 1.262.494 1.707-.183.74zm-5.285-2.922c-.221-.353-.617-.53-1.193-.53-1.512 0-.925-.457.632-.493 1.814-.042 2.439.33 1.778 1.06-.566.627-.807.62-1.217-.037zm2.178-1.588c0-.145.185-.264.412-.264.227 0 .34.119.25.264-.09.146-.276.265-.413.265-.137 0-.25-.12-.25-.265zm5.794-.586c-.887-.649-1.053-.874-.698-.946.673-.137 2.43.789 2.53 1.334.13.702-.533.561-1.832-.388zm.842-3.179c-.547-.585-.713-.94-.526-1.124.186-.184.517.024 1.043.656 1.273 1.53.841 1.922-.517.468zm-9.15-1.526c-.208-.337.405-.337.926 0 .323.208.289.257-.183.26-.318.002-.653-.115-.743-.26zm3.452-1.842c-1.364-.899.026-1.065 2.15-.258.585.223.653.327.342.523-.627.397-1.654.288-2.492-.265zm5.704-.11c-.166-.199-.23-.547-.144-.773.219-.57-.655-.98-2.087-.98-.766 0-1.23-.13-1.322-.37-.222-.578 1.4-.727 2.202-.202.364.239.9.558 1.191.71.291.151.53.43.53.62 0 .189.206.495.458.68.252.184.381.412.287.507-.284.283-.794.196-1.115-.191zm-8.23-1.488c-.308-.199-.23-.257.347-.26.428-.003.674.107.58.26-.204.329-.418.329-.927 0zm-11.52-.547c-.31-.502.142-.626.603-.165.412.413.413.448.009.448-.24 0-.516-.127-.612-.283zm8.32-.145c-.307-.37-.288-.414.144-.33.274.053.548.245.609.427.157.472-.333.409-.753-.097zm5.052-.314c0-.449 1.641-1.163 1.954-.85.374.373-.06.75-1.102.958-.527.106-.852.065-.852-.108zm-12.053-.604c-.337-.546.287-.787 1.209-.466.78.272.83.338.38.514-.76.297-1.387.278-1.589-.048zm2.528-.507c0-.331.281-.331.794 0 .32.208.283.258-.198.261-.328.002-.596-.115-.596-.26zm3.37-.19c-.403-.06-.674-.205-.602-.321.16-.26 1.419-.043 1.617.278.08.129.048.216-.07.194-.117-.022-.543-.09-.946-.15zm1.98-.12c.063-.193.446-.39.851-.438.519-.06.702.018.62.265-.063.193-.446.39-.85.438-.52.06-.703-.018-.621-.265zM66.196 8.77c.523-.338 1.4-.338 1.191 0-.09.146-.484.263-.876.26-.556-.002-.625-.059-.315-.26zm5.292-1.323c-.295-.19-.143-.257.595-.26.546-.002.993.115.993.26 0 .337-1.067.337-1.588 0z" fill="#261c16"/><path d="M0 116.948c.154-.468.915-.786 1.515-.608.287.086.121.78-.176.78-.13 0-.919.294-1.292-.055zM41.424 122.479c-.271-.439-.013-.844.43-.762.457.085.527 1.064.324 1.212-.105.077-.6-.203-.754-.45z" fill="#63605d"/><path d="M77.615 44.478c.38-.573.41.437.595 1.323.119.565.875 1.679.298 1.687-.484.006-.82-.844-.893-1.323-.103-.682-.515-.912 0-1.687z" fill="#a1a09d"/><path d="M65.214 1.996c.27.213-.547.484-1.408.49-.913.006-1.834.518-2.25.7-.529.23-2.468 2.29-2.35.989.097-1.05 2.15-1.769 2.604-1.936.647-.24 2.54-.921 3.404-.243zM59.315 5.675c.822.307-2.204.266-2.959 1.317-.413.575-1.145 1.632-1.453.362-.249-1.024.6-1.12 1.042-1.319 2.287-1.035 2.983-.505 3.37-.36zM55.53 10.753c-.346.281-.567.41-.66-.3-.063-.478.822-.688 1.306-.69.41-.001.36-.134.686.013.219.527-.321.154-1.333.977z" fill="#63605d"/><path d="M59.537 31.219c-.369-.25-.557-.424.096-.718.44-.198.897.588 1.038 1.051.12.393.233.307.186.66-.441.362-.24-.263-1.32-.993z" fill="#a1a09d"/><path d="M66.972 39.215c-.18-.408-.245-.655.464-.556.478.067.445.976.318 1.443-.108.396.421.972-.055.775-.66-.397-.203-.468-.727-1.662z" fill="#63605d"/></g><g><path d="M76.804 43.827c-.007-.807.053-.954.248-.619.162.277.165.668.01 1.058-.217.541-.25.486-.257-.44zm2.025.132c-.197-.438-.937-2.493-1.18-3.277-.11-.35-.046-.462.215-.377.602.196 1.335 2.025 1.235 3.085-.057.602-.159.816-.27.569zm1.285-2.537c-.194-.506.044-.972.388-.76.315.195.323 1.18.01 1.18-.13 0-.309-.19-.398-.42zm-4.741-.545c-.1-.1-.18-.469-.18-.82 0-.733.608-.693.752.05.05.26.258 1.249.138 1.41-.12.163-.57-.5-.71-.64zm4.733-3.155c-.097-.387-.118-.764-.045-.837.073-.073.212.185.31.573.097.387.117.764.044.837-.073.073-.212-.185-.31-.573zm-5.178-.775c0-.218.115-.396.256-.396.14 0 .445 1.3.361 1.519-.084.218-.439-.609-.513-.726a.723.723 0 01-.104-.397zm1.915-.657c-.44-.705-.418-.772.201-.61.293.077.53.361.53.637 0 .647-.317.635-.73-.027zm3.817-1.503a.729.729 0 01-.176-.45c0-.166.123-.15.313.04.172.172.485.561.41.636-.075.076-.45-.13-.547-.226zM61.963 33.64c.018-.33-.604-1.554-.255-1.488.066.012.57.32.57.612 0 .15.067.708.238 1.013.17.306.313.574.198.574-.324 0-.779-.206-.751-.71zm12.579-1.566c-.459-.886-.496-1.08-.21-1.078.334.003 1.11 1.564.856 1.72-.13.082-.422-.207-.646-.642zm-2.736.19c-.587-.586-.39-1.152.211-.608.544.492.926 1.09.552 1.09-.117 0-.589-.307-.763-.482zm6.833-1.65c-.248-.578-1.24-2.352-1.709-2.046-.255.166.43.82.312 1.17-.288.855-1.726-1.256-1.722-2.528.001-.412-.267-1.029-.604-1.388-.335-.355-.53-.723-.437-.817.272-.273.976.445 1.376 1.404.202.484.685 1.024 1.072 1.2.613.28 2.763 3.148 2.763 3.687 0 .727-.62.326-1.051-.682zm-18.39-1.9c-.235-.236-.38-.477-.32-.536.195-.195 1.587.44 1.734.822.097.253.52.843.21.774-.312-.068-1.359-.796-1.623-1.06zm20.002-.003c-.473-.331-.534-.48-.263-.648.352-.217 1.29.405 1.29.856 0 .34-.346.27-1.027-.208zm-7.809-1.575c-.088-.23-.16-.852-.16-1.383 0-.964 0-.964.664-.3.597.597.63.735.33 1.38-.38.82-.604.901-.834.303zm9.894.154c0-.145.112-.264.249-.264s.322.119.412.264c.09.146.33.756.102.756-.227 0-.763-.61-.763-.756zm-3.473-1.273c-.208-.337.835.143 1.356.48.323.208.537.67-.811.177-.3-.11-.455-.512-.545-.657zm-2.151-.038c-.2-.284-.98-1.009-1.735-1.61-1.475-1.174-1.687-1.577-.832-1.577.872 0 2.102 1.095 2.75 2.447.604 1.262.494 1.707-.183.74zm1.721-1.361c-.79-.294-.629-1.013.087-.602.601.345 2.002.266 1.522-.03-.148-.092-1.146-.62-1.146-.85 0-.692-1.5-1.931-2.337-1.931-.861 0-1.294-.428-2.141-2.117-.329-.655-.914-1.454-1.3-1.776-.446-.371-.564-.59-.322-.596.458-.011 1.867 1.285 1.867 1.718 0 .167.294.443.656.604.731.323.743.641.518.658-1.278.098.062.648.922.838.582.262 1.601.997 2.264 1.632.663.636 1.331 1.106 1.465 1.155.41.152 1.319.968 1.318 1.257 0 .277-2.65.309-3.373.04zm-8.69-.806c-.501-.565-.05-.33.091-.255.328.17.558.432.596.567.107.385-.127.319-.687-.312zm1.684-.755c-.221-.353-.617-.53-1.193-.53-1.512 0-.925-.457.632-.493 1.814-.042 2.439.33 1.778 1.06-.566.627-.807.62-1.217-.037zm5.419.191c-.658-.3-.811-.985-.22-.985.656 0 1.422.754 1.422 1.119 0 .518-.53.174-1.202-.134zm-9.158-.323c-.093-.242 0-.397.236-.397.214 0 .34.237.46.42.186.288.197.584.067.584s-.68-.39-.763-.607zm.162-1.705c-.327-.273-.595-.686-.595-.918 0-.302-.255-.42-.91-.42-.868 0-1.444-.38-1.099-.726.143-.142 1.074-.168 2.656-.074 1.114.067 3.407 1.858 2.378 1.858-.425 0-1.173-.597-1.173-.935 0-.213-.238-.388-.53-.388-.352 0-1.025-.154-.727.364.145.252.313.695.454.695.14 0 .382.238.538.529.373.695-.166.704-.992.015zm5.755.25c0-.146.185-.265.412-.265.227 0 .752.423.662.568-.09.146-.688-.04-.825-.04s-.25-.118-.25-.264zm5.794-.587c-.887-.649-1.053-.874-.698-.946.673-.137 2.43.789 2.53 1.334.13.702-.533.561-1.832-.388zm-5.915-.983c-.181-.292-.177-1.021.067-.777.252.251.922 1.164.638 1.164-.137 0-.622-.251-.705-.387zm6.757-2.196c-.547-.585-.713-.94-.526-1.124.186-.184.517.024 1.043.656 1.273 1.53.841 1.922-.517.468zm-14.31.348c0-.134.141-.29.313-.347.58-.193-.654-1.577-1.377-1.577-.57 0-.03.677.083 1.108.223.854-.342.606-.653-.287-.218-.624-.406-.784-.801-.68-.38.099-.476.03-.364-.264.092-.239-.183-.733-.689-1.237-.842-.84-.842-.84-.132-.923.766-.09.88-.302.416-.766-.601-.601.039-.907 1.512-.723.972.121 1.556.076 1.818-.141.212-.177.525-.274.696-.217.491.163-1.111 1.357-1.988 1.137-1.35-.338-1.126.222.503.995.673.32-.212.693-.94.578-.671-.106-1.522-.272-.248.574.359.239.684.492.937.084.096-.156.356-.213.578-.128a.827.827 0 00.744-.127c.206-.171 1.101-.044 1.195.108.085.137-.844.183-1.207.274-.962.241-.102 1.478 1.027 1.478.282 0 1.07-.88.957-1.317-.11-.433.26-1.117.956-1.494.697-.378 1.72-.45 2.916.338 2.26 1.492 2.179 1.706-.923.526-1.3.028-1.803.157-2.215.568-.643.643-.414 1.246.324.852.434-.233.814-.12 1 .136.185.257.175.66-.175 1.009-.515.516-.562.52-1.052.076-.336-.304-.572-.366-.687-.18-.096.155-.444.215-.773.132-.373-.094-.728.006-.942.263-.38.458-.808.549-.808.172zm9.559-.66c-.331-.134-.697-.726-.41-1.015.085-.084.74.152 1.456.523 1.303.676 1.584 1.602.61 1.035-.685-.4-1.063-.304-1.656-.543zm-4.399-1.214c-.208-.337.405-.337.926 0 .323.208.289.257-.183.26-.318.002-.653-.115-.743-.26zm3.452-1.842c-1.364-.899.026-1.065 2.15-.258.585.223.653.327.342.523-.627.397-1.654.288-2.492-.265zm5.704-.11c-.166-.199-.23-.547-.144-.773.219-.57-.655-.98-2.087-.98-.766 0-1.23-.13-1.322-.37-.222-.578 1.4-.727 2.202-.202.364.239.9.558 1.191.71.291.151.53.43.53.62 0 .189.206.495.458.68.252.184.381.412.287.507-.284.283-.794.196-1.115-.191zm-13.786-.694c0-.146.238-.265.53-.265.29 0 1.09.12 1.09.265 0 .145-.8.264-1.09.264-.292 0-.53-.119-.53-.264zm5.556-.794c-.308-.199-.23-.257.347-.26.428-.003.674.107.58.26-.204.329-.418.329-.927 0zm-11.52-.547c-.31-.502.142-.626.603-.165.412.413.413.448.009.448-.24 0-.516-.127-.612-.283zm8.32-.145c-.307-.37-.288-.414.144-.33.274.053.548.245.609.427.157.472-.333.409-.753-.097zm5.052-.314c0-.449 1.641-1.163 1.954-.85.374.373-.06.75-1.102.958-.527.106-.852.065-.852-.108zm-12.053-.604c-.337-.546.287-.787 1.209-.466.78.272.83.338.38.514-.76.297-1.387.278-1.589-.048zm2.528-.507c0-.331.281-.331.794 0 .32.208.283.258-.198.261-.328.002-.596-.115-.596-.26zm3.37-.19c-.403-.06-.674-.205-.602-.321.16-.26 1.419-.043 1.617.278.08.129.048.216-.07.194-.117-.022-.543-.09-.946-.15zm1.98-.12c.063-.193.446-.39.851-.438.519-.06.702.018.62.265-.063.193-.446.39-.85.438-.52.06-.703-.018-.621-.265zM66.196 8.77c.523-.338 1.797-.408 1.589-.07-.09.146-.929.52-1.32.518-.557-.003-.58-.247-.269-.448zm5.292-1.323c-.295-.19-.143-.257.595-.26.546-.002.993.115.993.26 0 .337-1.067.337-1.588 0zm3.704-1.852c0-.145.186-.321.397-.264.367.099.843.5.843.645 0 .145-.426 0-.843-.116-.227-.058-.397-.12-.397-.265zM72.216 4.25c-.676-.207-1.693-.967-1.074-.967.374 0 1.81.209 2.071.427 1.156.97.947.982.067.81-.447-.035-.341-.047-1.064-.27z" fill="#e6e6e6"/><path d="M72.924 33.798c-.166.294.432.307.818.959.37.625.477 1.052.748.865.406-.278-.126-1.003-.467-1.356-.391-.406-.979-.683-1.1-.468zM66.539 24.669c-.165.295.432.307.818.959.371.626 1.482.49 1.754.304.406-.279-.921-.231-1.333-.795-.332-.455-1.119-.683-1.24-.468zM70.35 18.518c-.165.295.854.167 1.24.819.37.626.85 1.59 1.123 1.403.405-.278-.5-1.54-.842-1.894-.391-.405-1.4-.542-1.52-.328zM76.55 7.676c-.165.295.153.21.57.843.239.361.705.888.977.701.405-.278-.458-.66-.721-.993-.35-.442-.706-.766-.826-.55z" fill="#ececec"/></g><g><ellipse cx="101.379" cy="58.091" rx="2.081" ry="2.245" fill="#d7e3a1" transform="translate(-45.667 -42.44)"/><path d="M52.46 13.28c.323-.148.9-.315.9-.315.62-.174 3.46-.114 4.255.311 1.435.769 2.392 3.465 1.693 4.771-2.135 1.186-2.905.789-5.677.64-2.427-2.127-6.202-3.309-1.171-5.408zm4.682 3.809c1.293-.906.36-3.557-1.252-3.557-1.142 0-1.864.69-1.864 1.784 0 1.792 1.703 2.762 3.116 1.773zm-1.617-1.352c-.322-.323-.183-.882.22-.882.22 0 .397.235.397.529 0 .527-.282.688-.617.353z" fill="#333"/></g></svg>