<?xml version="1.0" encoding="UTF-8" standalone="no"?>
<!-- Created with Inkscape (http://www.inkscape.org/) -->

<svg
   width="100.83591mm"
   height="60.508018mm"
   viewBox="0 0 100.83591 60.508018"
   version="1.1"
   id="svg1"
   xml:space="preserve"
   inkscape:version="1.4.2 (ebf0e940, 2025-05-08)"
   sodipodi:docname="hanger.svg"
   xmlns:inkscape="http://www.inkscape.org/namespaces/inkscape"
   xmlns:sodipodi="http://sodipodi.sourceforge.net/DTD/sodipodi-0.dtd"
   xmlns="http://www.w3.org/2000/svg"
   xmlns:svg="http://www.w3.org/2000/svg"><sodipodi:namedview
     id="namedview1"
     pagecolor="#ffffff"
     bordercolor="#000000"
     borderopacity="0.25"
     inkscape:showpageshadow="2"
     inkscape:pageopacity="0.0"
     inkscape:pagecheckerboard="0"
     inkscape:deskcolor="#d1d1d1"
     inkscape:document-units="mm"
     inkscape:zoom="0.89887065"
     inkscape:cx="199.69503"
     inkscape:cy="125.15705"
     inkscape:window-width="1472"
     inkscape:window-height="1186"
     inkscape:window-x="97"
     inkscape:window-y="31"
     inkscape:window-maximized="0"
     inkscape:current-layer="layer1" /><defs
     id="defs1" /><g
     inkscape:label="Layer 1"
     inkscape:groupmode="layer"
     id="layer1"
     transform="translate(-52.120671,-139.44029)"><path
       style="fill:#000000"
       d="m 73.85259,199.91805 c -0.01056,-0.009 -2.475778,-0.0431 -5.478262,-0.0755 -3.002484,-0.0324 -5.478984,-0.0708 -5.503334,-0.0853 -0.02435,-0.0145 -1.282521,-0.0503 -2.795938,-0.0795 -7.038897,-0.13596 -7.981974,-0.47881 -7.953786,-2.8916 0.01421,-1.21606 1.416735,-3.76211 2.072414,-3.76211 0.02351,0 0.190292,-0.0932 0.370638,-0.207 0.774302,-0.48879 1.901627,-0.5899 2.945197,-0.26414 1.47273,0.45971 1.613154,0.41165 3.143672,-1.07607 0.590076,-0.57357 1.244315,-1.15911 1.453865,-1.30119 0.786786,-0.53347 10.621694,-6.48559 12.954001,-7.83981 0.721783,-0.41909 1.883833,-1.11387 2.582333,-1.54394 0.6985,-0.43008 1.78435,-1.07865 2.413,-1.44128 0.62865,-0.36263 1.285058,-0.74916 1.458685,-0.85895 0.173626,-0.10979 0.334766,-0.19962 0.358087,-0.19962 0.02332,0 0.662313,-0.37472 1.419982,-0.83272 1.919211,-1.16012 3.717024,-2.2184 5.06058,-2.97891 0.62865,-0.35585 1.786133,-1.01977 2.572185,-1.47539 2.284445,-1.32412 2.781368,-1.52999 4.963148,-2.05614 3.124753,-0.75355 3.217573,-0.78867 3.864549,-1.46217 0.472124,-0.49149 0.764574,-1.52527 0.675764,-2.3888 -0.067,-0.65162 0.0529,-1.21801 0.44686,-2.11078 0.3298,-0.74735 0.3298,-0.74735 0.16346,-1.06606 -0.12669,-0.24272 -0.15371,-0.40953 -0.11334,-0.6997 0.0771,-0.55417 0.0735,-0.59764 -0.0842,-1.016 -0.11791,-0.31271 -0.12744,-0.4523 -0.0532,-0.7788 0.073,-0.321 0.0651,-0.4586 -0.0411,-0.71267 -0.0724,-0.17317 -0.12391,-0.47994 -0.11456,-0.68169 0.0277,-0.59751 0.0135,-0.98166 -0.0493,-1.32894 -0.0351,-0.19452 -0.0172,-0.45408 0.0443,-0.64037 0.0787,-0.23857 0.0805,-0.39276 0.007,-0.64657 -0.57278,-1.9876 -0.16601,-3.50172 1.67678,-6.24151 0.58827,-0.87462 1.26545,-1.89485 1.50485,-2.26718 2.93006,-4.55709 -1.41616,-10.20874 -6.31698,-8.21434 -1.868569,0.76042 -2.735123,1.93514 -3.481424,4.71949 -0.785408,2.93026 -0.706994,2.73444 -1.072811,2.67911 -0.493462,-0.0746 -0.494197,-0.0579 0.102105,-2.32531 1.000889,-3.80581 2.001833,-5.11207 4.602962,-6.00699 5.004578,-1.72182 9.691918,3.85303 7.348868,8.74033 -0.29368,0.61258 -0.46756,0.88894 -1.60424,2.54975 -1.88551,2.75492 -2.67694,4.5746 -1.73696,3.99366 0.23448,-0.14491 0.51572,0.055 0.46116,0.32781 -0.0297,0.14831 -0.0927,0.63225 -0.14003,1.07544 -0.0473,0.44318 -0.12271,0.9162 -0.16747,1.05115 -0.0541,0.16324 -0.0519,0.28093 0.007,0.35163 0.19193,0.23126 0.24178,0.63242 0.12628,1.01622 -0.10399,0.34552 -0.0983,0.41664 0.0638,0.8003 0.16941,0.40098 0.1715,0.44108 0.0439,0.83998 -0.10775,0.33694 -0.11356,0.44892 -0.0297,0.57236 0.24208,0.35627 0.29564,0.69173 0.17464,1.09378 -0.1078,0.35819 -0.1033,0.41524 0.057,0.72282 0.1671,0.32061 0.17632,0.64114 0.0291,1.01235 -0.0359,0.0905 0.11817,0.34122 0.4641,0.75526 0.71736,0.85861 0.83491,1.12663 0.9765,2.22664 0.1947,1.51256 0.38274,2.03807 0.96663,2.70141 0.593,0.67368 0.82807,0.74667 3.77042,1.17075 2.60718,0.37577 2.51016,0.33883 5.75733,2.1922 0.18627,0.10632 1.29117,0.7452 2.45534,1.41974 2.86118,1.65783 4.16068,2.40454 5.715,3.28388 1.5558,0.88019 2.80694,1.5945 3.85233,2.19941 1.29771,0.75092 1.9293,1.11175 2.413,1.37855 0.25612,0.14127 1.28482,0.72334 2.286,1.29349 1.89825,1.08101 3.35618,1.90354 4.14867,2.34057 0.25611,0.14124 0.82761,0.46638 1.27,0.72252 0.44238,0.25614 1.83303,1.02961 3.09033,1.71882 3.07262,1.68431 3.21333,1.7825 4.34319,3.03075 1.49635,1.65315 1.65979,1.72319 3.23448,1.38617 1.80972,-0.38733 2.43353,-0.35028 3.47833,0.2066 3.16955,1.68935 3.29738,6.2432 0.19336,6.88865 -0.34796,0.0724 -1.60109,0.15627 -3.12136,0.20902 -3.14758,0.1092 -10.76836,0.32105 -13.716,0.38128 -1.21073,0.0247 -2.84903,0.064 -3.64067,0.0872 -0.79163,0.0232 -2.58233,0.0627 -3.97933,0.0878 -1.397,0.0251 -3.3782,0.0666 -4.40267,0.0922 -2.59468,0.0649 -12.38199,0.0686 -13.716,0.005 -5.4765,-0.26034 -11.50296,-0.28394 -16.425332,-0.0643 -4.132246,0.18435 -17.714101,0.41042 -17.845467,0.29703 z m 15.6018,-1.09188 c 5.642367,-0.21046 11.82225,-0.30414 14.01233,-0.21241 7.74924,0.32458 13.7289,0.32381 26.33134,-0.003 1.86267,-0.0484 4.98687,-0.12446 6.94267,-0.16912 14.17497,-0.32367 14.49373,-0.35685 15.03049,-1.56484 1.11124,-2.50086 -1.55577,-5.16308 -4.30791,-4.30018 -1.82643,0.57265 -2.41076,0.36569 -4.24558,-1.50373 -1.42523,-1.45211 -1.54009,-1.54308 -2.794,-2.21294 -0.39582,-0.21145 -1.09868,-0.60372 -1.56192,-0.87173 -0.46323,-0.268 -1.03473,-0.59172 -1.27,-0.71937 -0.86975,-0.47194 -2.5727,-1.42398 -3.51808,-1.9668 -1.7857,-1.0253 -5.18611,-2.96245 -7.02734,-4.00334 -2.21258,-1.25083 -3.51622,-2.0015 -4.191,-2.4133 -0.44569,-0.27199 -1.38695,-0.81094 -2.33374,-1.33626 -0.40424,-0.22429 -2.1452,-1.2323 -4.56659,-2.64406 -5.45187,-3.17861 -5.06037,-2.98947 -6.64634,-3.21091 -5.14688,-0.71862 -6.00337,-1.33869 -6.39228,-4.62778 -0.30129,-2.54804 -1.69338,-2.48746 -1.69338,0.0737 0,2.80032 -0.7835,3.53183 -4.868336,4.54533 -2.240618,0.55593 -2.963191,0.83938 -4.656667,1.82669 -0.372533,0.21719 -0.791633,0.46164 -0.931333,0.54323 -0.1397,0.0816 -0.88265,0.51065 -1.651,0.95347 -2.13952,1.23309 -3.914062,2.27448 -4.148667,2.43465 -0.240346,0.16409 -3.060179,1.82341 -3.894667,2.2918 -0.302683,0.16989 -1.571844,0.92442 -2.820357,1.67672 -1.248514,0.75231 -2.285792,1.36783 -2.305064,1.36783 -0.01927,0 -0.636061,0.36698 -1.370642,0.81551 -0.734582,0.44853 -1.819555,1.10576 -2.411051,1.4605 -0.591496,0.35474 -2.382196,1.44168 -3.979333,2.41541 -1.597138,0.97373 -3.511748,2.13578 -4.254688,2.58233 -1.236311,0.7431 -1.459081,0.9166 -2.628317,2.04705 -1.745066,1.68719 -2.365859,1.88586 -4.106549,1.3142 -2.166281,-0.71143 -4.572569,1.55396 -4.065204,3.82716 0.309989,1.38887 1.248656,1.50403 13.682403,1.67856 1.998224,0.0281 3.652185,0.069 3.675468,0.091 0.09505,0.0899 15.667557,-0.062 18.965334,-0.18503 z"
       id="path1" /></g></svg>
