<?xml version="1.0" encoding="UTF-8" standalone="no"?>
<!-- Created with Inkscape (http://www.inkscape.org/) -->

<svg
   width="154.13275mm"
   height="45.944912mm"
   viewBox="0 0 154.13275 45.944912"
   version="1.1"
   id="svg1"
   inkscape:version="1.4.2 (ebf0e940, 2025-05-08)"
   sodipodi:docname="rockbügel2.svg"
   xmlns:inkscape="http://www.inkscape.org/namespaces/inkscape"
   xmlns:sodipodi="http://sodipodi.sourceforge.net/DTD/sodipodi-0.dtd"
   xmlns="http://www.w3.org/2000/svg"
   xmlns:svg="http://www.w3.org/2000/svg">
  <sodipodi:namedview
     id="namedview1"
     pagecolor="#ffffff"
     bordercolor="#000000"
     borderopacity="0.25"
     inkscape:showpageshadow="2"
     inkscape:pageopacity="0.0"
     inkscape:pagecheckerboard="0"
     inkscape:deskcolor="#d1d1d1"
     inkscape:document-units="mm"
     inkscape:zoom="0.91846942"
     inkscape:cx="221.01988"
     inkscape:cy="258.58237"
     inkscape:window-width="976"
     inkscape:window-height="1186"
     inkscape:window-x="0"
     inkscape:window-y="31"
     inkscape:window-maximized="0"
     inkscape:current-layer="layer1" />
  <defs
     id="defs1" />
  <g
     inkscape:label="Layer 1"
     inkscape:groupmode="layer"
     id="layer1"
     transform="translate(-46.302082,-80.168749)">
    <g
       id="g7"
       inkscape:label="Rockbügel 2"
       transform="translate(18.368362,23.095059)">
      <path
         id="path1-5-9-17-1-1-1-5"
         style="fill:#000000;fill-opacity:1;stroke:none;stroke-width:0.564999;stroke-dasharray:none;stroke-opacity:1"
         inkscape:transform-center-x="3.3142917"
         inkscape:transform-center-y="0.52727367"
         d="m 101.92741,57.102363 c -0.0509,1.26e-4 -0.10143,7.66e-4 -0.15193,0.0026 a 0.26458333,0.26458333 0 0 0 0,0.01137 0.26458333,0.26458333 0 0 0 0.0775,0.187069 0.26458333,0.26458333 0 0 0 0.0336,0.03152 0.26458333,0.26458333 0 0 0 0.16123,0.05478 0.26458333,0.26458333 0 0 0 0.26458,-0.264583 0.26458333,0.26458333 0 0 0 0,-0.0088 c -0.1302,-0.0099 -0.25833,-0.01432 -0.38499,-0.01395 z m -0.67541,0.05271 c -0.16304,0.02543 -0.32614,0.06028 -0.49144,0.104387 a 0.26458333,0.26458333 0 0 0 0.0186,0.02739 0.26458333,0.26458333 0 0 0 0.0227,0.02636 0.26458333,0.26458333 0 0 0 0.0258,0.02274 0.26458333,0.26458333 0 0 0 0.12661,0.05323 0.26458333,0.26458333 0 0 0 0.0346,0 0.26458333,0.26458333 0 0 0 0.0346,0 0.26458333,0.26458333 0 0 0 0.22841,-0.234095 z m 1.59009,0.02739 a 0.26458333,0.26458333 0 0 0 0.0475,0.09612 0.26458333,0.26458333 0 0 0 0.005,0.0078 0.26458333,0.26458333 0 0 0 0.0233,0.02584 0.26458333,0.26458333 0 0 0 0.0258,0.02325 0.26458333,0.26458333 0 0 0 0.0599,0.03514 0.26458333,0.26458333 0 0 0 0.0667,0.01809 0.26458333,0.26458333 0 0 0 0.0346,0 0.26458333,0.26458333 0 0 0 0.21342,-0.108521 c -0.16369,-0.03867 -0.32215,-0.07148 -0.47645,-0.09767 z M 101.5109,57.3809 a 0.26458333,0.26458333 0 0 0 -0.26458,0.264584 0.26458333,0.26458333 0 0 0 0.13229,0.228926 0.26458333,0.26458333 0 0 0 0.0372,0.01964 0.26458333,0.26458333 0 0 0 0.0667,0.01809 0.26458333,0.26458333 0 0 0 0.0346,0 0.26458333,0.26458333 0 0 0 0.26458,-0.264583 0.26458333,0.26458333 0 0 0 -0.16949,-0.246497 0.26458333,0.26458333 0 0 0 -0.0264,-0.0093 0.26458333,0.26458333 0 0 0 -0.002,-5.16e-4 0.26458333,0.26458333 0 0 0 -0.0734,-0.01034 z m 1.05833,0 a 0.26458333,0.26458333 0 0 0 -0.26458,0.264584 0.26458333,0.26458333 0 0 0 0.0791,0.188102 0.26458333,0.26458333 0 0 0 0.03,0.0279 0.26458333,0.26458333 0 0 0 0.0289,0.01912 0.26458333,0.26458333 0 0 0 0.0636,0.02584 0.26458333,0.26458333 0 0 0 0.0687,0.01033 0.26458333,0.26458333 0 0 0 0.26458,-0.264583 0.26458333,0.26458333 0 0 0 -0.0605,-0.167949 0.26458333,0.26458333 0 0 0 -0.20981,-0.103353 z m 1.05834,0 a 0.26458333,0.26458333 0 0 0 -0.26459,0.264584 0.26458333,0.26458333 0 0 0 0.10904,0.213423 0.26458333,0.26458333 0 0 0 0.001,10e-4 0.26458333,0.26458333 0 0 0 0.0222,0.01447 0.26458333,0.26458333 0 0 0 0.10438,0.03772 0.26458333,0.26458333 0 0 0 0.0346,0 0.26458333,0.26458333 0 0 0 0.0672,-0.0098 0.26458333,0.26458333 0 0 0 0.063,-0.02532 0.26458333,0.26458333 0 0 0 0.0543,-0.04082 c 3.7e-4,-0.0031 6.6e-4,-0.0062 10e-4,-0.0093 a 0.26458333,0.26458333 0 0 0 0.0724,-0.181384 0.26458333,0.26458333 0 0 0 -0.0377,-0.136426 c 2.8e-4,-0.0029 2.3e-4,-0.0059 5.1e-4,-0.0088 a 0.26458333,0.26458333 0 0 0 -0.0227,-0.02894 0.26458333,0.26458333 0 0 0 -0.0269,-0.02584 0.26458333,0.26458333 0 0 0 -0.03,-0.02222 0.26458333,0.26458333 0 0 0 -0.0677,-0.03101 0.26458333,0.26458333 0 0 0 -0.0362,-0.0098 0.26458333,0.26458333 0 0 0 -0.0181,0 0.26458333,0.26458333 0 0 0 -0.0258,-0.0016 z m -3.20239,0.0067 a 0.26458333,0.26458333 0 0 0 -0.0977,0.03359 0.26458333,0.26458333 0 0 0 -0.0289,0.01912 0.26458333,0.26458333 0 0 0 -0.0258,0.02326 0.26458333,0.26458333 0 0 0 -0.0424,0.05478 0.26458333,0.26458333 0 0 0 -0.0155,0.03101 0.26458333,0.26458333 0 0 0 -0.0114,0.03307 0.26458333,0.26458333 0 0 0 -0.009,0.06925 0.26458333,0.26458333 0 0 0 0.003,0.03462 0.26458333,0.26458333 0 0 0 0.0336,0.09819 0.26458333,0.26458333 0 0 0 0.0191,0.02894 0.26458333,0.26458333 0 0 0 0.0775,0.06821 0.26458333,0.26458333 0 0 0 0.0636,0.02584 0.26458333,0.26458333 0 0 0 0.0687,0.0098 0.26458333,0.26458333 0 0 0 0.26458,-0.264584 0.26458333,0.26458333 0 0 0 -0.26458,-0.264583 l -5.2e-4,-5.17e-4 a 0.26458333,0.26458333 0 0 0 -0.0346,0 z m 3.99924,0.213424 a 0.26458333,0.26458333 0 0 0 -0.004,0.04496 0.26458333,0.26458333 0 0 0 0.0202,0.101286 0.26458333,0.26458333 0 0 0 0.0155,0.03101 0.26458333,0.26458333 0 0 0 0.0191,0.02894 0.26458333,0.26458333 0 0 0 0.0486,0.04909 0.26458333,0.26458333 0 0 0 0.0289,0.0186 0.26458333,0.26458333 0 0 0 0.031,0.01499 0.26458333,0.26458333 0 0 0 0.0326,0.01137 0.26458333,0.26458333 0 0 0 0.0687,0.0098 0.26458333,0.26458333 0 0 0 0.21963,-0.117306 c -0.16293,-0.07196 -0.31927,-0.1347 -0.48059,-0.192753 z m -4.759922,0.0677 c -0.0679,0.03166 -0.13653,0.06482 -0.20619,0.09922 -0.0705,0.03483 -0.13948,0.06908 -0.20722,0.103869 a 0.26458333,0.26458333 0 0 0 0.0806,0.03721 0.26458333,0.26458333 0 0 0 0.0341,0.0098 0.26458333,0.26458333 0 0 0 0.0346,0 0.26458333,0.26458333 0 0 0 0.0346,0 0.26458333,0.26458333 0 0 0 0.22944,-0.250114 z m 2.375572,0.241329 a 0.26458333,0.26458333 0 0 0 -0.26459,0.264583 0.26458333,0.26458333 0 0 0 0.0837,0.19327 c 0.003,-1.08e-4 0.005,-4.1e-4 0.008,-5.17e-4 0.13564,-0.0052 0.25918,-0.0075 0.37465,-0.0062 a 0.26458333,0.26458333 0 0 0 0.0698,-0.179317 0.26458333,0.26458333 0 0 0 -0.0811,-0.190686 0.26458333,0.26458333 0 0 0 -0.19068,-0.08113 z m 1.05833,0 a 0.26458333,0.26458333 0 0 0 -0.26458,0.264583 0.26458333,0.26458333 0 0 0 0.0579,0.164331 0.26458333,0.26458333 0 0 0 0.003,0.0047 0.26458333,0.26458333 0 0 0 0.0227,0.02584 0.26458333,0.26458333 0 0 0 0.0858,0.05684 0.26458333,0.26458333 0 0 0 0.0326,0.01137 0.26458333,0.26458333 0 0 0 0.0687,0.0098 0.26458333,0.26458333 0 0 0 0.0346,0 0.26458333,0.26458333 0 0 0 0.22996,-0.262516 0.26458333,0.26458333 0 0 0 -0.0398,-0.138493 0.26458333,0.26458333 0 0 0 -0.23099,-0.136426 z m 1.05833,0 a 0.26458333,0.26458333 0 0 0 -0.0687,0.0098 0.26458333,0.26458333 0 0 0 -0.0636,0.02687 0.26458333,0.26458333 0 0 0 -0.0966,0.09715 0.26458333,0.26458333 0 0 0 -0.0155,0.03101 0.26458333,0.26458333 0 0 0 -0.0114,0.03307 0.26458333,0.26458333 0 0 0 -0.009,0.06873 0.26458333,0.26458333 0 0 0 0.009,0.06821 0.26458333,0.26458333 0 0 0 0.0269,0.06408 0.26458333,0.26458333 0 0 0 0.0186,0.02894 0.26458333,0.26458333 0 0 0 0.0486,0.04909 0.26458333,0.26458333 0 0 0 0.0289,0.01912 0.26458333,0.26458333 0 0 0 0.031,0.01499 0.26458333,0.26458333 0 0 0 0.10129,0.01964 0.26458333,0.26458333 0 0 0 0.0346,0 0.26458333,0.26458333 0 0 0 0.22996,-0.262516 0.26458333,0.26458333 0 0 0 -0.26458,-0.264584 z m 1.01079,0.0047 a 0.26458333,0.26458333 0 0 0 -0.0212,0.0052 0.26458333,0.26458333 0 0 0 -0.0326,0.01085 0.26458333,0.26458333 0 0 0 -0.031,0.01499 0.26458333,0.26458333 0 0 0 -0.0289,0.01912 0.26458333,0.26458333 0 0 0 -0.10336,0.209806 0.26458333,0.26458333 0 0 0 0.009,0.06821 0.26458333,0.26458333 0 0 0 0.0269,0.06408 0.26458333,0.26458333 0 0 0 0.0191,0.02894 0.26458333,0.26458333 0 0 0 0.10852,0.08268 0.26458333,0.26458333 0 0 0 0.0667,0.01809 0.26458333,0.26458333 0 0 0 0.0346,0 0.26458333,0.26458333 0 0 0 0.0723,-0.0098 c -0.16479,-0.08831 -0.26379,-0.151208 -0.27078,-0.167948 v -5.17e-4 -5.17e-4 -5.16e-4 -5.17e-4 l 5.2e-4,-5.17e-4 5.1e-4,-5.17e-4 h 5.2e-4 v -5.16e-4 h 5.2e-4 c 6.1e-4,-1.78e-4 10e-4,5e-5 0.002,0 0.0124,-7.3e-4 0.0513,0.01151 0.12041,0.04031 0.0554,0.02314 0.13234,0.06046 0.21239,0.101803 a 0.26458333,0.26458333 0 0 0 0.12609,-0.225309 0.26458333,0.26458333 0 0 0 -0.0274,-0.116789 c -0.0996,-0.05036 -0.19387,-0.09714 -0.28474,-0.14056 z m -5.236892,0.0021 a 0.26458333,0.26458333 0 0 0 -0.26458,0.264583 0.26458333,0.26458333 0 0 0 0.26458,0.264584 0.26458333,0.26458333 0 0 0 0.264592,-0.264584 0.26458333,0.26458333 0 0 0 -0.264592,-0.264583 z m 1.058342,0 a 0.26458333,0.26458333 0 0 0 -0.10129,0.01964 0.26458333,0.26458333 0 0 0 -0.031,0.01499 0.26458333,0.26458333 0 0 0 -0.13023,0.194304 0.26458333,0.26458333 0 0 0 -0.003,0.03514 0.26458333,0.26458333 0 0 0 0.003,0.03514 0.26458333,0.26458333 0 0 0 0.007,0.03359 0.26458333,0.26458333 0 0 0 0.0114,0.03307 0.26458333,0.26458333 0 0 0 0.0346,0.05995 0.26458333,0.26458333 0 0 0 0.0775,0.06821 0.26458333,0.26458333 0 0 0 0.0636,0.02584 0.26458333,0.26458333 0 0 0 0.0687,0.01034 0.26458333,0.26458333 0 0 0 0.0346,0 0.26458333,0.26458333 0 0 0 0.22996,-0.262516 0.26458333,0.26458333 0 0 0 -0.26458,-0.264583 z m -1.942522,0.06253 c -0.14904,0.07991 -0.29307,0.161162 -0.43511,0.245463 a 0.26458333,0.26458333 0 0 0 0.005,0.02481 0.26458333,0.26458333 0 0 0 0.0269,0.06356 0.26458333,0.26458333 0 0 0 0.0191,0.02894 0.26458333,0.26458333 0 0 0 0.10852,0.0832 0.26458333,0.26458333 0 0 0 0.0667,0.01809 0.26458333,0.26458333 0 0 0 0.0346,0 0.26458333,0.26458333 0 0 0 0.26458,-0.264584 0.26458333,0.26458333 0 0 0 -0.0904,-0.199471 z m 4.581122,0.459921 a 0.26458333,0.26458333 0 0 0 -0.20516,0.09715 c 0.15457,0.04256 0.31095,0.09231 0.46871,0.148312 a 0.26458333,0.26458333 0 0 0 -0.20826,-0.238745 0.26458333,0.26458333 0 0 0 -0.0155,-0.0052 0.26458333,0.26458333 0 0 0 -0.0186,0 0.26458333,0.26458333 0 0 0 -0.0212,-0.0015 z m 1.05833,0 a 0.26458333,0.26458333 0 0 0 -0.10129,0.01964 0.26458333,0.26458333 0 0 0 -0.0599,0.03514 0.26458333,0.26458333 0 0 0 -0.0677,0.077 0.26458333,0.26458333 0 0 0 -0.0357,0.132291 0.26458333,0.26458333 0 0 0 0.003,0.03514 0.26458333,0.26458333 0 0 0 0.007,0.03411 0.26458333,0.26458333 0 0 0 0.046,0.09302 0.26458333,0.26458333 0 0 0 0.10852,0.08268 0.26458333,0.26458333 0 0 0 0.0326,0.01137 0.26458333,0.26458333 0 0 0 0.0341,0.0098 0.26458333,0.26458333 0 0 0 0.0346,0 0.26458333,0.26458333 0 0 0 0.0346,0 0.26458333,0.26458333 0 0 0 0.22996,-0.262516 0.26458333,0.26458333 0 0 0 -0.26459,-0.264584 z m 1.05833,0 a 0.26458333,0.26458333 0 0 0 -0.18138,0.07183 c 0.0936,0.05333 0.16513,0.09858 0.17156,0.111621 v 5.17e-4 5.17e-4 c 0,0.0028 -7.7e-4,0.0058 -0.002,0.0078 -1.3e-4,2.64e-4 -8.8e-4,0.0013 -0.001,0.0016 -1.7e-4,2.26e-4 -8.4e-4,0.0013 -10e-4,0.0016 l -5.2e-4,5.16e-4 c -2.4e-4,1.66e-4 -10e-4,3.73e-4 -0.002,5.17e-4 -0.0146,0.006 -0.0623,-0.01381 -0.20102,-0.08423 a 0.26458333,0.26458333 0 0 0 -0.0481,0.152445 0.26458333,0.26458333 0 0 0 0.26458,0.264583 0.26458333,0.26458333 0 0 0 0.23668,-0.146761 c -0.0271,-0.01669 -0.0478,-0.02814 -0.0594,-0.03256 -0.0423,-0.0161 -0.0667,-0.03928 -0.0543,-0.05168 l 5.2e-4,-5.17e-4 c 0.003,-0.0026 0.009,-0.0036 0.016,-0.0036 v -5.17e-4 c 0.0225,-4.7e-4 0.0618,0.01176 0.10077,0.03256 0.005,0.0025 0.01,0.0054 0.015,0.0083 a 0.26458333,0.26458333 0 0 0 0.009,-0.06976 0.26458333,0.26458333 0 0 0 -0.26459,-0.264583 z m -7.401102,0.0067 a 0.26458333,0.26458333 0 0 0 -0.0739,0.01033 c -0.0435,0.02791 -0.0902,0.06208 -0.13384,0.09095 a 0.26458333,0.26458333 0 0 0 -0.0212,0.03049 0.26458333,0.26458333 0 0 0 -0.0362,0.132291 0.26458333,0.26458333 0 0 0 0.003,0.03514 0.26458333,0.26458333 0 0 0 0.007,0.03411 0.26458333,0.26458333 0 0 0 0.046,0.09302 0.26458333,0.26458333 0 0 0 0.10852,0.08268 0.26458333,0.26458333 0 0 0 0.0326,0.01085 0.26458333,0.26458333 0 0 0 0.0341,0.01034 0.26458333,0.26458333 0 0 0 0.0346,0 0.26458333,0.26458333 0 0 0 0.0346,0 0.26458333,0.26458333 0 0 0 0.22996,-0.262516 0.26458333,0.26458333 0 0 0 -0.26458,-0.264584 z m 1.05834,0 a 0.26458333,0.26458333 0 0 0 -0.26459,0.264583 0.26458333,0.26458333 0 0 0 0.26459,0.264583 0.26458333,0.26458333 0 0 0 0.26458,-0.264583 0.26458333,0.26458333 0 0 0 -0.26458,-0.264583 z m 1.058332,0 a 0.26458333,0.26458333 0 0 0 -0.26458,0.264583 0.26458333,0.26458333 0 0 0 0.008,0.06666 c 0.14256,-0.07307 0.25447,-0.126778 0.31109,-0.148829 0.0578,-0.02251 0.11309,-0.04312 0.16691,-0.06201 a 0.26458333,0.26458333 0 0 0 -0.22169,-0.120406 z m 6.07818,0.253731 a 0.26458333,0.26458333 0 0 0 0,0.0041 0.26458333,0.26458333 0 0 0 0.26459,0.264583 0.26458333,0.26458333 0 0 0 0.0832,-0.01344 c -0.11501,-0.08873 -0.23047,-0.173659 -0.34779,-0.255281 z m -1.35754,0.268717 a 0.26458333,0.26458333 0 0 0 -0.0341,0.0098 0.26458333,0.26458333 0 0 0 -0.0326,0.01085 0.26458333,0.26458333 0 0 0 -0.0599,0.03514 0.26458333,0.26458333 0 0 0 -0.0258,0.02325 0.26458333,0.26458333 0 0 0 -0.0419,0.05478 0.26458333,0.26458333 0 0 0 -0.0238,0.05374 c 0.15265,0.08007 0.30384,0.165153 0.4532,0.254765 a 0.26458333,0.26458333 0 0 0 0.0636,-0.1726 0.26458333,0.26458333 0 0 0 -0.26458,-0.264583 l 5.2e-4,-0.0052 a 0.26458333,0.26458333 0 0 0 -0.0346,0 z m 1.11208,5.17e-4 c 0.072,0.05182 0.14959,0.109512 0.22789,0.168982 a 0.26458333,0.26458333 0 0 0 -0.22789,-0.168982 z m -8.478552,0.0062 a 0.26458333,0.26458333 0 0 0 -0.06873,0.0098 0.26458333,0.26458333 0 0 0 -0.03256,0.01085 0.26458333,0.26458333 0 0 0 -0.05994,0.03514 0.26458333,0.26458333 0 0 0 -0.0677,0.07803 0.26458333,0.26458333 0 0 0 -0.02687,0.06305 0.26458333,0.26458333 0 0 0 -0.0093,0.06873 0.26458333,0.26458333 0 0 0 0.03566,0.132292 0.26458333,0.26458333 0 0 0 0.01912,0.02946 0.26458333,0.26458333 0 0 0 0.04858,0.04858 0.26458333,0.26458333 0 0 0 0.02894,0.01912 0.26458333,0.26458333 0 0 0 0.03101,0.01499 0.26458333,0.26458333 0 0 0 0.03256,0.01085 0.26458333,0.26458333 0 0 0 0.06873,0.01034 0.26458333,0.26458333 0 0 0 0.26458,-0.264583 0.26458333,0.26458333 0 0 0 -0.26458,-0.264584 z m 1.02371,0 a 0.26458333,0.26458333 0 0 0 -0.0341,0.0098 0.26458333,0.26458333 0 0 0 -0.0326,0.01085 0.26458333,0.26458333 0 0 0 -0.06,0.03514 0.26458333,0.26458333 0 0 0 -0.0258,0.02325 0.26458333,0.26458333 0 0 0 -0.0424,0.05478 0.26458333,0.26458333 0 0 0 -0.0269,0.06408 0.26458333,0.26458333 0 0 0 -0.007,0.03411 0.26458333,0.26458333 0 0 0 -0.003,0.03462 0.26458333,0.26458333 0 0 0 0.003,0.03514 0.26458333,0.26458333 0 0 0 0.0755,0.152445 0.26458333,0.26458333 0 0 0 0.0548,0.04186 0.26458333,0.26458333 0 0 0 0.13229,0.03617 0.26458333,0.26458333 0 0 0 0.007,5.16e-4 c 0.067,-0.03988 0.14192,-0.0832 0.22117,-0.128674 a 0.26458333,0.26458333 0 0 0 0.0362,-0.134359 0.26458333,0.26458333 0 0 0 -0.26459,-0.264583 l 5.2e-4,-0.0052 a 0.26458333,0.26458333 0 0 0 -0.0346,0 z m 7.370092,0.0016 a 0.26458333,0.26458333 0 0 0 -0.19895,0.256315 0.26458333,0.26458333 0 0 0 0.26458,0.264583 0.26458333,0.26458333 0 0 0 0.26458,-0.264583 0.26458333,0.26458333 0 0 0 -5.1e-4,-0.0098 c -0.0844,-0.06327 -0.17612,-0.132154 -0.25477,-0.191203 -0.025,-0.01879 -0.0501,-0.03727 -0.0749,-0.05529 z m 0.88522,0.142627 a 0.26458333,0.26458333 0 0 0 -0.0258,0.113688 0.26458333,0.26458333 0 0 0 0.26458,0.264583 0.26458333,0.26458333 0 0 0 0.1478,-0.04548 c -0.12929,-0.116834 -0.25757,-0.227317 -0.38654,-0.332796 z m -10.103263,0.242362 c -0.05279,0.04198 -0.108252,0.0871 -0.168982,0.136426 a 0.26458333,0.26458333 0 0 0 0.168982,-0.134876 v -0.001 a 0.26458333,0.26458333 0 0 0 0,-5.17e-4 z m 8.754503,0.135909 a 0.26458333,0.26458333 0 0 0 -0.13125,0.03462 c 0.13348,0.08477 0.26464,0.173041 0.39325,0.264584 a 0.26458333,0.26458333 0 0 0 0.003,-0.03462 0.26458333,0.26458333 0 0 0 -0.26459,-0.264583 z m 1.05834,0 a 0.26458333,0.26458333 0 0 0 -0.26459,0.264583 0.26458333,0.26458333 0 0 0 0.26459,0.264584 0.26458333,0.26458333 0 0 0 0.26458,-0.264584 0.26458333,0.26458333 0 0 0 -0.0904,-0.199471 c -0.003,-0.0027 -0.007,-0.0051 -0.01,-0.0078 a 0.26458333,0.26458333 0 0 0 -0.16433,-0.05736 z m -9.552394,0.0067 a 0.26458333,0.26458333 0 0 0 -0.126607,0.05271 0.26458333,0.26458333 0 0 0 -0.02584,0.02325 0.26458333,0.26458333 0 0 0 -0.02274,0.02584 0.26458333,0.26458333 0 0 0 -0.03462,0.05994 0.26458333,0.26458333 0 0 0 -0.02015,0.101286 0.26458333,0.26458333 0 0 0 0,0.0078 l -5.17e-4,-0.0041 a 0.26458333,0.26458333 0 0 0 0.0031,0.03772 l -5.17e-4,-0.0083 a 0.26458333,0.26458333 0 0 0 0.03359,0.09922 0.26458333,0.26458333 0 0 0 0.01912,0.02894 0.26458333,0.26458333 0 0 0 0.04858,0.04909 0.26458333,0.26458333 0 0 0 0.02894,0.01912 0.26458333,0.26458333 0 0 0 0.06356,0.02584 0.26458333,0.26458333 0 0 0 0.03411,0.0098 0.26458333,0.26458333 0 0 0 0.03462,0 0.26458333,0.26458333 0 0 0 0.03462,0 0.26458333,0.26458333 0 0 0 0.22996,-0.262516 0.26458333,0.26458333 0 0 0 -0.264583,-0.264584 v -10e-4 a 0.26458333,0.26458333 0 0 0 -0.03462,0 z m 1.092952,0 a 0.26458333,0.26458333 0 0 0 -0.10128,0.01964 0.26458333,0.26458333 0 0 0 -0.031,0.01499 0.26458333,0.26458333 0 0 0 -0.0289,0.01912 0.26458333,0.26458333 0 0 0 -0.0264,0.02326 0.26458333,0.26458333 0 0 0 -0.0574,0.08578 0.26458333,0.26458333 0 0 0 -0.0181,0.06718 0.26458333,0.26458333 0 0 0 -0.003,0.03462 0.26458333,0.26458333 0 0 0 0.0202,0.101286 0.26458333,0.26458333 0 0 0 0.0832,0.108521 0.26458333,0.26458333 0 0 0 0.0248,0.01705 c 0.15249,-0.121355 0.28565,-0.224346 0.38912,-0.300757 a 0.26458333,0.26458333 0 0 0 -0.25322,-0.187069 z m 9.301252,0.09974 a 0.26458333,0.26458333 0 0 0 -0.0486,0.152963 0.26458333,0.26458333 0 0 0 0.002,0.03566 0.26458333,0.26458333 0 0 0 0.26303,0.234095 0.26458333,0.26458333 0 0 0 0.15348,-0.04909 c -0.10699,-0.11734 -0.2195,-0.23105 -0.33693,-0.342098 -0.0111,-0.01051 -0.022,-0.0211 -0.0331,-0.03152 z m -11.153847,0.165365 c -0.09254,0.07675 -0.195778,0.162992 -0.313676,0.261483 a 0.26458333,0.26458333 0 0 0 0.04909,0.0047 0.26458333,0.26458333 0 0 0 0.262517,-0.232027 0.26458333,0.26458333 0 0 0 0.0026,-0.03411 z m 10.840687,0.252181 a 0.26458333,0.26458333 0 0 0 -0.26459,0.264583 0.26458333,0.26458333 0 0 0 0,0.0021 0.26458333,0.26458333 0 0 0 0,10e-4 0.26458333,0.26458333 0 0 0 10e-4,0.01395 0.26458333,0.26458333 0 0 0 0.001,0.0186 0.26458333,0.26458333 0 0 0 0.26303,0.234094 0.26458333,0.26458333 0 0 0 0.16744,-0.06046 0.26458333,0.26458333 0 0 0 0.002,-0.0016 0.26458333,0.26458333 0 0 0 0.0956,-0.202572 0.26458333,0.26458333 0 0 0 -5.2e-4,-0.0052 0.26458333,0.26458333 0 0 0 -0.26458,-0.264583 z m -1.02371,0.0057 c 0.0717,0.05975 0.14729,0.125728 0.22427,0.195854 a 0.26458333,0.26458333 0 0 0 -0.22427,-0.195854 z m -9.551877,0.0062 a 0.26458333,0.26458333 0 0 0 -0.263033,0.240295 0.26458333,0.26458333 0 0 0 -0.0021,0.02636 0.26458333,0.26458333 0 0 0 0.264583,0.264583 0.26458333,0.26458333 0 0 0 0.244946,-0.165364 0.26458333,0.26458333 0 0 0 0.01085,-0.03101 0.26458333,0.26458333 0 0 0 5.17e-4,-0.0016 0.26458333,0.26458333 0 0 0 0.0098,-0.06821 c -3.48e-4,9.5e-5 -6.86e-4,4.21e-4 -0.001,5.16e-4 a 0.26458333,0.26458333 0 0 0 0,-0.001 0.26458333,0.26458333 0 0 0 -0.0026,-0.03359 0.26458333,0.26458333 0 0 0 0,-10e-4 0.26458333,0.26458333 0 0 0 -0.261999,-0.22996 z m 1.058335,0 a 0.26458333,0.26458333 0 0 0 -0.06873,0.0098 0.26458333,0.26458333 0 0 0 -0.0925,0.04599 0.26458333,0.26458333 0 0 0 -0.04858,0.04909 0.26458333,0.26458333 0 0 0 -0.02584,0.04031 0.26458333,0.26458333 0 0 0 -0.0016,0.0041 0.26458333,0.26458333 0 0 0 -0.0186,0.04754 0.26458333,0.26458333 0 0 0 -0.0093,0.06873 0.26458333,0.26458333 0 0 0 0.0031,0.03514 0.26458333,0.26458333 0 0 0 0.0072,0.03411 0.26458333,0.26458333 0 0 0 0.04599,0.09302 0.26458333,0.26458333 0 0 0 0.01137,0.01395 c 0.142906,-0.118366 0.28161,-0.231991 0.41083,-0.336413 a 0.26458333,0.26458333 0 0 0 -0.0434,-0.04599 c -0.002,3.95e-4 -0.003,6.38e-4 -0.005,10e-4 a 0.26458333,0.26458333 0 0 0 -0.16434,-0.05684 z m 10.349752,0.114205 a 0.26458333,0.26458333 0 0 0 -0.0388,0.138492 0.26458333,0.26458333 0 0 0 0.002,0.03566 0.26458333,0.26458333 0 0 0 0.26304,0.234094 0.26458333,0.26458333 0 0 0 0.0811,-0.01292 c -0.0972,-0.136165 -0.19956,-0.267879 -0.30748,-0.395324 z m -12.213723,0.07286 -5.16e-4,5.17e-4 c -0.05328,0.04461 -0.108973,0.09105 -0.167432,0.140043 -0.05044,0.04227 -0.122839,0.102172 -0.208773,0.172599 a 0.26458333,0.26458333 0 0 0 0.123507,0.03101 0.26458333,0.26458333 0 0 0 0.262516,-0.232544 0.26458333,0.26458333 0 0 0 0.0026,-0.03411 0.26458333,0.26458333 0 0 0 -0.0016,-0.02481 0.26458333,0.26458333 0 0 0 0,-0.0016 0.26458333,0.26458333 0 0 0 -0.01034,-0.05116 z m 11.910383,0.330213 a 0.26458333,0.26458333 0 0 0 -0.26458,0.264583 0.26458333,0.26458333 0 0 0 0,0.0041 0.26458333,0.26458333 0 0 0 0,0.0026 0.26458333,0.26458333 0 0 0 0.002,0.01499 0.26458333,0.26458333 0 0 0 10e-4,0.0155 0.26458333,0.26458333 0 0 0 0.0109,0.04806 0.26458333,0.26458333 0 0 0 0.0429,0.08372 0.26458333,0.26458333 0 0 0 0.0227,0.02584 0.26458333,0.26458333 0 0 0 0.0548,0.04186 0.26458333,0.26458333 0 0 0 0.031,0.01499 0.26458333,0.26458333 0 0 0 0.0326,0.01137 0.26458333,0.26458333 0 0 0 0.0341,0.0098 0.26458333,0.26458333 0 0 0 0.0346,0 0.26458333,0.26458333 0 0 0 0.0351,0 0.26458333,0.26458333 0 0 0 0.0682,-0.01912 0.26458333,0.26458333 0 0 0 0.032,-0.01602 0.26458333,0.26458333 0 0 0 0.0284,-0.01964 0.26458333,0.26458333 0 0 0 0.0269,-0.02429 c -9.3e-4,-0.0012 -0.002,-0.0024 -0.003,-0.0036 a 0.26458333,0.26458333 0 0 0 0.076,-0.185001 0.26458333,0.26458333 0 0 0 -5.1e-4,-0.0052 0.26458333,0.26458333 0 0 0 -0.26459,-0.264583 z m -10.576614,0.0093 v 5.17e-4 a 0.26458333,0.26458333 0 0 0 -0.02739,0.0021 0.26458333,0.26458333 0 0 0 -0.0062,0 0.26458333,0.26458333 0 0 0 -0.06666,0.01757 0.26458333,0.26458333 0 0 0 -0.08578,0.05736 0.26458333,0.26458333 0 0 0 -0.07545,0.152446 0.26458333,0.26458333 0 0 0 -0.0031,0.03514 0.26458333,0.26458333 0 0 0 0.0047,0.04599 0.26458333,0.26458333 0 0 0 0.02584,0.0801 c 0.131932,-0.112315 0.266129,-0.22531 0.397908,-0.33538 a 0.26458333,0.26458333 0 0 0 -0.02945,-0.01964 0.26458333,0.26458333 0 0 0 -0.03101,-0.01499 0.26458333,0.26458333 0 0 0 -5.17e-4,-5.17e-4 0.26458333,0.26458333 0 0 0 -0.102836,-0.02067 z m -1.0573,0.0026 a 0.26458333,0.26458333 0 0 0 -0.263033,0.240296 0.26458333,0.26458333 0 0 0 -0.0021,0.02636 0.26458333,0.26458333 0 0 0 0.264583,0.264583 0.26458333,0.26458333 0 0 0 0.06976,-0.0098 0.26458333,0.26458333 0 0 0 0.03152,-0.01034 0.26458333,0.26458333 0 0 0 0.001,-5.17e-4 0.26458333,0.26458333 0 0 0 0.05891,-0.03411 0.26458333,0.26458333 0 0 0 10e-4,-5.17e-4 0.26458333,0.26458333 0 0 0 0.04806,-0.04806 0.26458333,0.26458333 0 0 0 0.001,-10e-4 0.26458333,0.26458333 0 0 0 0.05478,-0.160714 0.26458333,0.26458333 0 0 0 -0.02119,-0.102836 0.26458333,0.26458333 0 0 0 -5.17e-4,-0.0016 0.26458333,0.26458333 0 0 0 -0.01499,-0.02946 0.26458333,0.26458333 0 0 0 -10e-4,-0.0021 0.26458333,0.26458333 0 0 0 -0.0057,-0.0083 0.26458333,0.26458333 0 0 0 -0.222209,-0.121957 z m 10.659814,10e-4 c 0.0576,0.05812 0.11478,0.117206 0.17002,0.1757 a 0.26458333,0.26458333 0 0 0 -0.0315,-0.06666 0.26458333,0.26458333 0 0 0 -0.1385,-0.109037 z m -11.496455,0.119372 c -0.130124,0.105913 -0.273959,0.222657 -0.410828,0.332797 a 0.26458333,0.26458333 0 0 0 0.0026,0.0031 0.26458333,0.26458333 0 0 0 0.05478,0.04186 0.26458333,0.26458333 0 0 0 0.03101,0.01499 0.26458333,0.26458333 0 0 0 0.03256,0.01137 0.26458333,0.26458333 0 0 0 0.03411,0.0098 0.26458333,0.26458333 0 0 0 0.03462,0 0.26458333,0.26458333 0 0 0 0.03514,0 0.26458333,0.26458333 0 0 0 0.06821,-0.01912 0.26458333,0.26458333 0 0 0 0.03204,-0.01602 0.26458333,0.26458333 0 0 0 0.02894,-0.01964 0.26458333,0.26458333 0 0 0 0.02635,-0.02429 c -9.27e-4,-0.0012 -0.0017,-0.0024 -0.0026,-0.0036 a 0.26458333,0.26458333 0 0 0 0.07545,-0.185001 0.26458333,0.26458333 0 0 0 0,-0.0031 0.26458333,0.26458333 0 0 0 -5.16e-4,-0.0088 0.26458333,0.26458333 0 0 0 -0.0016,-0.02119 0.26458333,0.26458333 0 0 0 -0.0046,-0.02791 0.26458333,0.26458333 0 0 0 -5.17e-4,-0.0021 0.26458333,0.26458333 0 0 0 -0.03514,-0.0832 z m 13.263275,0.130225 a 0.26458333,0.26458333 0 0 0 0.004,0.04082 0.26458333,0.26458333 0 0 0 0.0196,0.07338 0.26458333,0.26458333 0 0 0 0.12661,0.133842 c -0.0484,-0.08444 -0.0988,-0.166986 -0.15038,-0.248047 z m -0.26355,0.266134 v 5.16e-4 a 0.26458333,0.26458333 0 0 0 -0.16123,0.05478 0.26458333,0.26458333 0 0 0 -0.0677,0.077 0.26458333,0.26458333 0 0 0 -0.0155,0.03101 0.26458333,0.26458333 0 0 0 -0.0181,0.06718 0.26458333,0.26458333 0 0 0 -0.003,0.03462 0.26458333,0.26458333 0 0 0 0.003,0.03514 0.26458333,0.26458333 0 0 0 5.2e-4,0.0016 0.26458333,0.26458333 0 0 0 0.008,0.04082 0.26458333,0.26458333 0 0 0 0,5.17e-4 0.26458333,0.26458333 0 0 0 0.01,0.02842 0.26458333,0.26458333 0 0 0 0.24546,0.167432 0.26458333,0.26458333 0 0 0 0.26458,-0.264584 0.26458333,0.26458333 0 0 0 -0.004,-0.04186 0.26458333,0.26458333 0 0 0 -0.26252,-0.232544 z m -1.02681,0.0021 c 0.0935,0.111083 0.17361,0.214473 0.23306,0.302307 a 0.26458333,0.26458333 0 0 0 0.002,-0.02894 0.26458333,0.26458333 0 0 0 -0.004,-0.04082 0.26458333,0.26458333 0 0 0 -5.1e-4,-0.0031 0.26458333,0.26458333 0 0 0 0,-0.0015 0.26458333,0.26458333 0 0 0 -0.005,-0.02222 0.26458333,0.26458333 0 0 0 -0.001,-0.0057 0.26458333,0.26458333 0 0 0 -0.22479,-0.199987 z m -10.607107,0.0098 v 5.17e-4 a 0.26458333,0.26458333 0 0 0 -0.161231,0.05478 0.26458333,0.26458333 0 0 0 -0.0677,0.077 0.26458333,0.26458333 0 0 0 -0.01602,0.03101 0.26458333,0.26458333 0 0 0 -0.01757,0.06718 0.26458333,0.26458333 0 0 0 -0.0031,0.03514 0.26458333,0.26458333 0 0 0 0.0031,0.03462 0.26458333,0.26458333 0 0 0 0,0.0016 0.26458333,0.26458333 0 0 0 0.0067,0.03256 0.26458333,0.26458333 0 0 0 0,5.16e-4 c 0.114005,-0.100248 0.235245,-0.205084 0.359151,-0.311608 4.73e-4,-4.08e-4 0.0011,-0.0011 0.0015,-0.0016 a 0.26458333,0.26458333 0 0 0 -0.104903,-0.0217 z m -1.058333,5.17e-4 a 0.26458333,0.26458333 0 0 0 -0.263033,0.240295 0.26458333,0.26458333 0 0 0 -0.0021,0.02635 0.26458333,0.26458333 0 0 0 0.03566,0.132292 0.26458333,0.26458333 0 0 0 0.01344,0.02067 0.26458333,0.26458333 0 0 0 0.0062,0.0088 0.26458333,0.26458333 0 0 0 0.001,0.0016 0.26458333,0.26458333 0 0 0 0.02119,0.02377 0.26458333,0.26458333 0 0 0 0.08733,0.05943 0.26458333,0.26458333 0 0 0 0.06666,0.01809 0.26458333,0.26458333 0 0 0 0.03307,0 0.26458333,0.26458333 0 0 0 0.0015,0 0.26458333,0.26458333 0 0 0 0.0016,0 0.26458333,0.26458333 0 0 0 0.03772,0 c -4.22e-4,-8.93e-4 -0.0011,-0.0022 -0.0015,-0.0031 a 0.26458333,0.26458333 0 0 0 0.03359,-0.0072 0.26458333,0.26458333 0 0 0 0.03256,-0.01137 0.26458333,0.26458333 0 0 0 0.03049,-0.0155 0.26458333,0.26458333 0 0 0 0.02842,-0.01912 0.26458333,0.26458333 0 0 0 0.02481,-0.02274 0.26458333,0.26458333 0 0 0 5.16e-4,0 0.26458333,0.26458333 0 0 0 0.07648,-0.185519 0.26458333,0.26458333 0 0 0 -0.01033,-0.0708 0.26458333,0.26458333 0 0 0 -0.02532,-0.0615 0.26458333,0.26458333 0 0 0 -10e-4,-0.0021 0.26458333,0.26458333 0 0 0 -0.228926,-0.132292 z m -0.890385,0.06253 c -0.152293,0.122626 -0.293648,0.238437 -0.401526,0.328663 a 0.26458333,0.26458333 0 0 0 0.0057,0.01034 0.26458333,0.26458333 0 0 0 0.0083,0.0124 0.26458333,0.26458333 0 0 0 0.0067,0.01034 0.26458333,0.26458333 0 0 0 0.02687,0.03204 0.26458333,0.26458333 0 0 0 0.05478,0.04186 0.26458333,0.26458333 0 0 0 0.06356,0.02636 0.26458333,0.26458333 0 0 0 0.03411,0.0098 0.26458333,0.26458333 0 0 0 0.03462,0 0.26458333,0.26458333 0 0 0 0.03462,0 0.26458333,0.26458333 0 0 0 0.22996,-0.262516 0.26458333,0.26458333 0 0 0 -0.0036,-0.04186 0.26458333,0.26458333 0 0 0 -0.05116,-0.125057 l -0.001,10e-4 a 0.26458333,0.26458333 0 0 0 -0.04186,-0.04341 z m 14.112835,0.45372 -10e-4,0.001 a 0.26458333,0.26458333 0 0 0 -0.10129,0.01964 0.26458333,0.26458333 0 0 0 -0.031,0.01499 0.26458333,0.26458333 0 0 0 -0.0289,0.01912 0.26458333,0.26458333 0 0 0 -0.0258,0.02325 0.26458333,0.26458333 0 0 0 -0.0574,0.08578 0.26458333,0.26458333 0 0 0 -0.0202,0.101286 0.26458333,0.26458333 0 0 0 5.2e-4,0.0062 0.26458333,0.26458333 0 0 0 0.0202,0.100769 0.26458333,0.26458333 0 0 0 0.24547,0.167431 0.26458333,0.26458333 0 0 0 0.26458,-0.264583 0.26458333,0.26458333 0 0 0 -5.2e-4,-0.01034 0.26458333,0.26458333 0 0 0 -0.001,-0.02067 0.26458333,0.26458333 0 0 0 0,-0.0015 0.26458333,0.26458333 0 0 0 -0.003,-0.0217 c -0.0162,-0.03865 -0.0324,-0.07675 -0.0491,-0.114722 a 0.26458333,0.26458333 0 0 0 -0.21187,-0.105936 z m -1.05937,0.001 a 0.26458333,0.26458333 0 0 0 -0.10955,0.02377 c 0.0875,0.150245 0.17082,0.309634 0.24856,0.476457 a 0.26458333,0.26458333 0 0 0 0.12506,-0.194303 0.26458333,0.26458333 0 0 0 0.002,-0.03204 0.26458333,0.26458333 0 0 0 0,-0.0021 0.26458333,0.26458333 0 0 0 -5.2e-4,-0.0088 0.26458333,0.26458333 0 0 0 -0.002,-0.02584 0.26458333,0.26458333 0 0 0 -0.001,-0.0047 0.26458333,0.26458333 0 0 0 -0.005,-0.02687 0.26458333,0.26458333 0 0 0 0,-5.17e-4 0.26458333,0.26458333 0 0 0 -5.1e-4,-0.0016 0.26458333,0.26458333 0 0 0 -0.25684,-0.203605 z m -12.692247,0.01189 a 0.26458333,0.26458333 0 0 0 -0.263033,0.240295 0.26458333,0.26458333 0 0 0 -0.0021,0.02635 0.26458333,0.26458333 0 0 0 0.02015,0.101286 0.26458333,0.26458333 0 0 0 10e-4,0.0021 0.26458333,0.26458333 0 0 0 0.01447,0.02894 0.26458333,0.26458333 0 0 0 0.001,0.0021 0.26458333,0.26458333 0 0 0 0.01809,0.02687 0.26458333,0.26458333 0 0 0 0.21084,0.10542 0.26458333,0.26458333 0 0 0 0.262516,-0.232027 0.26458333,0.26458333 0 0 0 0.0026,-0.03462 0.26458333,0.26458333 0 0 0 -0.01034,-0.0708 0.26458333,0.26458333 0 0 0 -0.02532,-0.0615 0.26458333,0.26458333 0 0 0 -10e-4,-0.0021 0.26458333,0.26458333 0 0 0 -0.228926,-0.132291 z m 1.058333,0 a 0.26458333,0.26458333 0 0 0 -0.263033,0.240295 0.26458333,0.26458333 0 0 0 -0.0021,0.02635 0.26458333,0.26458333 0 0 0 0.0015,0.02429 c 0.02884,-0.02672 0.05868,-0.05474 0.0894,-0.0832 0.06812,-0.06311 0.142915,-0.131015 0.223242,-0.203088 a 0.26458333,0.26458333 0 0 0 -0.04909,-0.0047 z m -2.009696,0.0248 c -0.0063,0.0061 -0.0109,0.0109 -0.01344,0.01395 -0.06182,0.07449 -0.08515,0.29105 -0.06615,0.49351 a 0.26458333,0.26458333 0 0 0 0.237712,-0.263033 0.26458333,0.26458333 0 0 0 -0.0088,-0.06718 0.26458333,0.26458333 0 0 0 0,-5.16e-4 0.26458333,0.26458333 0 0 0 -5.17e-4,-5.17e-4 0.26458333,0.26458333 0 0 0 -0.0047,-0.01499 0.26458333,0.26458333 0 0 0 -0.0052,-0.0155 0.26458333,0.26458333 0 0 0 -5.16e-4,-10e-4 0.26458333,0.26458333 0 0 0 -0.03152,-0.05839 v -0.0026 c -3.88e-4,3.9e-4 -0.0012,6.46e-4 -0.0016,10e-4 a 0.26458333,0.26458333 0 0 0 -0.10542,-0.08475 z m 14.13816,0.492477 a 0.26458333,0.26458333 0 0 0 -0.0341,0.0098 0.26458333,0.26458333 0 0 0 -0.0326,0.01085 0.26458333,0.26458333 0 0 0 -0.12764,0.112138 0.26458333,0.26458333 0 0 0 -0.0155,0.03101 0.26458333,0.26458333 0 0 0 -0.0114,0.03307 0.26458333,0.26458333 0 0 0 -0.007,0.03411 0.26458333,0.26458333 0 0 0 -0.003,0.02532 c 8.5e-4,0.0021 0.002,0.0046 0.003,0.0067 0.0269,0.06555 0.0529,0.131976 0.078,0.198954 a 0.26458333,0.26458333 0 0 0 0.18603,0.07648 0.26458333,0.26458333 0 0 0 0.25063,-0.180867 0.26458333,0.26458333 0 0 0 0,-10e-4 0.26458333,0.26458333 0 0 0 0.009,-0.03411 v -5.17e-4 a 0.26458333,0.26458333 0 0 0 0.005,-0.04806 0.26458333,0.26458333 0 0 0 -0.0108,-0.07441 0.26458333,0.26458333 0 0 0 -0.003,-0.0078 0.26458333,0.26458333 0 0 0 -0.005,-0.01602 0.26458333,0.26458333 0 0 0 -5.2e-4,-10e-4 0.26458333,0.26458333 0 0 0 -0.003,-0.0078 0.26458333,0.26458333 0 0 0 -0.008,-0.0155 0.26458333,0.26458333 0 0 0 -0.004,-0.0083 0.26458333,0.26458333 0 0 0 -5.1e-4,-5.16e-4 0.26458333,0.26458333 0 0 0 -5.2e-4,-10e-4 0.26458333,0.26458333 0 0 0 -0.002,-0.0041 0.26458333,0.26458333 0 0 0 -0.22996,-0.133842 l 5.2e-4,-0.0036 a 0.26458333,0.26458333 0 0 0 -0.0346,0 z m -13.715964,0.01188 a 0.26458333,0.26458333 0 0 0 -0.263033,0.240296 0.26458333,0.26458333 0 0 0 -0.0021,0.02635 0.26458333,0.26458333 0 0 0 0.02015,0.101285 0.26458333,0.26458333 0 0 0 10e-4,0.0021 0.26458333,0.26458333 0 0 0 0.01447,0.02894 0.26458333,0.26458333 0 0 0 0.001,0.0021 0.26458333,0.26458333 0 0 0 0.01809,0.02687 0.26458333,0.26458333 0 0 0 0.21084,0.10542 0.26458333,0.26458333 0 0 0 0.262516,-0.232027 0.26458333,0.26458333 0 0 0 0.0026,-0.03462 0.26458333,0.26458333 0 0 0 -0.01033,-0.0708 0.26458333,0.26458333 0 0 0 -0.02532,-0.0615 0.26458333,0.26458333 0 0 0 -10e-4,-0.0021 0.26458333,0.26458333 0 0 0 -0.228927,-0.132292 z m 1.058334,0 a 0.26458333,0.26458333 0 0 0 -0.259416,0.21239 0.26458333,0.26458333 0 0 0 -0.0047,0.03617 c 0.07632,-0.06834 0.165441,-0.15045 0.271818,-0.248564 a 0.26458333,0.26458333 0 0 0 -0.0078,0 z m 13.61829,0.02119 a 0.26458333,0.26458333 0 0 0 -0.0548,0.04186 0.26458333,0.26458333 0 0 0 -0.0227,0.02584 0.26458333,0.26458333 0 0 0 -0.046,0.09198 0.26458333,0.26458333 0 0 0 -0.007,0.03411 0.26458333,0.26458333 0 0 0 -0.003,0.03514 0.26458333,0.26458333 0 0 0 0.003,0.03514 0.26458333,0.26458333 0 0 0 10e-4,0.0041 0.26458333,0.26458333 0 0 0 0.0181,0.06976 0.26458333,0.26458333 0 0 0 0.24546,0.167432 0.26458333,0.26458333 0 0 0 0.0346,-0.0021 c -0.053,-0.173813 -0.10889,-0.341395 -0.16847,-0.503328 z m -0.39687,0.496093 a 0.26458333,0.26458333 0 0 0 -0.0687,0.0098 0.26458333,0.26458333 0 0 0 -0.0636,0.02687 0.26458333,0.26458333 0 0 0 -0.0548,0.04237 0.26458333,0.26458333 0 0 0 -0.0574,0.08578 0.26458333,0.26458333 0 0 0 -0.0181,0.06718 0.26458333,0.26458333 0 0 0 -0.003,0.03462 0.26458333,0.26458333 0 0 0 0.003,0.03514 0.26458333,0.26458333 0 0 0 0.008,0.03824 0.26458333,0.26458333 0 0 0 0,0.001 0.26458333,0.26458333 0 0 0 0,5.17e-4 0.26458333,0.26458333 0 0 0 5.2e-4,0.001 0.26458333,0.26458333 0 0 0 0,5.17e-4 0.26458333,0.26458333 0 0 0 0.004,0.0098 0.26458333,0.26458333 0 0 0 0.25167,0.185519 0.26458333,0.26458333 0 0 0 0.26458,-0.264584 0.26458333,0.26458333 0 0 0 -0.0103,-0.07286 0.26458333,0.26458333 0 0 0 -5.2e-4,-10e-4 0.26458333,0.26458333 0 0 0 -0.003,-0.0072 0.26458333,0.26458333 0 0 0 -0.007,-0.02015 0.26458333,0.26458333 0 0 0 -10e-4,-0.0041 0.26458333,0.26458333 0 0 0 -5.1e-4,-0.0016 0.26458333,0.26458333 0 0 0 -0.0341,-0.05839 0.26458333,0.26458333 0 0 0 -5.2e-4,-10e-4 0.26458333,0.26458333 0 0 0 -0.2098,-0.103869 z m -0.5178,0.528134 c 0.0473,0.167151 0.0886,0.335791 0.12351,0.503845 a 0.26458333,0.26458333 0 0 0 0.13125,-0.228927 0.26458333,0.26458333 0 0 0 0,-0.0021 0.26458333,0.26458333 0 0 0 -5.1e-4,-0.0088 0.26458333,0.26458333 0 0 0 -0.002,-0.0279 0.26458333,0.26458333 0 0 0 -0.007,-0.03359 0.26458333,0.26458333 0 0 0 0,-5.17e-4 0.26458333,0.26458333 0 0 0 -5.2e-4,-0.0015 0.26458333,0.26458333 0 0 0 -5.2e-4,-10e-4 0.26458333,0.26458333 0 0 0 -5.2e-4,-0.001 0.26458333,0.26458333 0 0 0 0,-5.17e-4 0.26458333,0.26458333 0 0 0 -0.24339,-0.19792 z m 1.04696,10e-4 a 0.26458333,0.26458333 0 0 0 -0.26458,0.264583 0.26458333,0.26458333 0 0 0 0.003,0.03617 0.26458333,0.26458333 0 0 0 0.0181,0.07028 0.26458333,0.26458333 0 0 0 0.24546,0.167431 0.26458333,0.26458333 0 0 0 0.25684,-0.199471 c -0.0162,-0.08123 -0.0337,-0.161905 -0.0527,-0.241328 a 0.26458333,0.26458333 0 0 0 -0.20568,-0.09767 z m -0.52813,0.528133 -10e-4,0.001 a 0.26458333,0.26458333 0 0 0 -0.0687,0.0098 0.26458333,0.26458333 0 0 0 -0.0326,0.01085 0.26458333,0.26458333 0 0 0 -0.0599,0.03514 0.26458333,0.26458333 0 0 0 -0.0486,0.04806 0.26458333,0.26458333 0 0 0 -0.0191,0.02894 0.26458333,0.26458333 0 0 0 -0.0269,0.06305 0.26458333,0.26458333 0 0 0 -0.009,0.06925 0.26458333,0.26458333 0 0 0 0.003,0.03462 0.26458333,0.26458333 0 0 0 0,5.17e-4 0.26458333,0.26458333 0 0 0 0.008,0.04237 0.26458333,0.26458333 0 0 0 0.004,0.01085 0.26458333,0.26458333 0 0 0 0.25167,0.185001 0.26458333,0.26458333 0 0 0 0.26458,-0.264583 0.26458333,0.26458333 0 0 0 -5.2e-4,-0.01033 0.26458333,0.26458333 0 0 0 -0.26458,-0.264584 z m 0.84026,0.114205 a 0.26458333,0.26458333 0 0 0 -0.0475,0.151412 0.26458333,0.26458333 0 0 0 0.003,0.03411 0.26458333,0.26458333 0 0 0 0.016,0.06718 0.26458333,0.26458333 0 0 0 0.0755,0.109037 c -0.0129,-0.121878 -0.0281,-0.242541 -0.0465,-0.361735 z m -0.31213,0.415995 a 0.26458333,0.26458333 0 0 0 -0.10128,0.01964 0.26458333,0.26458333 0 0 0 -0.06,0.03514 0.26458333,0.26458333 0 0 0 -0.0486,0.04909 0.26458333,0.26458333 0 0 0 -0.0191,0.02894 0.26458333,0.26458333 0 0 0 -0.0155,0.03101 0.26458333,0.26458333 0 0 0 -0.0114,0.03307 0.26458333,0.26458333 0 0 0 -0.009,0.06873 0.26458333,0.26458333 0 0 0 0.003,0.03669 0.26458333,0.26458333 0 0 0 0,0.0021 0.26458333,0.26458333 0 0 0 0.006,0.02945 0.26458333,0.26458333 0 0 0 0.0119,0.03721 0.26458333,0.26458333 0 0 0 0.24546,0.167432 0.26458333,0.26458333 0 0 0 0.26459,-0.264584 0.26458333,0.26458333 0 0 0 -0.004,-0.04341 0.26458333,0.26458333 0 0 0 -0.26252,-0.22996 z m -0.81493,0.164848 c 0.006,0.05832 0.0103,0.116713 0.0145,0.175183 a 0.26458333,0.26458333 0 0 0 0.008,-0.06615 0.26458333,0.26458333 0 0 0 -0.0108,-0.07493 0.26458333,0.26458333 0 0 0 -0.0119,-0.03411 z m 0.28577,0.364319 a 0.26458333,0.26458333 0 0 0 -0.25425,0.190169 c 0.001,0.05235 0.002,0.104757 0.002,0.157097 v 5.16e-4 a 0.26458333,0.26458333 0 0 0 0.003,0.0067 0.26458333,0.26458333 0 0 0 0.25115,0.183968 0.26458333,0.26458333 0 0 0 0.26458,-0.264583 0.26458333,0.26458333 0 0 0 -0.004,-0.04393 0.26458333,0.26458333 0 0 0 -0.005,-0.02481 0.26458333,0.26458333 0 0 0 0,-5.16e-4 0.26458333,0.26458333 0 0 0 -0.25735,-0.204639 z m 0.92966,0.03307 a 0.26458333,0.26458333 0 0 0 -0.13591,0.23151 0.26458333,0.26458333 0 0 0 0.003,0.03669 0.26458333,0.26458333 0 0 0 0.008,0.03927 0.26458333,0.26458333 0 0 0 0.12713,0.164331 c 0.004,-0.157843 0.003,-0.315559 -0.002,-0.471806 z m -0.4005,0.496094 a 0.26458333,0.26458333 0 0 0 -0.26458,0.264583 0.26458333,0.26458333 0 0 0 0.003,0.03617 0.26458333,0.26458333 0 0 0 0.0181,0.07028 0.26458333,0.26458333 0 0 0 0.24546,0.167432 0.26458333,0.26458333 0 0 0 0.26459,-0.264583 0.26458333,0.26458333 0 0 0 -0.004,-0.04393 0.26458333,0.26458333 0 0 0 -0.005,-0.02481 0.26458333,0.26458333 0 0 0 -5.1e-4,-0.0015 0.26458333,0.26458333 0 0 0 -0.25684,-0.203605 z m -0.79323,0.247013 c -0.002,0.02843 -0.003,0.05687 -0.005,0.08527 a 0.26458333,0.26458333 0 0 0 0.006,-0.05839 0.26458333,0.26458333 0 0 0 -10e-4,-0.02687 z m 0.26407,0.282153 a 0.26458333,0.26458333 0 0 0 -0.26459,0.264584 0.26458333,0.26458333 0 0 0 0,5.16e-4 0.26458333,0.26458333 0 0 0 -5.1e-4,0.0062 0.26458333,0.26458333 0 0 0 0.0202,0.101285 0.26458333,0.26458333 0 0 0 0.0155,0.03101 0.26458333,0.26458333 0 0 0 0.0191,0.02894 0.26458333,0.26458333 0 0 0 0.0227,0.02635 0.26458333,0.26458333 0 0 0 10e-4,10e-4 0.26458333,0.26458333 0 0 0 0.0155,0.01344 0.26458333,0.26458333 0 0 0 0.0103,0.0088 0.26458333,0.26458333 0 0 0 0.16227,0.05633 0.26458333,0.26458333 0 0 0 0.26458,-0.264584 0.26458333,0.26458333 0 0 0 -0.004,-0.04392 0.26458333,0.26458333 0 0 0 -0.005,-0.02481 0.26458333,0.26458333 0 0 0 -5.2e-4,-0.0015 0.26458333,0.26458333 0 0 0 -0.25683,-0.203606 z m 0.89658,0.05529 a 0.26458333,0.26458333 0 0 0 -0.10283,0.20929 0.26458333,0.26458333 0 0 0 0.004,0.04393 0.26458333,0.26458333 0 0 0 0.005,0.02222 0.26458333,0.26458333 0 0 0 0.001,0.0067 0.26458333,0.26458333 0 0 0 0.0501,0.101803 c 0.0169,-0.127646 0.0313,-0.255683 0.0429,-0.383956 z m -0.36742,0.473356 a 0.26458333,0.26458333 0 0 0 -0.26458,0.264584 0.26458333,0.26458333 0 0 0 0.003,0.03669 0.26458333,0.26458333 0 0 0 0.0181,0.06925 0.26458333,0.26458333 0 0 0 10e-4,0.0021 0.26458333,0.26458333 0 0 0 0.0331,0.05736 0.26458333,0.26458333 0 0 0 0.002,0.0026 0.26458333,0.26458333 0 0 0 0.0486,0.04858 0.26458333,0.26458333 0 0 0 0.0289,0.01912 0.26458333,0.26458333 0 0 0 0.031,0.01499 0.26458333,0.26458333 0 0 0 0.10128,0.02015 0.26458333,0.26458333 0 0 0 0.0346,0 0.26458333,0.26458333 0 0 0 0.22066,-0.19327 c 0.003,-0.01511 0.006,-0.03034 0.008,-0.04547 a 0.26458333,0.26458333 0 0 0 0.001,-0.02377 0.26458333,0.26458333 0 0 0 -0.0191,-0.09819 0.26458333,0.26458333 0 0 0 -0.0129,-0.02791 0.26458333,0.26458333 0 0 0 -5.2e-4,-0.0015 0.26458333,0.26458333 0 0 0 -0.0599,-0.07545 0.26458333,0.26458333 0 0 0 -0.0522,-0.03514 0.26458333,0.26458333 0 0 0 -0.0584,-0.02222 0.26458333,0.26458333 0 0 0 -0.031,-0.0057 0.26458333,0.26458333 0 0 0 -0.032,-0.0021 z m -0.89038,0.05684 c -0.0271,0.159829 -0.0588,0.317811 -0.0956,0.473873 a 0.26458333,0.26458333 0 0 0 0.19533,-0.255281 0.26458333,0.26458333 0 0 0 -0.005,-0.04754 0.26458333,0.26458333 0 0 0 -0.004,-0.02015 0.26458333,0.26458333 0 0 0 -5.2e-4,-0.001 0.26458333,0.26458333 0 0 0 -0.0904,-0.149862 z m 0.36173,0.477491 a 0.26458333,0.26458333 0 0 0 -0.0134,5.16e-4 0.26458333,0.26458333 0 0 0 -0.0202,5.17e-4 0.26458333,0.26458333 0 0 0 -0.0114,0.0031 0.26458333,0.26458333 0 0 0 -0.0651,0.02015 h 0.003 a 0.26458333,0.26458333 0 0 0 -0.0243,0.0124 0.26458333,0.26458333 0 0 0 -0.0966,0.09715 0.26458333,0.26458333 0 0 0 -0.0258,0.06098 c -5e-5,-9.1e-4 5e-5,-0.0022 0,-0.0031 a 0.26458333,0.26458333 0 0 0 -0.0103,0.07131 0.26458333,0.26458333 0 0 0 0.003,0.03514 0.26458333,0.26458333 0 0 0 0.0181,0.06976 0.26458333,0.26458333 0 0 0 0.0346,0.05994 0.26458333,0.26458333 0 0 0 0.0227,0.02636 0.26458333,0.26458333 0 0 0 0.0258,0.02274 0.26458333,0.26458333 0 0 0 0.0289,0.01912 0.26458333,0.26458333 0 0 0 0.0977,0.03411 0.26458333,0.26458333 0 0 0 0.0346,0 0.26458333,0.26458333 0 0 0 0.0346,0 0.26458333,0.26458333 0 0 0 0.22996,-0.262516 0.26458333,0.26458333 0 0 0 -0.14108,-0.233578 h 0.001 a 0.26458333,0.26458333 0 0 0 -0.0109,-0.0052 0.26458333,0.26458333 0 0 0 -0.0191,-0.0083 0.26458333,0.26458333 0 0 0 -0.0103,-0.0031 0.26458333,0.26458333 0 0 0 -0.0527,-0.0124 0.26458333,0.26458333 0 0 0 -0.0315,-0.0021 v -0.0021 a 0.26458333,0.26458333 0 0 0 -10e-4,-5.17e-4 z m -0.52813,0.527616 a 0.26458333,0.26458333 0 0 0 -0.0346,0.0026 0.26458333,0.26458333 0 0 0 -0.006,0.001 0.26458333,0.26458333 0 0 0 -0.0398,0.0088 c -0.0432,0.135041 -0.0904,0.26785 -0.14107,0.397909 a 0.26458333,0.26458333 0 0 0 0.007,0.0093 0.26458333,0.26458333 0 0 0 0.014,0.0186 0.26458333,0.26458333 0 0 0 0.004,0.0041 0.26458333,0.26458333 0 0 0 0.0103,0.01137 0.26458333,0.26458333 0 0 0 0.0548,0.04186 0.26458333,0.26458333 0 0 0 0.0636,0.02635 0.26458333,0.26458333 0 0 0 0.0341,0.0098 0.26458333,0.26458333 0 0 0 0.0346,0 0.26458333,0.26458333 0 0 0 0.26459,-0.264583 0.26458333,0.26458333 0 0 0 -0.0212,-0.10387 0.26458333,0.26458333 0 0 0 -0.0139,-0.02842 0.26458333,0.26458333 0 0 0 -0.002,-0.0026 0.26458333,0.26458333 0 0 0 -0.0176,-0.02635 0.26458333,0.26458333 0 0 0 -5.2e-4,-5.17e-4 0.26458333,0.26458333 0 0 0 -0.001,-0.0015 0.26458333,0.26458333 0 0 0 -0.20981,-0.10387 z m 1.02371,0.0026 a 0.26458333,0.26458333 0 0 0 -0.0341,0.0098 0.26458333,0.26458333 0 0 0 -0.11833,0.06873 0.26458333,0.26458333 0 0 0 -0.0574,0.0863 0.26458333,0.26458333 0 0 0 -0.0114,0.03307 0.26458333,0.26458333 0 0 0 -0.007,0.03411 0.26458333,0.26458333 0 0 0 -0.003,0.03462 0.26458333,0.26458333 0 0 0 0.009,0.06821 0.26458333,0.26458333 0 0 0 0.0269,0.06408 0.26458333,0.26458333 0 0 0 0.12764,0.112138 0.26458333,0.26458333 0 0 0 0.0351,0.01137 c 0.0566,-0.164411 0.1084,-0.332381 0.15503,-0.503329 a 0.26458333,0.26458333 0 0 0 -0.0889,-0.01499 l 10e-4,-0.0041 a 0.26458333,0.26458333 0 0 0 -0.0346,0 z m -0.49454,0.52865 v 5.16e-4 a 0.26458333,0.26458333 0 0 0 -0.0346,0 0.26458333,0.26458333 0 0 0 -0.0977,0.03359 0.26458333,0.26458333 0 0 0 -0.0289,0.01912 0.26458333,0.26458333 0 0 0 -0.0672,0.07648 0.26458333,0.26458333 0 0 0 -5.2e-4,5.16e-4 0.26458333,0.26458333 0 0 0 -0.0336,0.09767 0.26458333,0.26458333 0 0 0 0,5.17e-4 0.26458333,0.26458333 0 0 0 0,0.0021 0.26458333,0.26458333 0 0 0 -0.003,0.03307 0.26458333,0.26458333 0 0 0 0.003,0.03462 0.26458333,0.26458333 0 0 0 0.005,0.02274 0.26458333,0.26458333 0 0 0 0.002,0.0088 0.26458333,0.26458333 0 0 0 0.006,0.01809 0.26458333,0.26458333 0 0 0 0.004,0.01344 0.26458333,0.26458333 0 0 0 0.002,0.0041 0.26458333,0.26458333 0 0 0 0.0346,0.05994 0.26458333,0.26458333 0 0 0 0.0227,0.02584 0.26458333,0.26458333 0 0 0 0.0258,0.02325 0.26458333,0.26458333 0 0 0 0.0925,0.04496 0.26458333,0.26458333 0 0 0 0.0687,0.0098 0.26458333,0.26458333 0 0 0 0.26458,-0.264583 0.26458333,0.26458333 0 0 0 -0.26458,-0.264583 z m -0.84491,0.109554 c -0.0624,0.1434 -0.12993,0.28382 -0.20154,0.419096 a 0.26458333,0.26458333 0 0 0 0.0227,-5.17e-4 0.26458333,0.26458333 0 0 0 0.22996,-0.262516 0.26458333,0.26458333 0 0 0 -0.0512,-0.156063 z m 0.28112,0.417545 a 0.26458333,0.26458333 0 0 0 -0.0341,0.0098 0.26458333,0.26458333 0 0 0 -0.0326,0.01137 0.26458333,0.26458333 0 0 0 -0.0858,0.05684 0.26458333,0.26458333 0 0 0 -0.0419,0.05478 0.26458333,0.26458333 0 0 0 -0.0356,0.132291 0.26458333,0.26458333 0 0 0 0.001,0.01292 0.26458333,0.26458333 0 0 0 0.008,0.05736 0.26458333,0.26458333 0 0 0 0.0114,0.03307 0.26458333,0.26458333 0 0 0 0.0574,0.08578 0.26458333,0.26458333 0 0 0 0.0258,0.02325 0.26458333,0.26458333 0 0 0 0.16123,0.05478 0.26458333,0.26458333 0 0 0 0.18758,-0.07855 0.26458333,0.26458333 0 0 0 0.0222,-0.0248 0.26458333,0.26458333 0 0 0 5.2e-4,-10e-4 0.26458333,0.26458333 0 0 0 0.0191,-0.0279 0.26458333,0.26458333 0 0 0 5.2e-4,-0.001 0.26458333,0.26458333 0 0 0 0.0145,-0.02997 0.26458333,0.26458333 0 0 0 5.1e-4,-0.001 0.26458333,0.26458333 0 0 0 0.0202,-0.101285 0.26458333,0.26458333 0 0 0 -0.26459,-0.264584 l -0.001,-0.0021 a 0.26458333,0.26458333 0 0 0 -0.0346,0 z m -0.52917,0.529167 a 0.26458333,0.26458333 0 0 0 -0.0341,0.0098 0.26458333,0.26458333 0 0 0 -0.0326,0.01137 0.26458333,0.26458333 0 0 0 -0.06,0.03462 0.26458333,0.26458333 0 0 0 -0.0258,0.02377 0.26458333,0.26458333 0 0 0 -0.0227,0.02532 0.26458333,0.26458333 0 0 0 -0.0191,0.02894 0.26458333,0.26458333 0 0 0 0,5.17e-4 0.26458333,0.26458333 0 0 0 -0.0155,0.03101 0.26458333,0.26458333 0 0 0 -0.0181,0.06666 0.26458333,0.26458333 0 0 0 -0.003,0.03514 0.26458333,0.26458333 0 0 0 0.009,0.0677 0.26458333,0.26458333 0 0 0 0.0114,0.03307 0.26458333,0.26458333 0 0 0 0.0155,0.03101 0.26458333,0.26458333 0 0 0 0.0191,0.02894 0.26458333,0.26458333 0 0 0 0.0227,0.02636 0.26458333,0.26458333 0 0 0 0.0258,0.02274 0.26458333,0.26458333 0 0 0 0.0599,0.03514 0.26458333,0.26458333 0 0 0 0.0667,0.01809 0.26458333,0.26458333 0 0 0 0.0181,0 0.26458333,0.26458333 0 0 0 0.017,10e-4 0.26458333,0.26458333 0 0 0 0.26459,-0.264584 0.26458333,0.26458333 0 0 0 -0.0202,-0.101285 0.26458333,0.26458333 0 0 0 -5.1e-4,-0.001 0.26458333,0.26458333 0 0 0 -0.0155,-0.03101 0.26458333,0.26458333 0 0 0 -0.0181,-0.02739 0.26458333,0.26458333 0 0 0 -10e-4,-0.0016 0.26458333,0.26458333 0 0 0 -0.2098,-0.103353 l 5.1e-4,-0.001 a 0.26458333,0.26458333 0 0 0 -0.0346,0 z m 1.08986,0.0021 a 0.26458333,0.26458333 0 0 0 -0.26149,0.264583 0.26458333,0.26458333 0 0 0 0.0326,0.127124 c 0.0857,-0.135768 0.15985,-0.262945 0.22893,-0.391707 z m -0.52659,0.521932 5.2e-4,0.0052 a 0.26458333,0.26458333 0 0 0 -0.0346,0 0.26458333,0.26458333 0 0 0 -0.0667,0.01757 0.26458333,0.26458333 0 0 0 -0.031,0.0155 0.26458333,0.26458333 0 0 0 -0.0289,0.0186 0.26458333,0.26458333 0 0 0 -0.0258,0.02325 0.26458333,0.26458333 0 0 0 -0.0227,0.02584 0.26458333,0.26458333 0 0 0 -0.046,0.09198 0.26458333,0.26458333 0 0 0 -0.007,0.03411 0.26458333,0.26458333 0 0 0 -0.003,0.03514 0.26458333,0.26458333 0 0 0 0.003,0.03462 0.26458333,0.26458333 0 0 0 0.007,0.03359 0.26458333,0.26458333 0 0 0 0.11885,0.162264 c 0.11897,-0.160329 0.21981,-0.302939 0.30851,-0.434599 a 0.26458333,0.26458333 0 0 0 -5.2e-4,0 0.26458333,0.26458333 0 0 0 -0.03,-0.02222 0.26458333,0.26458333 0 0 0 -0.0677,-0.031 0.26458333,0.26458333 0 0 0 -0.0362,-0.0098 0.26458333,0.26458333 0 0 0 -0.0372,0 z m -1.09244,0.0052 a 0.26458333,0.26458333 0 0 0 -0.0667,0.01757 0.26458333,0.26458333 0 0 0 -0.0599,0.03514 0.26458333,0.26458333 0 0 0 -0.0258,0.02325 0.26458333,0.26458333 0 0 0 -0.0227,0.02584 0.26458333,0.26458333 0 0 0 -0.0346,0.05994 0.26458333,0.26458333 0 0 0 -0.0114,0.03307 0.26458333,0.26458333 0 0 0 -0.007,0.03411 0.26458333,0.26458333 0 0 0 -0.003,0.03514 0.26458333,0.26458333 0 0 0 0.0367,0.133842 0.26458333,0.26458333 0 0 0 0.22945,0.133325 0.26458333,0.26458333 0 0 0 0.26458,-0.264583 0.26458333,0.26458333 0 0 0 -0.0563,-0.163298 0.26458333,0.26458333 0 0 0 -0.009,-0.01033 0.26458333,0.26458333 0 0 0 -0.0119,-0.01344 0.26458333,0.26458333 0 0 0 -0.18707,-0.07958 0.26458333,0.26458333 0 0 0 -0.0346,0 z m -0.52916,0.529166 a 0.26458333,0.26458333 0 0 0 -0.0264,0.0047 c -0.0691,0.08661 -0.13792,0.171819 -0.2036,0.252181 a 0.26458333,0.26458333 0 0 0 0,0.0057 0.26458333,0.26458333 0 0 0 0,0.0021 0.26458333,0.26458333 0 0 0 0,0.0021 0.26458333,0.26458333 0 0 0 0.002,0.01809 0.26458333,0.26458333 0 0 0 10e-4,0.01344 0.26458333,0.26458333 0 0 0 0.262,0.233061 0.26458333,0.26458333 0 0 0 0.2558,-0.197921 0.26458333,0.26458333 0 0 0 0.007,-0.03204 0.26458333,0.26458333 0 0 0 0,-0.0016 0.26458333,0.26458333 0 0 0 0.002,-0.03359 0.26458333,0.26458333 0 0 0 0,-0.001 0.26458333,0.26458333 0 0 0 -0.002,-0.03307 0.26458333,0.26458333 0 0 0 0,-0.0015 0.26458333,0.26458333 0 0 0 -0.26252,-0.22996 v -5.17e-4 a 0.26458333,0.26458333 0 0 0 -0.0346,0 z m 1.09295,0 a 0.26458333,0.26458333 0 0 0 -0.10128,0.01964 0.26458333,0.26458333 0 0 0 -0.06,0.03514 0.26458333,0.26458333 0 0 0 -0.0258,0.02274 0.26458333,0.26458333 0 0 0 -0.0419,0.05529 0.26458333,0.26458333 0 0 0 -0.016,0.03101 0.26458333,0.26458333 0 0 0 -0.0181,0.06718 0.26458333,0.26458333 0 0 0 -0.003,0.03462 0.26458333,0.26458333 0 0 0 0.009,0.06821 0.26458333,0.26458333 0 0 0 0.0114,0.03307 0.26458333,0.26458333 0 0 0 0.0155,0.03101 0.26458333,0.26458333 0 0 0 0.006,0.0093 0.26458333,0.26458333 0 0 0 0.002,0.0026 0.26458333,0.26458333 0 0 0 0.0114,0.01705 0.26458333,0.26458333 0 0 0 0.009,0.0098 0.26458333,0.26458333 0 0 0 0.003,0.0036 0.26458333,0.26458333 0 0 0 0.0109,0.0124 0.26458333,0.26458333 0 0 0 0.006,0.0052 0.26458333,0.26458333 0 0 0 0.0176,0.01499 0.26458333,0.26458333 0 0 0 0.009,0.0062 0.26458333,0.26458333 0 0 0 0.0186,0.0124 0.26458333,0.26458333 0 0 0 0.009,0.0057 0.26458333,0.26458333 0 0 0 0.0868,0.03049 l 5.2e-4,-5.17e-4 c 0.10379,-0.131992 0.19777,-0.253585 0.2837,-0.366386 a 0.26458333,0.26458333 0 0 0 -0.24288,-0.158647 0.26458333,0.26458333 0 0 0 -5.1e-4,0 z m -0.56379,0.529167 a 0.26458333,0.26458333 0 0 0 -0.0341,0.0098 0.26458333,0.26458333 0 0 0 -0.0326,0.01085 0.26458333,0.26458333 0 0 0 -0.0599,0.03514 0.26458333,0.26458333 0 0 0 -0.0258,0.02274 0.26458333,0.26458333 0 0 0 -0.0227,0.02635 0.26458333,0.26458333 0 0 0 0,5.17e-4 0.26458333,0.26458333 0 0 0 -0.0191,0.02842 0.26458333,0.26458333 0 0 0 0,5.17e-4 0.26458333,0.26458333 0 0 0 -0.0155,0.03049 0.26458333,0.26458333 0 0 0 0,5.17e-4 0.26458333,0.26458333 0 0 0 -0.0181,0.06666 0.26458333,0.26458333 0 0 0 -0.003,0.03462 0.26458333,0.26458333 0 0 0 0.009,0.06821 0.26458333,0.26458333 0 0 0 0.0269,0.06408 0.26458333,0.26458333 0 0 0 0.0191,0.02894 0.26458333,0.26458333 0 0 0 0.0775,0.0677 0.26458333,0.26458333 0 0 0 0.031,0.01499 0.26458333,0.26458333 0 0 0 0.0114,0.0041 0.26458333,0.26458333 0 0 0 0.0217,0.0072 0.26458333,0.26458333 0 0 0 10e-4,0 0.26458333,0.26458333 0 0 0 0.0326,0.0067 0.26458333,0.26458333 0 0 0 0.0357,0.0026 0.26458333,0.26458333 0 0 0 0.0708,-0.0098 c 2.5e-4,-3.09e-4 7.9e-4,-2.07e-4 0.001,-5.17e-4 0.0673,-0.08358 0.13144,-0.16399 0.19275,-0.240812 a 0.26458333,0.26458333 0 0 0 0,-0.01344 0.26458333,0.26458333 0 0 0 -0.0785,-0.187585 0.26458333,0.26458333 0 0 0 -0.0258,-0.02274 0.26458333,0.26458333 0 0 0 -0.0599,-0.03462 0.26458333,0.26458333 0 0 0 -0.0315,-0.01085 0.26458333,0.26458333 0 0 0 -0.001,0 0.26458333,0.26458333 0 0 0 -0.0331,-0.0067 0.26458333,0.26458333 0 0 0 -0.001,0 0.26458333,0.26458333 0 0 0 -0.0346,-0.0026 l 10e-4,-0.0015 a 0.26458333,0.26458333 0 0 0 -0.0346,0 z m -0.98443,0.0026 c -0.1015,0.124112 -0.19757,0.241911 -0.28784,0.353467 a 0.26458333,0.26458333 0 0 0 0.24856,0.173116 0.26458333,0.26458333 0 0 0 0.26459,-0.264584 0.26458333,0.26458333 0 0 0 -0.22531,-0.261999 z m 0.48989,0.526583 a 0.26458333,0.26458333 0 0 0 -0.26458,0.264583 0.26458333,0.26458333 0 0 0 0.14004,0.233061 c -5e-5,6.79e-4 5e-5,0.0014 0,0.0021 a 0.26458333,0.26458333 0 0 0 0.12506,0.03204 0.26458333,0.26458333 0 0 0 0.26458,-0.264583 0.26458333,0.26458333 0 0 0 -0.003,-0.03721 0.26458333,0.26458333 0 0 0 -0.262,-0.22996 z m -0.93948,0.02791 c -0.11707,0.145882 -0.224,0.280525 -0.32194,0.40566 a 0.26458333,0.26458333 0 0 0 0.20309,0.0956 0.26458333,0.26458333 0 0 0 0.26458,-0.264583 0.26458333,0.26458333 0 0 0 -0.14573,-0.236677 z m 0.41031,0.501261 a 0.26458333,0.26458333 0 0 0 -0.26458,0.264584 0.26458333,0.26458333 0 0 0 0.26458,0.264583 0.26458333,0.26458333 0 0 0 0.26459,-0.264583 0.26458333,0.26458333 0 0 0 -0.26459,-0.264584 z m -0.86868,0.0801 c -0.1186,0.153984 -0.22243,0.292054 -0.31367,0.418062 a 0.26458333,0.26458333 0 0 0 0.12402,0.03101 0.26458333,0.26458333 0 0 0 0.26458,-0.264583 0.26458333,0.26458333 0 0 0 -0.0749,-0.184485 z m 0.33952,0.449068 a 0.26458333,0.26458333 0 0 0 -0.26459,0.264583 0.26458333,0.26458333 0 0 0 0.26459,0.264584 0.26458333,0.26458333 0 0 0 0.26458,-0.264584 0.26458333,0.26458333 0 0 0 -0.26458,-0.264583 z m -0.80564,0.185518 c -0.0857,0.124878 -0.15836,0.237214 -0.22066,0.341582 a 0.26458333,0.26458333 0 0 0 0.23255,-0.262517 0.26458333,0.26458333 0 0 0 -0.0119,-0.07906 z m 0.27647,0.343649 a 0.26458333,0.26458333 0 0 0 -0.26458,0.264583 0.26458333,0.26458333 0 0 0 0.26458,0.264583 0.26458333,0.26458333 0 0 0 0.26458,-0.264583 0.26458333,0.26458333 0 0 0 -0.26458,-0.264583 z m -0.52917,0.529166 a 0.26458333,0.26458333 0 0 0 -0.26458,0.264584 0.26458333,0.26458333 0 0 0 0.26458,0.264583 0.26458333,0.26458333 0 0 0 0.26459,-0.264583 0.26458333,0.26458333 0 0 0 -0.26459,-0.264584 z m 1.05834,0 a 0.26458333,0.26458333 0 0 0 -0.26459,0.264584 0.26458333,0.26458333 0 0 0 0.06,0.167948 c 0.0684,-0.146114 0.14385,-0.291381 0.22427,-0.432015 a 0.26458333,0.26458333 0 0 0 -0.0196,-5.17e-4 z m -0.52917,0.529167 a 0.26458333,0.26458333 0 0 0 -0.26458,0.264583 0.26458333,0.26458333 0 0 0 0.2067,0.258382 c -1.4e-4,7.17e-4 -3.7e-4,0.0013 -5.1e-4,0.0021 a 0.26458333,0.26458333 0 0 0 0.0584,0.0098 0.26458333,0.26458333 0 0 0 0.0801,-0.0124 c 0.0411,-0.129111 0.09,-0.261573 0.14573,-0.395325 a 0.26458333,0.26458333 0 0 0 -0.22583,-0.127124 z m -0.96893,0.0155 c -0.0528,0.162284 -0.10182,0.332195 -0.14676,0.507462 a 0.26458333,0.26458333 0 0 0 0.0574,0.0062 0.26458333,0.26458333 0 0 0 0.26458,-0.264584 0.26458333,0.26458333 0 0 0 -0.17518,-0.24908 z m 0.43976,0.513664 a 0.26458333,0.26458333 0 0 0 -0.26458,0.264583 0.26458333,0.26458333 0 0 0 0.26458,0.264583 0.26458333,0.26458333 0 0 0 0.26459,-0.264583 0.26458333,0.26458333 0 0 0 -0.26459,-0.264583 z m -0.52916,0.529166 a 0.26458333,0.26458333 0 0 0 -0.19431,0.08475 c -0.0153,0.08208 -0.0301,0.164886 -0.0434,0.248047 -0.002,0.01195 -0.003,0.02394 -0.005,0.03617 a 0.26458333,0.26458333 0 0 0 0.24288,0.160197 0.26458333,0.26458333 0 0 0 0.26458,-0.264583 0.26458333,0.26458333 0 0 0 -0.26458,-0.264584 z m 1.00562,0.0052 a 0.26458333,0.26458333 0 0 0 -0.21187,0.259416 0.26458333,0.26458333 0 0 0 0.0496,0.154512 v 5.17e-4 a 0.26458333,0.26458333 0 0 0 0.0832,0.07545 c 0.0224,-0.174512 0.0484,-0.332832 0.0791,-0.489893 z m -0.47646,0.523999 a 0.26458333,0.26458333 0 0 0 -0.26458,0.264583 0.26458333,0.26458333 0 0 0 0.26458,0.264584 0.26458333,0.26458333 0 0 0 0.26459,-0.264584 0.26458333,0.26458333 0 0 0 -0.26459,-0.264583 z m -0.80408,0.192236 c -0.002,0.04865 -0.005,0.103317 -0.007,0.165365 a 0.26458333,0.26458333 0 0 0 0.017,-0.09302 0.26458333,0.26458333 0 0 0 -0.0103,-0.07235 z m 0.27492,0.336931 a 0.26458333,0.26458333 0 0 0 -0.26459,0.264583 0.26458333,0.26458333 0 0 0 0.26459,0.264583 0.26458333,0.26458333 0 0 0 0.26458,-0.264583 0.26458333,0.26458333 0 0 0 -0.26458,-0.264583 z m 0.86661,0.08216 a 0.26458333,0.26458333 0 0 0 -0.0729,0.182418 0.26458333,0.26458333 0 0 0 0.0548,0.160714 c 0.005,-0.122558 0.0113,-0.236293 0.0181,-0.343132 z m -0.33745,0.447001 a 0.26458333,0.26458333 0 0 0 -0.26458,0.264584 0.26458333,0.26458333 0 0 0 0.0196,0.100769 c -5.4e-4,6e-6 -0.001,-7e-6 -0.002,0 v 10e-4 a 0.26458333,0.26458333 0 0 0 0.015,0.03204 0.26458333,0.26458333 0 0 0 0.16175,0.128674 0.26458333,0.26458333 0 0 0 0.0351,0.0098 0.26458333,0.26458333 0 0 0 0.0351,0 0.26458333,0.26458333 0 0 0 0.0651,-0.0098 0.26458333,0.26458333 0 0 0 0.031,-0.0098 0.26458333,0.26458333 0 0 0 0.03,-0.01395 0.26458333,0.26458333 0 0 0 0.0956,-0.08837 c -0.001,-3.14e-4 -0.003,-2.06e-4 -0.004,-5.17e-4 a 0.26458333,0.26458333 0 0 0 0.0465,-0.149861 0.26458333,0.26458333 0 0 0 -0.26459,-0.264584 z m -0.82682,0.143144 c -8.5e-4,0.07988 -0.001,0.164857 -0.002,0.255282 a 0.26458333,0.26458333 0 0 0 0.0336,-0.130225 0.26458333,0.26458333 0 0 0 -0.0315,-0.125057 z m 0.29766,0.386023 a 0.26458333,0.26458333 0 0 0 -0.13229,0.03566 0.26458333,0.26458333 0 0 0 -0.0289,0.01912 0.26458333,0.26458333 0 0 0 -0.0258,0.02325 0.26458333,0.26458333 0 0 0 -0.0419,0.05478 0.26458333,0.26458333 0 0 0 -0.016,0.03101 0.26458333,0.26458333 0 0 0 -0.0114,0.03307 0.26458333,0.26458333 0 0 0 -0.009,0.06925 0.26458333,0.26458333 0 0 0 5.1e-4,0.0036 0.26458333,0.26458333 0 0 0 -5.1e-4,0.0036 0.26458333,0.26458333 0 0 0 0.0202,0.101286 0.26458333,0.26458333 0 0 0 0.0574,0.08578 0.26458333,0.26458333 0 0 0 0.0258,0.02325 0.26458333,0.26458333 0 0 0 0.12661,0.05271 0.26458333,0.26458333 0 0 0 0.0346,0 0.26458333,0.26458333 0 0 0 0.1881,-0.07906 0.26458333,0.26458333 0 0 0 0.0217,-0.02429 0.26458333,0.26458333 0 0 0 0.0202,-0.03049 0.26458333,0.26458333 0 0 0 0.007,-0.01395 0.26458333,0.26458333 0 0 0 0.007,-0.0155 0.26458333,0.26458333 0 0 0 0.0114,-0.03256 0.26458333,0.26458333 0 0 0 5.2e-4,-0.0016 0.26458333,0.26458333 0 0 0 0.009,-0.06873 0.26458333,0.26458333 0 0 0 -0.26459,-0.264584 z m 0.82527,0.140043 a 0.26458333,0.26458333 0 0 0 -0.0114,0.02377 0.26458333,0.26458333 0 0 0 -0.0114,0.03307 0.26458333,0.26458333 0 0 0 -0.009,0.06925 0.26458333,0.26458333 0 0 0 0.003,0.03462 0.26458333,0.26458333 0 0 0 0.001,0.0041 0.26458333,0.26458333 0 0 0 0,0.0026 0.26458333,0.26458333 0 0 0 0.005,0.0217 0.26458333,0.26458333 0 0 0 0.003,0.0124 0.26458333,0.26458333 0 0 0 0.0165,0.04547 c 10e-4,-0.08538 0.003,-0.167513 0.004,-0.247013 z m -0.29611,0.389124 a 0.26458333,0.26458333 0 0 0 -0.26458,0.264583 0.26458333,0.26458333 0 0 0 0.002,0.03566 0.26458333,0.26458333 0 0 0 0.26303,0.235127 0.26458333,0.26458333 0 0 0 0.26458,-0.264583 0.26458333,0.26458333 0 0 0 -0.003,-0.04082 0.26458333,0.26458333 0 0 0 -0.262,-0.22996 z m -0.83405,0.12454 c -4.2e-4,0.09242 -6.7e-4,0.188613 -0.001,0.288871 a 0.26458333,0.26458333 0 0 0 0.0419,-0.142627 0.26458333,0.26458333 0 0 0 -5.2e-4,-0.0062 0.26458333,0.26458333 0 0 0 -0.002,-0.03101 0.26458333,0.26458333 0 0 0 0,-0.001 0.26458333,0.26458333 0 0 0 -0.0382,-0.108004 z m 0.30489,0.404626 a 0.26458333,0.26458333 0 0 0 -0.26459,0.264584 0.26458333,0.26458333 0 0 0 5.2e-4,0.0093 0.26458333,0.26458333 0 0 0 0,5.17e-4 0.26458333,0.26458333 0 0 0 0.002,0.02481 0.26458333,0.26458333 0 0 0 0.26303,0.239778 0.26458333,0.26458333 0 0 0 0.26459,-0.264583 0.26458333,0.26458333 0 0 0 -5.2e-4,-0.0098 0.26458333,0.26458333 0 0 0 -5.2e-4,-0.0047 0.26458333,0.26458333 0 0 0 -0.002,-0.02274 0.26458333,0.26458333 0 0 0 -0.26251,-0.237195 z m 0.81442,0.161748 a 0.26458333,0.26458333 0 0 0 -0.0207,0.102836 0.26458333,0.26458333 0 0 0 5.1e-4,0.0093 0.26458333,0.26458333 0 0 0 0,5.17e-4 0.26458333,0.26458333 0 0 0 0.002,0.02481 0.26458333,0.26458333 0 0 0 0.0181,0.07493 c 1.6e-4,-0.07227 2.5e-4,-0.143298 5.2e-4,-0.21239 z m -0.28526,0.366902 a 0.26458333,0.26458333 0 0 0 -0.26458,0.264584 0.26458333,0.26458333 0 0 0 5.2e-4,0.0093 0.26458333,0.26458333 0 0 0 0,10e-4 0.26458333,0.26458333 0 0 0 0.002,0.02429 0.26458333,0.26458333 0 0 0 0.26303,0.240295 0.26458333,0.26458333 0 0 0 0.26458,-0.264583 0.26458333,0.26458333 0 0 0 -5.1e-4,-0.01033 0.26458333,0.26458333 0 0 0 -0.26459,-0.264584 z m -0.83715,0.119373 c -2.3e-4,0.09807 -8.4e-4,0.199239 -10e-4,0.30334 a 0.26458333,0.26458333 0 0 0 0.045,-0.147794 0.26458333,0.26458333 0 0 0 -0.002,-0.03411 0.26458333,0.26458333 0 0 0 -0.0418,-0.121439 z m 0.30799,0.409794 a 0.26458333,0.26458333 0 0 0 -0.20361,0.09612 c 0.003,0 0.006,1.8e-5 0.009,0 a 0.26458333,0.26458333 0 0 0 -0.0698,0.1788 0.26458333,0.26458333 0 0 0 0.26458,0.264584 0.26458333,0.26458333 0 0 0 0.26459,-0.264584 0.26458333,0.26458333 0 0 0 -0.0894,-0.198437 c 0.003,-1.85e-4 0.006,-3.33e-4 0.009,-5.17e-4 a 0.26458333,0.26458333 0 0 0 -0.185,-0.07493 z m 0.8139,0.168465 a 0.26458333,0.26458333 0 0 0 -0.0202,0.101286 0.26458333,0.26458333 0 0 0 0,0.001 0.26458333,0.26458333 0 0 0 -5.2e-4,0.0067 0.26458333,0.26458333 0 0 0 0.003,0.03514 0.26458333,0.26458333 0 0 0 0.007,0.03411 0.26458333,0.26458333 0 0 0 0.0109,0.03204 c -2.2e-4,-0.07134 -3.6e-4,-0.141408 -5.2e-4,-0.210323 z m -0.2837,0.366386 c -4.8e-4,0.0016 -0.001,0.003 -0.002,0.0047 a 0.26458333,0.26458333 0 0 0 -0.26355,0.264583 0.26458333,0.26458333 0 0 0 0.26458,0.264583 0.26458333,0.26458333 0 0 0 0.26458,-0.264583 0.26458333,0.26458333 0 0 0 -5.1e-4,-0.0047 0.26458333,0.26458333 0 0 0 -0.002,-0.02997 0.26458333,0.26458333 0 0 0 -5.2e-4,-0.0016 0.26458333,0.26458333 0 0 0 -0.26148,-0.233061 z m -0.84026,0.120406 c -1.3e-4,0.09737 -4.1e-4,0.196824 -5.2e-4,0.29869 a 0.26458333,0.26458333 0 0 0 0.0465,-0.149862 0.26458333,0.26458333 0 0 0 -0.046,-0.148828 z m 0.31057,0.413411 a 0.26458333,0.26458333 0 0 0 -0.26458,0.264584 0.26458333,0.26458333 0 0 0 0.26458,0.264583 0.26458333,0.26458333 0 0 0 0.26459,-0.264583 0.26458333,0.26458333 0 0 0 -0.26459,-0.264584 z m 0.81752,0.148829 a 0.26458333,0.26458333 0 0 0 -0.0243,0.110587 0.26458333,0.26458333 0 0 0 0.003,0.03514 0.26458333,0.26458333 0 0 0 5.2e-4,0.0067 0.26458333,0.26458333 0 0 0 0.007,0.03411 0.26458333,0.26458333 0 0 0 0.0114,0.03256 0.26458333,0.26458333 0 0 0 0.004,0.0093 c -4.4e-4,-0.07726 -10e-4,-0.153471 -0.002,-0.228409 z m -0.28887,0.375171 a 0.26458333,0.26458333 0 0 0 -0.23616,0.14521 c 0,0.0023 -1e-5,0.0044 0,0.0067 a 0.26458333,0.26458333 0 0 0 -0.008,0.01757 0.26458333,0.26458333 0 0 0 -0.0114,0.03307 0.26458333,0.26458333 0 0 0 -0.007,0.03359 0.26458333,0.26458333 0 0 0 -0.003,0.03514 0.26458333,0.26458333 0 0 0 0.0196,0.101286 0.26458333,0.26458333 0 0 0 0.016,0.03101 0.26458333,0.26458333 0 0 0 0.0966,0.09715 0.26458333,0.26458333 0 0 0 0.031,0.01602 0.26458333,0.26458333 0 0 0 0.032,0.01085 0.26458333,0.26458333 0 0 0 0.0341,0.0098 0.26458333,0.26458333 0 0 0 0.0346,0 0.26458333,0.26458333 0 0 0 0.0346,0 0.26458333,0.26458333 0 0 0 0.22841,-0.235127 0.26458333,0.26458333 0 0 0 0.003,-0.03772 0.26458333,0.26458333 0 0 0 -0.26459,-0.264583 z m -0.84026,0.119372 c -7e-5,0.09865 7e-5,0.198918 0,0.301274 a 0.26458333,0.26458333 0 0 0 0.047,-0.150896 0.26458333,0.26458333 0 0 0 -0.047,-0.150378 z m 0.31161,0.414445 a 0.26458333,0.26458333 0 0 0 -0.26458,0.2651 0.26458333,0.26458333 0 0 0 0.26458,0.264583 0.26458333,0.26458333 0 0 0 0.26459,-0.264583 0.26458333,0.26458333 0 0 0 -0.26459,-0.2651 z m 0.82373,0.135909 a 0.26458333,0.26458333 0 0 0 -0.0305,0.123507 0.26458333,0.26458333 0 0 0 0,0.001 0.26458333,0.26458333 0 0 0 -5.2e-4,0.0067 0.26458333,0.26458333 0 0 0 0.009,0.06821 0.26458333,0.26458333 0 0 0 0.0114,0.03307 0.26458333,0.26458333 0 0 0 0.0129,0.02584 c -2.8e-4,-0.04241 -7.5e-4,-0.0839 -0.001,-0.125057 -3e-4,-0.0447 -7.4e-4,-0.08929 -10e-4,-0.133325 z m -0.29508,0.38809 a 0.26458333,0.26458333 0 0 0 -0.0723,0.01033 c 5.1e-4,0.0018 10e-4,0.0034 0.002,0.0052 a 0.26458333,0.26458333 0 0 0 -0.061,0.02584 0.26458333,0.26458333 0 0 0 -0.0289,0.01912 0.26458333,0.26458333 0 0 0 -0.0946,0.141076 0.26458333,0.26458333 0 0 0 -0.009,0.06925 0.26458333,0.26458333 0 0 0 0.003,0.03462 0.26458333,0.26458333 0 0 0 0.076,0.152445 0.26458333,0.26458333 0 0 0 0.0548,0.04186 0.26458333,0.26458333 0 0 0 0.13229,0.03617 0.26458333,0.26458333 0 0 0 0.26459,-0.264584 0.26458333,0.26458333 0 0 0 -0.004,-0.04134 0.26458333,0.26458333 0 0 0 -0.26252,-0.22996 z m -0.84077,0.118339 c -4e-5,0.09947 3e-5,0.200723 0,0.303341 a 0.26458333,0.26458333 0 0 0 0.0475,-0.151412 0.26458333,0.26458333 0 0 0 -0.0475,-0.151929 z m 0.31212,0.416512 a 0.26458333,0.26458333 0 0 0 -0.0687,0.0098 0.26458333,0.26458333 0 0 0 -0.0326,0.01085 0.26458333,0.26458333 0 0 0 -0.06,0.03514 0.26458333,0.26458333 0 0 0 -0.0258,0.02274 0.26458333,0.26458333 0 0 0 -0.0775,0.187069 0.26458333,0.26458333 0 0 0 0.003,0.03514 0.26458333,0.26458333 0 0 0 0.0336,0.09819 0.26458333,0.26458333 0 0 0 0.0191,0.02894 0.26458333,0.26458333 0 0 0 0.0227,0.02584 0.26458333,0.26458333 0 0 0 0.0258,0.02326 0.26458333,0.26458333 0 0 0 0.0289,0.0186 0.26458333,0.26458333 0 0 0 0.13229,0.03617 0.26458333,0.26458333 0 0 0 0.0346,0 0.26458333,0.26458333 0 0 0 0.22996,-0.262517 0.26458333,0.26458333 0 0 0 -0.26458,-0.264583 z m 0.83044,0.124024 a 0.26458333,0.26458333 0 0 0 -0.0372,0.134875 0.26458333,0.26458333 0 0 0 0.003,0.03721 0.26458333,0.26458333 0 0 0 0.0357,0.104903 c -4.6e-4,-0.09382 -5.6e-4,-0.186489 -10e-4,-0.276985 z m -0.33589,0.404626 a 0.26458333,0.26458333 0 0 0 -0.0341,0.01034 0.26458333,0.26458333 0 0 0 -0.0636,0.02687 0.26458333,0.26458333 0 0 0 -0.0289,0.01912 0.26458333,0.26458333 0 0 0 -0.0258,0.02274 0.26458333,0.26458333 0 0 0 -0.0227,0.02636 0.26458333,0.26458333 0 0 0 -0.0191,0.02894 0.26458333,0.26458333 0 0 0 -0.0269,0.06305 0.26458333,0.26458333 0 0 0 -0.009,0.06873 0.26458333,0.26458333 0 0 0 0.003,0.03514 0.26458333,0.26458333 0 0 0 0.0181,0.06718 0.26458333,0.26458333 0 0 0 0.0346,0.05994 0.26458333,0.26458333 0 0 0 0.0775,0.0677 0.26458333,0.26458333 0 0 0 0.0977,0.03411 0.26458333,0.26458333 0 0 0 0.0346,0 0.26458333,0.26458333 0 0 0 0.0346,0 0.26458333,0.26458333 0 0 0 0.22996,-0.262516 0.26458333,0.26458333 0 0 0 -5.2e-4,-0.01033 0.26458333,0.26458333 0 0 0 -0.002,-0.02532 0.26458333,0.26458333 0 0 0 -5.2e-4,-0.0015 0.26458333,0.26458333 0 0 0 -5.2e-4,-0.0078 0.26458333,0.26458333 0 0 0 -0.0181,-0.0677 c 0,0.0025 2e-5,0.0052 0,0.0078 a 0.26458333,0.26458333 0 0 0 -0.24288,-0.15968 l -5.2e-4,-0.0031 a 0.26458333,0.26458333 0 0 0 -0.0346,0 z m -0.80719,0.113171 c -2e-5,0.09995 2e-5,0.201179 0,0.303858 a 0.26458333,0.26458333 0 0 0 0.0481,-0.151929 0.26458333,0.26458333 0 0 0 -0.0481,-0.151929 z m 0.31264,0.414445 a 0.26458333,0.26458333 0 0 0 -0.24443,0.163298 0.26458333,0.26458333 0 0 0 -0.0114,0.03307 0.26458333,0.26458333 0 0 0 -0.009,0.06925 0.26458333,0.26458333 0 0 0 0.003,0.03514 0.26458333,0.26458333 0 0 0 0.0336,0.09767 0.26458333,0.26458333 0 0 0 0.0677,0.077 0.26458333,0.26458333 0 0 0 0.12661,0.05323 0.26458333,0.26458333 0 0 0 0.0346,0 0.26458333,0.26458333 0 0 0 0.0346,0 0.26458333,0.26458333 0 0 0 0.22996,-0.262516 0.26458333,0.26458333 0 0 0 -0.26458,-0.264583 z m 0.83509,0.116789 a 0.26458333,0.26458333 0 0 0 -0.0331,0.07441 0.26458333,0.26458333 0 0 0 -0.007,0.03411 0.26458333,0.26458333 0 0 0 -0.003,0.03514 0.26458333,0.26458333 0 0 0 0.0145,0.08423 0.26458333,0.26458333 0 0 0 0.0295,0.06408 c -3.8e-4,-0.09832 -6.4e-4,-0.195833 -0.001,-0.291972 z m -0.30644,0.405143 a 0.26458333,0.26458333 0 0 0 -0.13229,0.03617 0.26458333,0.26458333 0 0 0 -0.0289,0.01912 0.26458333,0.26458333 0 0 0 -0.0258,0.02274 0.26458333,0.26458333 0 0 0 -0.0227,0.02584 0.26458333,0.26458333 0 0 0 -0.0191,0.02946 0.26458333,0.26458333 0 0 0 -0.0357,0.132291 0.26458333,0.26458333 0 0 0 0.001,0.01705 0.26458333,0.26458333 0 0 0 0.26407,0.252181 0.26458333,0.26458333 0 0 0 0.26458,-0.2651 0.26458333,0.26458333 0 0 0 -0.003,-0.03721 0.26458333,0.26458333 0 0 0 -0.26252,-0.22996 z m -0.84129,0.12299 c -1e-5,0.100178 1e-5,0.201277 0,0.303858 a 0.26458333,0.26458333 0 0 0 0.0481,-0.151929 0.26458333,0.26458333 0 0 0 -0.0481,-0.151929 z m 0.31109,0.401526 0.001,0.0047 a 0.26458333,0.26458333 0 0 0 -0.0346,0 0.26458333,0.26458333 0 0 0 -0.0667,0.01809 0.26458333,0.26458333 0 0 0 -0.031,0.01499 0.26458333,0.26458333 0 0 0 -0.0775,0.06821 0.26458333,0.26458333 0 0 0 -0.0331,0.05684 c -10e-4,0.0055 -0.002,0.01089 -0.003,0.01654 a 0.26458333,0.26458333 0 0 0 -0.016,0.06253 0.26458333,0.26458333 0 0 0 -0.003,0.03462 0.26458333,0.26458333 0 0 0 0.002,0.01757 0.26458333,0.26458333 0 0 0 0,0.0072 0.26458333,0.26458333 0 0 0 0.001,0.0057 0.26458333,0.26458333 0 0 0 5.2e-4,0.0047 0.26458333,0.26458333 0 0 0 0.0181,0.06718 0.26458333,0.26458333 0 0 0 0.0155,0.03101 0.26458333,0.26458333 0 0 0 0.0191,0.02894 0.26458333,0.26458333 0 0 0 0.0486,0.04909 0.26458333,0.26458333 0 0 0 0.0289,0.01912 0.26458333,0.26458333 0 0 0 0.0977,0.03359 0.26458333,0.26458333 0 0 0 0.0346,0 0.26458333,0.26458333 0 0 0 0.0346,0 0.26458333,0.26458333 0 0 0 0.22996,-0.262517 0.26458333,0.26458333 0 0 0 -0.003,-0.03617 0.26458333,0.26458333 0 0 0 -0.26304,-0.241846 z m 0.84078,0.118339 a 0.26458333,0.26458333 0 0 0 -0.0372,0.0801 0.26458333,0.26458333 0 0 0 -0.009,0.06925 0.26458333,0.26458333 0 0 0 -5.2e-4,0.0062 0.26458333,0.26458333 0 0 0 0.0202,0.101286 0.26458333,0.26458333 0 0 0 0.0274,0.05013 c -3.2e-4,-0.103119 -6.9e-4,-0.205248 -0.001,-0.306958 z m -0.31058,0.415479 a 0.26458333,0.26458333 0 0 0 -0.10128,0.02015 0.26458333,0.26458333 0 0 0 -0.15451,0.175699 0.26458333,0.26458333 0 0 0 -0.007,0.03411 0.26458333,0.26458333 0 0 0 -0.003,0.03514 0.26458333,0.26458333 0 0 0 0.009,0.0677 0.26458333,0.26458333 0 0 0 0.0119,0.03772 0.26458333,0.26458333 0 0 0 0.016,0.03101 0.26458333,0.26458333 0 0 0 0.0186,0.02945 0.26458333,0.26458333 0 0 0 0.0486,0.04858 0.26458333,0.26458333 0 0 0 0.0289,0.01912 0.26458333,0.26458333 0 0 0 0.13229,0.03617 0.26458333,0.26458333 0 0 0 0.0346,0 0.26458333,0.26458333 0 0 0 0.22996,-0.262516 0.26458333,0.26458333 0 0 0 -5.2e-4,-0.0067 0.26458333,0.26458333 0 0 0 -0.002,-0.02791 0.26458333,0.26458333 0 0 0 0,-10e-4 0.26458333,0.26458333 0 0 0 -0.26303,-0.236162 z m -0.84129,0.113171 c 0,0.103337 0,0.207546 0,0.313159 a 0.26458333,0.26458333 0 0 0 0.0481,-0.152445 0.26458333,0.26458333 0 0 0 -5.2e-4,-0.0088 0.26458333,0.26458333 0 0 0 0,-5.17e-4 0.26458333,0.26458333 0 0 0 -0.0475,-0.151412 z m 0.31213,0.415995 a 0.26458333,0.26458333 0 0 0 -0.26459,0.264584 0.26458333,0.26458333 0 0 0 0.004,0.03927 0.26458333,0.26458333 0 0 0 0,0.001 0.26458333,0.26458333 0 0 0 0.006,0.02791 0.26458333,0.26458333 0 0 0 10e-4,0.0062 0.26458333,0.26458333 0 0 0 0.0114,0.03307 0.26458333,0.26458333 0 0 0 0.016,0.03101 0.26458333,0.26458333 0 0 0 0.0966,0.09715 0.26458333,0.26458333 0 0 0 0.0631,0.02584 0.26458333,0.26458333 0 0 0 0.0341,0.0098 0.26458333,0.26458333 0 0 0 0.0346,0 0.26458333,0.26458333 0 0 0 0.26458,-0.264583 0.26458333,0.26458333 0 0 0 -0.004,-0.04134 0.26458333,0.26458333 0 0 0 -0.005,-0.02687 0.26458333,0.26458333 0 0 0 -5.2e-4,-10e-4 0.26458333,0.26458333 0 0 0 -0.25683,-0.202055 z m 0.84284,0.111105 a 0.26458333,0.26458333 0 0 0 -0.0491,0.153479 0.26458333,0.26458333 0 0 0 5.1e-4,0.0041 0.26458333,0.26458333 0 0 0 -5.1e-4,0.0036 0.26458333,0.26458333 0 0 0 0.009,0.0677 0.26458333,0.26458333 0 0 0 0.0269,0.06408 0.26458333,0.26458333 0 0 0 0.0134,0.0217 c -2.7e-4,-0.10524 -2.4e-4,-0.210171 -5.2e-4,-0.314709 z m -0.31368,0.418062 a 0.26458333,0.26458333 0 0 0 -0.26458,0.264583 0.26458333,0.26458333 0 0 0 0,0.001 0.26458333,0.26458333 0 0 0 -5.2e-4,0.0067 0.26458333,0.26458333 0 0 0 0.003,0.03514 0.26458333,0.26458333 0 0 0 0.0527,0.126607 0.26458333,0.26458333 0 0 0 0.0227,0.02584 0.26458333,0.26458333 0 0 0 0.0264,0.02274 0.26458333,0.26458333 0 0 0 0.12609,0.05323 0.26458333,0.26458333 0 0 0 0.0346,0 0.26458333,0.26458333 0 0 0 0.0346,0 0.26458333,0.26458333 0 0 0 0.22996,-0.262517 0.26458333,0.26458333 0 0 0 -0.002,-0.03462 0.26458333,0.26458333 0 0 0 -0.26304,-0.238745 z m -0.84129,0.113171 v 0.310576 a 0.26458333,0.26458333 0 0 0 0.0491,-0.153479 0.26458333,0.26458333 0 0 0 -0.009,-0.06666 0.26458333,0.26458333 0 0 0 -0.0403,-0.09043 z m 0.31213,0.415996 a 0.26458333,0.26458333 0 0 0 -0.26459,0.264583 0.26458333,0.26458333 0 0 0 0,0.0021 0.26458333,0.26458333 0 0 0 0,0.0026 0.26458333,0.26458333 0 0 0 0.002,0.02532 0.26458333,0.26458333 0 0 0 5.2e-4,0.0047 0.26458333,0.26458333 0 0 0 5.1e-4,0.0047 0.26458333,0.26458333 0 0 0 0.0336,0.09819 0.26458333,0.26458333 0 0 0 0.0191,0.02894 0.26458333,0.26458333 0 0 0 0.0775,0.06821 0.26458333,0.26458333 0 0 0 0.0636,0.02584 0.26458333,0.26458333 0 0 0 0.0687,0.0098 0.26458333,0.26458333 0 0 0 0.26458,-0.264584 0.26458333,0.26458333 0 0 0 -0.003,-0.04031 0.26458333,0.26458333 0 0 0 -0.26251,-0.22996 z m 0.84542,0.107487 a 0.26458333,0.26458333 0 0 0 -0.0517,0.157096 0.26458333,0.26458333 0 0 0 0,0.0015 0.26458333,0.26458333 0 0 0 0,0.0016 0.26458333,0.26458333 0 0 0 0.002,0.03049 0.26458333,0.26458333 0 0 0 0.007,0.03772 0.26458333,0.26458333 0 0 0 0.0269,0.06356 0.26458333,0.26458333 0 0 0 0.0165,0.02584 c -2.1e-4,-0.105911 -2.9e-4,-0.21194 -5.2e-4,-0.31781 z m -0.31626,0.421163 a 0.26458333,0.26458333 0 0 0 -0.26458,0.264583 0.26458333,0.26458333 0 0 0 -5.2e-4,0.0052 0.26458333,0.26458333 0 0 0 0.003,0.03514 0.26458333,0.26458333 0 0 0 0.007,0.03411 0.26458333,0.26458333 0 0 0 0.0114,0.03307 0.26458333,0.26458333 0 0 0 0.0346,0.05994 0.26458333,0.26458333 0 0 0 0.0775,0.0677 0.26458333,0.26458333 0 0 0 0.0636,0.02635 0.26458333,0.26458333 0 0 0 0.0687,0.0098 0.26458333,0.26458333 0 0 0 0.0346,0 0.26458333,0.26458333 0 0 0 0.22996,-0.262516 0.26458333,0.26458333 0 0 0 -0.003,-0.03462 0.26458333,0.26458333 0 0 0 -0.26304,-0.238745 z m -0.84129,0.117822 v 0.304374 a 0.26458333,0.26458333 0 0 0 0.0481,-0.151929 0.26458333,0.26458333 0 0 0 -5.2e-4,-0.0083 0.26458333,0.26458333 0 0 0 -0.0362,-0.133325 v 0.0031 c 5.1e-4,0.0023 10e-4,0.0044 0.002,0.0067 a 0.26458333,0.26458333 0 0 0 -0.0129,-0.02067 z m 0.31213,0.411344 a 0.26458333,0.26458333 0 0 0 -0.0884,0.0155 c 0.002,0.0012 0.005,0.002 0.007,0.0031 a 0.26458333,0.26458333 0 0 0 -0.18242,0.251664 0.26458333,0.26458333 0 0 0 0.26458,0.264583 0.26458333,0.26458333 0 0 0 0.26459,-0.264583 0.26458333,0.26458333 0 0 0 -0.0548,-0.161747 c 0.001,2.3e-4 0.002,2.91e-4 0.004,5.17e-4 a 0.26458333,0.26458333 0 0 0 -0.21394,-0.109038 z m 0.84697,0.10542 a 0.26458333,0.26458333 0 0 0 -0.0532,0.15968 0.26458333,0.26458333 0 0 0 0.003,0.03566 0.26458333,0.26458333 0 0 0 0.0512,0.128674 c -1.5e-4,-0.107688 -3.5e-4,-0.215668 -5.2e-4,-0.324011 z m -0.31781,0.424264 a 0.26458333,0.26458333 0 0 0 -0.1142,0.02584 v 0.0052 a 0.26458333,0.26458333 0 0 0 -0.14986,0.238745 0.26458333,0.26458333 0 0 0 0.26458,0.264583 0.26458333,0.26458333 0 0 0 0.26458,-0.264583 0.26458333,0.26458333 0 0 0 -5.1e-4,-0.0047 0.26458333,0.26458333 0 0 0 -0.002,-0.02997 0.26458333,0.26458333 0 0 0 -5.2e-4,-0.0015 0.26458333,0.26458333 0 0 0 -0.26252,-0.233061 z m -0.84129,0.117305 v 0.304374 a 0.26458333,0.26458333 0 0 0 0.0481,-0.151928 0.26458333,0.26458333 0 0 0 -0.0481,-0.152446 z m 0.31264,0.417029 a 0.26458333,0.26458333 0 0 0 -0.26458,0.264583 0.26458333,0.26458333 0 0 0 0.26458,0.264584 0.26458333,0.26458333 0 0 0 0.26459,-0.264584 0.26458333,0.26458333 0 0 0 -0.26459,-0.264583 z m 0.84801,0.09819 a 0.26458333,0.26458333 0 0 0 -0.0548,0.160714 0.26458333,0.26458333 0 0 0 10e-4,0.0124 0.26458333,0.26458333 0 0 0 0.0543,0.153996 c -8e-5,-0.10833 -4.1e-4,-0.217299 -5.2e-4,-0.327112 z m -0.31936,0.425297 a 0.26458333,0.26458333 0 0 0 -0.26458,0.2651 0.26458333,0.26458333 0 0 0 0.001,0.01292 0.26458333,0.26458333 0 0 0 0.26407,0.256831 0.26458333,0.26458333 0 0 0 0.26458,-0.264583 0.26458333,0.26458333 0 0 0 -5.1e-4,-0.0052 0.26458333,0.26458333 0 0 0 -0.26459,-0.2651 z m -0.84129,0.117823 v 0.304374 a 0.26458333,0.26458333 0 0 0 0.0481,-0.151929 0.26458333,0.26458333 0 0 0 -0.0481,-0.152445 z m 0.31161,0.410827 5.2e-4,0.001 a 0.26458333,0.26458333 0 0 0 -0.13178,0.03462 c -1.5e-4,0.002 -3.7e-4,0.0042 -5.1e-4,0.0062 a 0.26458333,0.26458333 0 0 0 -0.13178,0.228927 0.26458333,0.26458333 0 0 0 0.26458,0.264583 0.26458333,0.26458333 0 0 0 0.26459,-0.264583 0.26458333,0.26458333 0 0 0 -0.003,-0.04082 0.26458333,0.26458333 0 0 0 -0.26252,-0.22996 z m 0.84956,0.103353 a 0.26458333,0.26458333 0 0 0 -0.0553,0.162264 0.26458333,0.26458333 0 0 0 0.001,0.01395 0.26458333,0.26458333 0 0 0 0.0543,0.152445 c 1e-5,-0.108158 2e-5,-0.217906 0,-0.328662 z m -0.31988,0.426847 a 0.26458333,0.26458333 0 0 0 -0.26458,0.264584 0.26458333,0.26458333 0 0 0 0.001,0.01292 0.26458333,0.26458333 0 0 0 0.26407,0.256832 0.26458333,0.26458333 0 0 0 0.26458,-0.264584 0.26458333,0.26458333 0 0 0 -5.1e-4,-0.0052 0.26458333,0.26458333 0 0 0 -0.26459,-0.264584 z m -0.84129,0.112655 v 0.309542 a 0.26458333,0.26458333 0 0 0 0.0481,-0.152446 0.26458333,0.26458333 0 0 0 -5.2e-4,-0.0057 0.26458333,0.26458333 0 0 0 -0.002,-0.02687 0.26458333,0.26458333 0 0 0 -5.1e-4,-0.0016 0.26458333,0.26458333 0 0 0 -0.0455,-0.12299 z m 0.31213,0.416512 a 0.26458333,0.26458333 0 0 0 -0.26459,0.264583 0.26458333,0.26458333 0 0 0 0.001,0.01395 0.26458333,0.26458333 0 0 0 0.26406,0.255798 0.26458333,0.26458333 0 0 0 0.26459,-0.264583 0.26458333,0.26458333 0 0 0 -5.2e-4,-0.0052 0.26458333,0.26458333 0 0 0 -0.26458,-0.264583 z m 0.84904,0.102836 a 0.26458333,0.26458333 0 0 0 -0.0553,0.161747 0.26458333,0.26458333 0 0 0 0.001,0.01344 0.26458333,0.26458333 0 0 0 0.0537,0.151929 z m -0.31988,0.426331 a 0.26458333,0.26458333 0 0 0 -0.26458,0.264583 0.26458333,0.26458333 0 0 0 0.001,0.01395 0.26458333,0.26458333 0 0 0 0.26407,0.255798 0.26458333,0.26458333 0 0 0 0.26458,-0.264583 0.26458333,0.26458333 0 0 0 -5.1e-4,-0.0052 0.26458333,0.26458333 0 0 0 -0.26459,-0.264583 z m -0.84129,0.112654 v 0.309025 a 0.26458333,0.26458333 0 0 0 0.0481,-0.151928 0.26458333,0.26458333 0 0 0 -5.2e-4,-0.0052 0.26458333,0.26458333 0 0 0 -0.002,-0.02739 0.26458333,0.26458333 0 0 0 -5.1e-4,-0.0016 0.26458333,0.26458333 0 0 0 -0.0455,-0.12299 z m 0.2775,0.416512 a 0.26458333,0.26458333 0 0 0 -0.0341,0.0098 0.26458333,0.26458333 0 0 0 -0.0925,0.04599 0.26458333,0.26458333 0 0 0 -0.0258,0.02274 0.26458333,0.26458333 0 0 0 -0.0574,0.0863 0.26458333,0.26458333 0 0 0 -0.0114,0.03307 0.26458333,0.26458333 0 0 0 -0.007,0.03411 0.26458333,0.26458333 0 0 0 -0.003,0.03462 0.26458333,0.26458333 0 0 0 0.0357,0.132291 0.26458333,0.26458333 0 0 0 0.0181,0.02791 0.26458333,0.26458333 0 0 0 5.2e-4,0.001 0.26458333,0.26458333 0 0 0 0.21187,0.106454 0.26458333,0.26458333 0 0 0 0.26459,-0.264584 0.26458333,0.26458333 0 0 0 -0.0372,-0.134358 0.26458333,0.26458333 0 0 0 -0.0181,-0.02791 0.26458333,0.26458333 0 0 0 -10e-4,-10e-4 0.26458333,0.26458333 0 0 0 -0.0222,-0.02481 0.26458333,0.26458333 0 0 0 -0.001,-0.001 0.26458333,0.26458333 0 0 0 -0.18707,-0.07752 l 0.002,-0.0031 a 0.26458333,0.26458333 0 0 0 -0.0346,0 z m 0.8816,0.105937 a 0.26458333,0.26458333 0 0 0 -0.0176,0.02687 0.26458333,0.26458333 0 0 0 -0.0357,0.132291 0.26458333,0.26458333 0 0 0 0.003,0.03411 0.26458333,0.26458333 0 0 0 0.0501,0.128157 z m -0.35243,0.42323 a 0.26458333,0.26458333 0 0 0 -0.20981,0.161231 0.26458333,0.26458333 0 0 0 -0.0202,0.101285 0.26458333,0.26458333 0 0 0 5.2e-4,0.0062 0.26458333,0.26458333 0 0 0 0,0.001 0.26458333,0.26458333 0 0 0 0.26458,0.264583 0.26458333,0.26458333 0 0 0 0.25632,-0.199987 0.26458333,0.26458333 0 0 0 0.006,-0.02997 0.26458333,0.26458333 0 0 0 5.1e-4,-0.0041 0.26458333,0.26458333 0 0 0 0.002,-0.03462 0.26458333,0.26458333 0 0 0 -0.26458,-0.264583 l -0.001,-0.001 a 0.26458333,0.26458333 0 0 0 -0.0346,0 z m -0.80667,0.114205 v 0.307992 a 0.26458333,0.26458333 0 0 0 0.0481,-0.152446 0.26458333,0.26458333 0 0 0 -0.003,-0.03617 0.26458333,0.26458333 0 0 0 -0.0455,-0.119373 z m 0.31213,0.414962 a 0.26458333,0.26458333 0 0 0 -0.26459,0.264583 0.26458333,0.26458333 0 0 0 0.001,0.01395 0.26458333,0.26458333 0 0 0 0.26406,0.255798 0.26458333,0.26458333 0 0 0 0.26459,-0.264583 0.26458333,0.26458333 0 0 0 -5.2e-4,-0.0052 0.26458333,0.26458333 0 0 0 -0.26458,-0.264583 z m 0.84542,0.109037 a 0.26458333,0.26458333 0 0 0 -0.016,0.02377 0.26458333,0.26458333 0 0 0 -0.0155,0.03101 0.26458333,0.26458333 0 0 0 -0.0114,0.03307 0.26458333,0.26458333 0 0 0 -0.009,0.06873 0.26458333,0.26458333 0 0 0 0.003,0.03514 0.26458333,0.26458333 0 0 0 0.0481,0.123506 z m -0.31626,0.420129 a 0.26458333,0.26458333 0 0 0 -0.26458,0.264584 0.26458333,0.26458333 0 0 0 0.001,0.01292 0.26458333,0.26458333 0 0 0 0.26407,0.256832 0.26458333,0.26458333 0 0 0 0.26458,-0.264584 0.26458333,0.26458333 0 0 0 -5.1e-4,-0.0052 0.26458333,0.26458333 0 0 0 -0.26459,-0.264584 z m -0.84129,0.112655 v 0.309542 a 0.26458333,0.26458333 0 0 0 0.0481,-0.152446 0.26458333,0.26458333 0 0 0 -5.2e-4,-0.0052 0.26458333,0.26458333 0 0 0 -0.002,-0.02739 0.26458333,0.26458333 0 0 0 -5.1e-4,-0.0015 0.26458333,0.26458333 0 0 0 -0.0455,-0.12299 z m 0.31213,0.416512 a 0.26458333,0.26458333 0 0 0 -0.26459,0.264583 0.26458333,0.26458333 0 0 0 0.003,0.03462 0.26458333,0.26458333 0 0 0 5.1e-4,0.0067 0.26458333,0.26458333 0 0 0 0.0336,0.09819 0.26458333,0.26458333 0 0 0 0.0191,0.02894 0.26458333,0.26458333 0 0 0 0.0227,0.02584 0.26458333,0.26458333 0 0 0 0.0258,0.02325 0.26458333,0.26458333 0 0 0 0.0289,0.01912 0.26458333,0.26458333 0 0 0 0.031,0.01499 0.26458333,0.26458333 0 0 0 0.10129,0.01964 0.26458333,0.26458333 0 0 0 0.26458,-0.264584 0.26458333,0.26458333 0 0 0 -0.003,-0.03824 0.26458333,0.26458333 0 0 0 -0.26251,-0.233061 z m 0.84336,0.111104 a 0.26458333,0.26458333 0 0 0 -0.0295,0.05271 0.26458333,0.26458333 0 0 0 -0.0202,0.101286 0.26458333,0.26458333 0 0 0 0.003,0.03411 0.26458333,0.26458333 0 0 0 0.0465,0.123506 z m -0.31471,0.417029 5.1e-4,0.001 a 0.26458333,0.26458333 0 0 0 -0.0346,0 0.26458333,0.26458333 0 0 0 -0.12661,0.05323 0.26458333,0.26458333 0 0 0 -0.0258,0.02274 0.26458333,0.26458333 0 0 0 -0.0227,0.02635 0.26458333,0.26458333 0 0 0 -0.0191,0.02894 0.26458333,0.26458333 0 0 0 -0.0155,0.03101 0.26458333,0.26458333 0 0 0 -0.0181,0.06666 0.26458333,0.26458333 0 0 0 -0.003,0.03514 0.26458333,0.26458333 0 0 0 0.009,0.06821 0.26458333,0.26458333 0 0 0 0.002,0.0047 0.26458333,0.26458333 0 0 0 0.0114,0.03566 0.26458333,0.26458333 0 0 0 0.0155,0.03101 0.26458333,0.26458333 0 0 0 0.0424,0.05478 0.26458333,0.26458333 0 0 0 0.18706,0.07803 0.26458333,0.26458333 0 0 0 0.0341,0 0.26458333,0.26458333 0 0 0 0.22996,-0.262516 0.26458333,0.26458333 0 0 0 -0.004,-0.04496 0.26458333,0.26458333 0 0 0 -0.262,-0.22996 z m -0.84078,0.114205 v 0.309025 a 0.26458333,0.26458333 0 0 0 0.0481,-0.152445 0.26458333,0.26458333 0 0 0 -5.2e-4,-0.0052 0.26458333,0.26458333 0 0 0 -0.002,-0.02687 0.26458333,0.26458333 0 0 0 -5.1e-4,-0.0016 0.26458333,0.26458333 0 0 0 -0.0455,-0.12299 z m 0.31213,0.415995 a 0.26458333,0.26458333 0 0 0 -0.26459,0.264584 0.26458333,0.26458333 0 0 0 0.001,0.01395 0.26458333,0.26458333 0 0 0 0.26406,0.255799 0.26458333,0.26458333 0 0 0 0.26459,-0.264584 0.26458333,0.26458333 0 0 0 -5.2e-4,-0.0052 0.26458333,0.26458333 0 0 0 -0.26458,-0.264584 z m 0.84129,0.112138 a 0.26458333,0.26458333 0 0 0 -0.0475,0.150895 0.26458333,0.26458333 0 0 0 5.1e-4,0.0062 0.26458333,0.26458333 0 0 0 0,5.16e-4 0.26458333,0.26458333 0 0 0 0.0465,0.150379 z m -0.31213,0.416512 a 0.26458333,0.26458333 0 0 0 -0.13229,0.03617 0.26458333,0.26458333 0 0 0 -0.0289,0.01912 0.26458333,0.26458333 0 0 0 -0.0486,0.04858 0.26458333,0.26458333 0 0 0 -0.0346,0.05994 0.26458333,0.26458333 0 0 0 -0.0181,0.06718 0.26458333,0.26458333 0 0 0 -0.003,0.03514 0.26458333,0.26458333 0 0 0 0.003,0.03514 0.26458333,0.26458333 0 0 0 5.1e-4,0.0021 0.26458333,0.26458333 0 0 0 0,10e-4 0.26458333,0.26458333 0 0 0 0.007,0.03101 0.26458333,0.26458333 0 0 0 0.2558,0.198955 0.26458333,0.26458333 0 0 0 0.1509,-0.04703 h 0.001 a 0.26458333,0.26458333 0 0 0 0.0284,-0.02325 0.26458333,0.26458333 0 0 0 0.0248,-0.02584 0.26458333,0.26458333 0 0 0 0.0207,-0.02894 0.26458333,0.26458333 0 0 0 0.0284,-0.06615 0.26458333,0.26458333 0 0 0 5.2e-4,-0.0016 0.26458333,0.26458333 0 0 0 0.01,-0.07183 0.26458333,0.26458333 0 0 0 -0.26458,-0.264583 0.26458333,0.26458333 0 0 0 -5.2e-4,0 z m -0.84129,0.112655 v 0.309542 a 0.26458333,0.26458333 0 0 0 0.0481,-0.152446 0.26458333,0.26458333 0 0 0 0,-0.0026 0.26458333,0.26458333 0 0 0 0,-0.0026 0.26458333,0.26458333 0 0 0 -0.0481,-0.151929 z m 0.31264,0.42168 a 0.26458333,0.26458333 0 0 0 -0.0853,0.01447 c 0.0487,-0.0011 0.10282,-0.0024 0.15968,-0.0036 a 0.26458333,0.26458333 0 0 0 -0.0744,-0.01085 z" />
      <path
         id="path1-1-4"
         style="fill:none;stroke:#000000;stroke-width:0.5;stroke-dasharray:none;stroke-opacity:1"
         d="m 101.88161,57.32369 c -0.80749,0.002 -1.55976,0.21637 -2.469402,0.66558 -0.74596,0.3684 -1.32069,0.72474 -2.044274,1.26763 -0.41633,0.31235 -0.62579,0.48254 -1.63204,1.32585 -0.167559,0.14044 -0.579191,0.47547 -0.914708,0.74445 -0.335517,0.26899 -0.634253,0.51822 -0.66384,0.55388 -0.08887,0.10708 -0.09787,0.50806 -0.01655,0.7381 0.09045,0.25599 0.246153,0.34512 0.6029,0.34521 0.28242,7e-5 0.252797,0.0216 1.262548,-0.91392 0.7589,-0.70308 2.370614,-2.04153 2.709714,-2.25033 0.46166,-0.28427 1.530362,-0.86384 1.752472,-0.95034 0.46072,-0.17942 0.76791,-0.23866 1.35306,-0.26087 0.60832,-0.0231 0.96738,0.0136 1.49343,0.15265 0.91303,0.24131 1.90502,0.73016 2.76072,1.36037 0.4634,0.34127 1.21638,1.11211 1.48669,1.52198 0.50906,0.77192 0.89727,1.87977 1.01071,2.88419 0.18387,1.6279 -0.17593,3.34071 -0.96216,4.58023 -0.15378,0.24245 -0.72002,0.9848 -1.15416,1.5131 -1.225,1.49067 -1.6809,2.10771 -1.93591,2.62013 -0.28159,0.56588 -0.51408,1.34756 -0.64662,2.17425 -0.0711,0.4437 -0.0747,0.958 -0.0747,10.66239 V 96.2544 c 0,0 1.00369,-0.0242 1.15214,-0.0205 l 0.009,-5.23522 c 0.002,-2.85128 -0.008,-7.0396 -0.0236,-9.30733 -0.0338,-4.96094 -0.007,-5.78096 0.22636,-6.84485 0.14161,-0.64653 0.5487,-1.47157 1.00223,-2.03111 0.0905,-0.11172 0.27159,-0.33366 0.40226,-0.49327 1.70178,-2.07863 2.06606,-2.5786 2.4436,-3.35355 0.78051,-1.60214 1.01093,-3.79305 0.58021,-5.51661 -0.39472,-1.57948 -0.99719,-2.6845 -1.9601,-3.59507 -1.61238,-1.524729 -3.14846,-2.047206 -4.191,-2.31397 -0.57013,-0.14588 -1.07454,-0.22063 -1.55903,-0.21921 z"
         sodipodi:nodetypes="ssssssssssssssssssssscccssscssssss" />
      <path
         id="path1-3"
         style="fill:none;stroke:#000000;stroke-width:0.5;stroke-dasharray:none;stroke-opacity:1"
         d="m 90.870465,96.761512 c -0.469665,0.009 -1.352749,0.0196 -2.352518,0.0266 -1.472898,0.0104 -3.509717,0.039 -4.526288,0.0636 -1.016577,0.0246 -3.191891,0.0655 -4.834049,0.0908 -1.642158,0.0254 -3.095415,0.0514 -3.229468,0.0579 -0.134052,0.007 -1.559893,0.0129 -3.168535,0.0143 -1.608643,10e-4 -3.911926,0.0199 -5.118405,0.0413 -2.853873,0.0506 -8.369822,0.11483 -12.308539,0.14322 -1.720355,0.0123 -4.142455,0.0399 -5.382448,0.0613 -1.239994,0.0213 -3.113696,0.048 -4.163781,0.0594 -3.610652,0.0392 -6.643194,0.0852 -8.185388,0.12393 -0.458013,0.0115 -1.408576,0.0301 -2.112352,0.0413 -3.65604,0.0583 -4.597908,0.11029 -5.240275,0.28936 -0.896134,0.2498 -1.313952,0.43917 -1.564115,0.7089 -0.392182,0.42287 -0.533937,0.96523 -0.494684,1.893058 0.02965,0.70059 0.134818,1.24514 0.305938,1.58411 0.136877,0.27115 0.390909,0.47128 0.822204,0.64766 l 0.260396,0.10647 2.112352,0.0366 c 2.280714,0.0395 3.007001,0.0298 17.244149,-0.22976 4.211508,-0.0768 8.79065,-0.15878 10.17587,-0.18225 11.869829,-0.20115 18.020355,-0.29535 23.764015,-0.36394 7.381993,-0.0881 20.444766,-0.1483 22.088756,-0.10171 l 6.60071,-4.7e-4 c 4.51591,-0.0305 14.03355,0.01 31.02525,0.13019 6.67888,0.0474 14.48772,0.0709 23.54551,0.0709 h 13.55244 l 0.86219,-0.42654 c 0.77846,-0.38514 0.875,-0.44428 0.99493,-0.60934 0.21944,-0.30201 0.28132,-0.55676 0.27134,-1.117098 -0.008,-0.46316 -0.0922,-1.44506 -0.1394,-1.62974 -0.0803,-0.31451 -0.41451,-0.73118 -0.70835,-0.88313 -0.25388,-0.1313 -0.93366,-0.27172 -1.87957,-0.38821 -0.83202,-0.10247 -1.4929,-0.10672 -28.61838,-0.18622 -3.37368,-0.01 -8.24529,-0.0322 -10.82582,-0.0496 -1.7343,-0.0117 -4.02531,-0.0193 -6.47576,-0.0231 h -7.26861 c -3.00309,0.004 -5.64333,0.0152 -7.12595,0.0314 -2.09641,0.0229 -2.74616,0.0185 -2.79104,-0.0188 -0.006,-0.005 -0.0123,-0.009 -0.0191,-0.0127 h -0.10378 c -0.18946,0.043 -1.97638,0.0545 -1.94868,0.01 0.002,-0.004 0.003,-0.007 0.002,-0.01 h -0.28737 c -0.007,0.003 -0.014,0.007 -0.0196,0.01 -0.0379,0.024 -0.0787,0.0217 -0.11227,-0.006 -10e-4,-0.001 -0.004,-0.003 -0.005,-0.004 h -0.32938 c -0.004,6.2e-4 -0.008,7.4e-4 -0.012,0.001 -0.16165,0.0228 -0.54988,0.0368 -0.86267,0.031 -0.31279,-0.006 -0.7023,-0.0129 -0.8656,-0.0158 -0.0945,-10e-4 -0.17607,-0.008 -0.22573,-0.0169 z" />
      <path
         id="path12855"
         style="stroke-width:0.128905;stroke-linecap:square;paint-order:markers fill stroke;stop-color:#000000"
         d="m 111.19342,96.760663 -20.322795,0.001 c -0.46966,0.009 -1.353058,0.01936 -2.352828,0.02635 -1.47289,0.0104 -3.509769,0.03896 -4.526339,0.06356 -1.01658,0.0246 -3.191653,0.06565 -4.833813,0.09095 -0.848548,0.01313 -1.646899,0.02653 -2.238623,0.03721 H 178.62548 c -1.18556,-0.06489 -5.16483,-0.07835 -28.15539,-0.145728 -3.37368,-0.01 -8.24517,-0.03221 -10.8257,-0.04961 -1.7343,-0.0117 -4.02564,-0.01945 -6.47609,-0.02325 h -7.26829 c -3.00309,0.004 -5.64356,0.01532 -7.12618,0.03152 -2.09641,0.0229 -2.74616,0.0187 -2.79104,-0.0186 -0.006,-0.005 -0.0123,-0.0092 -0.0191,-0.01292 h -0.10387 c -0.18946,0.043 -1.97642,0.05483 -1.94872,0.01033 0.002,-0.004 0.003,-0.0073 0.002,-0.01033 h -0.28732 c -0.007,0.003 -0.014,0.0073 -0.0196,0.01033 -0.0379,0.024 -0.0786,0.0215 -0.11214,-0.0062 -0.001,-0.001 -0.004,-0.0031 -0.005,-0.0041 h -0.32918 c -0.004,6.2e-4 -0.008,7.73e-4 -0.0119,0.001 -0.16165,0.0228 -0.55021,0.03681 -0.863,0.03101 -0.31279,-0.006 -0.70228,-0.0126 -0.86558,-0.0155 -0.0934,-9.88e-4 -0.17394,-0.0083 -0.22376,-0.01705 z M 30.956453,97.64588 c -0.303177,0.03411 -0.518643,0.0759 -0.707968,0.128675 -0.162579,0.04532 -0.309402,0.08856 -0.44235,0.130741 H 181.48835 c -0.0627,-0.09174 -0.13586,-0.180602 -0.21342,-0.259416 z m -2.314071,0.884184 c -0.08112,0.09367 -0.150261,0.193254 -0.208773,0.30179 H 181.74518 c -0.0106,-0.111604 -0.0215,-0.214678 -0.032,-0.30179 z m -0.40566,0.885217 c -0.01945,0.10656 -0.03362,0.220377 -0.04237,0.342615 H 181.81081 c -0.004,-0.103916 -0.0111,-0.220935 -0.0191,-0.342615 z m -0.05013,0.884189 c 8.15e-4,0.0254 0.002,0.051 0.0031,0.077 0.0045,0.10598 0.0107,0.2083 0.0186,0.30696 H 181.73484 c 0.0382,-0.11183 0.0614,-0.23458 0.0729,-0.38395 z m 0.08165,0.88521 c 0.02583,0.15615 0.05726,0.29846 0.09405,0.42582 H 180.62535 c 0.46417,-0.23019 0.66458,-0.33567 0.78032,-0.42582 z m 0.290421,0.88367 c 0.12401,0.18395 0.314952,0.33393 0.595313,0.46767 h 18.991605 c 0.258286,-0.005 0.521357,-0.01 0.789099,-0.0145 4.21151,-0.0768 8.790387,-0.15895 10.175607,-0.18242 7.382439,-0.1251 12.552817,-0.20885 16.788639,-0.27078 z m 130.128497,0 c 2.38273,0.004 4.86448,0.006 7.4476,0.006 h 13.55267 l 0.0124,-0.006 z" />
    </g>
  </g>
</svg>
