<?xml version="1.0" encoding="UTF-8" standalone="no"?>
<!-- Created with Inkscape (http://www.inkscape.org/) -->

<svg
   id="svg3543"
   sodipodi:docname="remigho-hanger-2.svg"
   viewBox="0 0 186.93384 402.82752"
   version="1.1"
   inkscape:version="1.3 (0e150ed, 2023-07-21)"
   width="186.93384"
   height="402.82751"
   xmlns:inkscape="http://www.inkscape.org/namespaces/inkscape"
   xmlns:sodipodi="http://sodipodi.sourceforge.net/DTD/sodipodi-0.dtd"
   xmlns="http://www.w3.org/2000/svg"
   xmlns:svg="http://www.w3.org/2000/svg"
   xmlns:rdf="http://www.w3.org/1999/02/22-rdf-syntax-ns#"
   xmlns:cc="http://creativecommons.org/ns#"
   xmlns:dc="http://purl.org/dc/elements/1.1/">
  <defs
     id="defs1" />
  <sodipodi:namedview
     id="base"
     fit-margin-left="0"
     inkscape:showpageshadow="false"
     inkscape:zoom="2.2254452"
     borderopacity="1.0"
     inkscape:current-layer="layer1"
     inkscape:cx="103.79946"
     inkscape:cy="265.34017"
     borderlayer="false"
     inkscape:window-maximized="0"
     showgrid="false"
     fit-margin-right="0"
     units="mm"
     inkscape:document-units="mm"
     bordercolor="#666666"
     inkscape:window-x="0"
     inkscape:window-y="52"
     fit-margin-bottom="0"
     inkscape:window-width="1440"
     inkscape:pageopacity="0.0"
     inkscape:pageshadow="2"
     pagecolor="#ffffff"
     inkscape:window-height="732"
     showborder="true"
     fit-margin-top="0"
     inkscape:pagecheckerboard="0"
     inkscape:deskcolor="#d1d1d1" />
  <g
     id="layer1"
     inkscape:label="Kleiderbügel"
     inkscape:groupmode="layer"
     transform="translate(-238.45941,-49.064316)"
     style="display:inline">
    <path
       id="path1"
       style="color:#000000;display:inline;fill:#000000;stroke-width:1.52742"
       d="m 238.45941,247.12289 0.002,27.60547 c 0.0473,7.72108 2.30737,9.26976 9.3457,9.34766 7.80967,-0.0657 5.9196,-8.50946 5.93946,-19.68555 v -14.07812 c 0,-4.47228 0.71487,-7.67865 2.14453,-9.62305 1.42966,-1.93982 3.75694,-2.91211 6.98437,-2.91211 3.15411,0 5.42493,0.97077 6.81641,2.91211 1.39453,1.9444 2.0918,5.15077 2.0918,9.62305 v 14.07812 c -0.33909,8.2572 1.29994,10.32227 5.95703,10.32227 5.03588,0 9.04725,10e-4 9.21679,-10.54102 0,0 0.68442,-4.18271 1.99716,-5.41933 1.31611,-1.23979 3.66557,-1.18584 6.83488,-1.04356 3.68545,0.16545 15.45155,0.13549 19.06054,0.15625 25.31698,57.52894 46.25254,123.30951 71.81251,180.68945 5.68619,10.83199 20.74876,17.89605 31.21875,9.90625 9.91279,-7.98949 7.0282,-22.71801 7.375,-34 -0.10187,-110.32988 0.19767,-236.68011 -0.15625,-347.000003 -0.30607,-10.33799 -9.11136,-19.82075 -19.46875,-18.21875 -12.42999,1.13 -20.19993,12.8504 -23.91992,24.15039 -21.11998,48.249953 -8.31733,15.92032 -28.75831,65.530273 -0.41386,0.90072 -0.65625,1.91255 -0.65625,2.96875 0,3.91869 3.17496,7.09375 7.09375,7.09375 3.0685,0 5.6978,-1.96091 6.6875,-4.6875 21.47498,-52.082953 9.79813,-22.10032 31.9751,-72.780273 2.1813,-3.9949 7.10736,-9.9316 11.84376,-6.75 2.81929,7.38549 0.41206,16.07426 1.21875,23.90625 -0.10146,109.459893 0.1971,234.929023 -0.15625,344.378913 0.39329,5.45309 -6.33941,4.87485 -8.6875,1.90625 -7.4921,-7.82099 -9.41616,-19.66601 -14.59376,-29.125 -21.48597,-49.10195 -38.98277,-106.20864 -60.46875,-155.30859 -2.4937,-6.6455 -8.10315,-7.09805 -12.34375,-7.28125 -2.1576,-0.31183 -12.6465,0.0292 -15.0625,0.125 -2.4164,0.0958 -6.27337,-0.0796 -8.18359,-0.0643 -1.32014,0.0106 -3.17405,-0.11078 -4.17774,-0.88885 -1.22008,-0.94582 -1.33488,-2.8649 -2.13281,-5.08008 -1.38995,-5.86527 -4.12237,-10.41081 -8.19141,-13.63672 -4.06903,-3.22284 -9.03945,-4.83789 -14.90625,-4.83789 -7.69817,0 -13.57787,2.36293 -17.64843,7.0918 -4.06904,4.72888 -6.10352,11.78398 -6.10352,21.16992 z"
       sodipodi:nodetypes="ccccscscscscssccccccccsscccccccccsssccsccc" />
  </g>
  <metadata
     id="metadata7">
    <rdf:RDF>
      <cc:Work>
        <dc:format>image/svg+xml</dc:format>
        <dc:type
           rdf:resource="http://purl.org/dc/dcmitype/StillImage" />
        <cc:license
           rdf:resource="http://creativecommons.org/publicdomain/zero/1.0/" />
        <dc:publisher>
          <cc:Agent
             rdf:about="http://openclipart.org/">
            <dc:title>Openclipart</dc:title>
          </cc:Agent>
        </dc:publisher>
      </cc:Work>
      <cc:License
         rdf:about="http://creativecommons.org/publicdomain/zero/1.0/">
        <cc:permits
           rdf:resource="http://creativecommons.org/ns#Reproduction" />
        <cc:permits
           rdf:resource="http://creativecommons.org/ns#Distribution" />
        <cc:permits
           rdf:resource="http://creativecommons.org/ns#DerivativeWorks" />
      </cc:License>
    </rdf:RDF>
  </metadata>
</svg>
