<?xml version="1.0" encoding="UTF-8" standalone="no"?>
<!-- Created with Inkscape (http://www.inkscape.org/) -->

<svg
   id="svg3543"
   sodipodi:docname="Marker base.svg"
   viewBox="0 0 402.83 195.39"
   version="1.1"
   inkscape:version="1.3.2 (091e20e, 2023-11-25)"
   xmlns:inkscape="http://www.inkscape.org/namespaces/inkscape"
   xmlns:sodipodi="http://sodipodi.sourceforge.net/DTD/sodipodi-0.dtd"
   xmlns="http://www.w3.org/2000/svg"
   xmlns:svg="http://www.w3.org/2000/svg">
  <defs
     id="defs1" />
  <sodipodi:namedview
     id="base"
     fit-margin-left="0"
     inkscape:showpageshadow="false"
     inkscape:zoom="1.0008777"
     borderopacity="1.0"
     inkscape:current-layer="layer1"
     inkscape:cx="233.29523"
     inkscape:cy="137.37942"
     borderlayer="false"
     inkscape:window-maximized="1"
     showgrid="false"
     fit-margin-right="0"
     units="mm"
     inkscape:document-units="mm"
     bordercolor="#666666"
     inkscape:window-x="0"
     inkscape:window-y="38"
     fit-margin-bottom="0"
     inkscape:window-width="1512"
     inkscape:pageopacity="0.0"
     inkscape:pageshadow="2"
     pagecolor="#ffffff"
     inkscape:window-height="916"
     showborder="true"
     fit-margin-top="0"
     inkscape:pagecheckerboard="0"
     inkscape:deskcolor="#d1d1d1" />
  <g
     id="layer1"
     inkscape:groupmode="layer">
    <path
       id="path3801"
       style="color:#000000;fill:#000000"
       d="m201.56 0c-0.41972 0.0022287-0.83032 0.011611-1.25 0.03125-14.025-0.11159-25.793 11.169-27.281 24.406-1.168 5.1609-1.7376 13.255 5.25 14.562 5.9334 1.3261 9.9205-4.8185 8.9062-9.9688 0.3363-7.4402 4.9938-15.661 13.594-14.875 9.8375-0.88309 19.635 8.7729 15.969 18.469-2.6656 9.8863-12.474 15.63-19.094 22.812-2.2158 3.1215-3.1216 6.6709-3.4688 10.344-0.34712 3.6728-0.13549 15.453-0.15625 19.062-57.529 25.317-123.31 46.252-180.69 71.812-10.832 5.6862-17.896 20.749-9.9062 31.219 7.9895 9.9128 22.718 7.0282 34 7.375 110.33-0.10187 236.68 0.19767 347-0.15625 10.338-0.30607 19.821-9.1116 18.219-19.469-1.13-12.43-12.85-20.2-24.15-23.92-48.25-21.12-102.89-39.03-152.5-59.471-0.90072-0.41386-1.9126-0.65625-2.9688-0.65625-3.9187 0-7.0938 3.175-7.0938 7.0938 0 3.0685 1.9609 5.6978 4.6875 6.6875 52.083 21.475 109.07 40.511 159.75 62.688 3.9949 2.1813 9.9316 7.1076 6.75 11.844-7.3855 2.8193-16.074 0.41211-23.906 1.2188-109.46-0.10146-234.93 0.19711-344.38-0.15625-5.4531 0.3933-4.8748-6.3394-1.9062-8.6875 7.821-7.4921 19.666-9.4164 29.125-14.594 49.102-21.486 106.21-38.983 155.31-60.469 6.6455-2.4937 7.098-8.1034 7.2812-12.344 0.31183-2.1576-0.0292-12.646-0.125-15.062-0.0958-2.4164 0.0537-4.7407 1.3125-6.5938 13.133-9.6691 25.887-25.641 21.125-42.625-3.47-12.416-16.37-20.632-29.38-20.563z"
       sodipodi:nodetypes="scccccccsccccccccssccccccccccccs"
       inkscape:connector-curvature="0" />
  </g>
</svg>
