<svg xmlns="http://www.w3.org/2000/svg" width="600" height="600"><path fill="#96642c" d="M0 295.626V-9.04h600.013v609.331H0z"/><path fill="#8c5829" d="M7.986 587.676c1.967-147.037 15.043-294.145 4.443-441.134C10.465 94.695 8.55 43.067 8.07-8.814c13.856 41.526 4.832 85.766 9.44 128.543.708 113.112 10.504 226.5-.917 339.369-2.744 43.713-4.502 87.504-4.485 131.315-3.124 10.688-6.1 2.327-4.121-2.73zm41.163-29.93c-3.726-149.596-10.561-299.501.409-448.942.107-39.28-1.64-78.635 1.448-117.844.47 137.909 3.84 260.227-3.307 391.02 7.782 78.51.35 121.199 9.783 185.179 1.398 26.443-14.669 23.195-8.314-.69l.064-4.365zm12.302 38.677c-5.54-210.921-4.631-396.446-.217-590.527 17.33-4.687 1.266 39.342 6.168 52.556-14.777 186.12 6.688 360.303 2.068 533.01-1.1 3.101-4.363 6.596-8.019 4.965zm14.113-8.033c5.398-46.878 2.689-94.066-2.507-140.777-7.272-106.43-7.8-213.23-2.168-319.744 1.718-40.711-.03-82.785 6.514-122.533 6.174 22.296-1.153 49.796-.988 74.176-1.816 29.534-3.224 59.163-1.81 88.749C80.876 112.148 76.71 55.239 85.763-.614c-1.765 79.996-10.137 159.747-9.882 239.84-1.57 87.738 4.803 175.386 14.766 262.453 1.5 26.046.575 71.64-2.916 85.5-2.303-41.797 4.099-83.938-4.138-125.378-15.56-434.338-14.145-197.33.4 74.667-.505 12.97 3.257 53.624-8.428 51.918zm-6.886-290.063c-3.623 2.161 3.806 2.52 0 0m39.716 298.941c5.186-92.554 3.253-185.334 7.521-277.936-26.828-71.453-16.543-149.179-12.557-223.548C113.578 68.59 93.59 7.054 117.66 1.6c5.31 47.608-8.611 97.13 8.695 143.455 14.033 30.298 16.143 63.548 14.991 96.58-5.712 67.155 4.327 151.714 13.22 227.048 3.686 33.376 2.976 66.91 6.05 100.288 1.317 16.383-13.949 29.955-10.611 4.863-2.262-35.131 3.395-71.195-3.61-105.76-24.167-2.653-12.787 43.54-19.136 61.756-4.413 22.443-.851 52.809-14.158 69.819l-2.682-.84-2.021-1.533zm15.136-8.283c7.711-21.377.641-79.601 19.851-78.794 3.867 22.173 5.311 64.06-.923 74.597-1.571-14.012 10.285-59.11-8.492-52.296-2.507 16.923.743 38.819-10.435 56.493zm37.738 3.273c8.179-91.032-5.22-181.895-14.606-272.236-3.997-51.31-3.801-102.881-1.124-154.26-1.494-19.855-39.654-48.906-3.873-49.359 11.145-27.46-1.892-58.043 1.39-86.87 9.131-45.966-9.916 40.213 11.708 27.471 1.136-14.08 7.548-66.442 4.339-26.655-14.042 128.768-20.327 259.93 2.94 388.008 4.287 46.426 4.3 93.104 7.198 139.622-9.169 8.862 1.767 27.123-7.972 34.286zm6.6 1.487c9.275-29.916.192-62.06 11.75-90.913 3.627-16.617-10.22-65.115-1.984-64.354 7.316 50.714 4.994 102.745-5.325 152.63-.543 2.333-2.656 2.133-4.442 2.633zm11.83 3.273c8.995-31.064 5.223-64.097 13.32-94.735-5.736-105.092-29.239-210.232-27.294-308.617 3.767-35.077-10.107-71.631 4.981-105.47 3.452-26.703-5.31-60.301 6.293-81.478 17.791-29.818 4.57 27.483 3.808 38.354-9.866 84.279-2.185 140.242-3.95 254.206 21.07 78.427 25.691 158.76 21.886 233.783-2.998 14.914-5.61 68.906-19.044 63.952zm44.839-7.735c6.885-98.285 9.685-197.367-1.666-295.43-3.401 25.418-22.192 22.944-19.202-1.794-10.007-53.174-20.334-108.611-5.198-161.937 7.662-35.371 19.473-70.117 21.314-106.544-4.924 9.83-17.195 55.066-9.743 21.485-4.033-13.767 18.726-62.23 16.739-25.956-2.48 11.069-11.118 54.653-2.302 47.3 3.066-23.57-.857-83.034 37.528-65.67 3.696 42.443 5.384 85.086 16.216 126.388-.376 29.003 2.473 68.63-14.872 90.451-9.658-21.048 1.277-54.272-15.24-69.477-21.899 38.58-5.054 58.562-8.411 126.508-16.954 113.392 28.16 211.766 7.087 317.507-4.6-23.649-2.06 12.477-7.573-10.326-3.693-33.053 5.446-66.631-5.432-99.16-2.259 35.467 8.87 73.06-3.802 107.484-6.682 9.21-5.604 8.283-5.444-.838zm2.35 3c-3.624 2.161 3.806 2.519 0 0m8.239-218.217c.356-48.102-5.314-109.529-9.021-164.365-7.432 9.993-8.625 59.045-19.614 24.655-15.329-38.478 2.077-78.962 13.635-115.825 5.715-14.968-8.499-28.431-7.021-6.142-9.487 39.768-19.71 81.037-12.693 122.128-7.068 25.69 24.56 40.168 24.895 14.232 7.685 25.547 3.244 53.89 7.046 80.54 1.555 30.457 2.332 60.983 1.204 91.471 1.861-15.498.9-31.14 1.569-46.7zm-22.605-107.647c-3.293-9.071 4.467 4.916 0 0m39.228 322.565c-8.737-14.122 15.395-45.028 12.08-13.399 2.102 9.007-6.213 38.336-12.08 13.399m15.423 9.818c3.9-42.952-9.263-84.616-16.526-126.258-7.144-88.39-12.548-177.836.15-266 7.841 6.078 5.92 58.452 17.147 34.545-1.504-23.543 26.186-26.404 17.358.418 6.56 103.905 3.532 208.113 8.21 312.092-7.56-104.136-2.628-208.838-12.36-312.853-16.696-7.964-11.105 52.592-25.851 20.259-14.78 46.24-7.883 95.68-7.756 143.36 4.033 63.539 24.325 125.876 20.418 189.832zm29.96-31.538c-4.944-78.03-6.77-240.65-5.89-361.374 8.228-70.927 12.647-142.669 6.708-213.98 14.376 9.75 2.414 66.671 6.264 25.014-1.73-20.48 4.546-21.976 2.979-.973-1.37 73.317 2.432 146.775-4.6 219.907-2.404 31.697 3.906 62.925-1.399 94.541-1.476 87.519 6.02 174.969 5.218 262.512-14.024 14.31-7.028-19.815-9.28-25.649zm7.078-9.52c-2.028-17.236.014-40.03-3.892-53.818 1.18 17.924-2.093 36.468 3.892 53.817m15.585 39.273c-5.206-92.959-2.279-188.334-.567-302.893 6.229-82.65 13.46-165.876 2.882-248.504-3.301-13.595 1.501-69.392 4.566-31.396 2.809 46.872 4.76 93.832 5.76 140.788.206 29.376-.233 58.749-.597 88.12 14.543-32.054 4.129-68.928 7.193-102.936-3.47-41.55-4.199-83.249-8.73-124.604C341.224-17.9 343.48 36.13 343.332 47.83c10.793 199.008-15.57 369.502-5.009 549.183-25.866-114.116.371-240.519-2.148-348.247-15.573 41.612-4.474 78.609-13.466 146.037-1.333 47.683-.39 95.46 3.68 142.99-13.499 21.308 16.25 39.31-6.594 59.238zm48.266.595c-2.205-50.326-14.482-99.903-11.508-150.512-3.015-145.537 10.74-290.718 11.355-436.207 11.469-15.967 1.982 36.33 2.846 46.285-2.767 124.984-14.293 278.46-9.198 418.499-3.827 34.577 16.542 57.324 12.53 91.386-.912 10.007 8.671 26.65-6.025 30.556zm12.205-2.975c6.204-52.661-5.816-104.748-14.252-156.284-6.79-69.342-1.367-139.016.245-208.47 7.235 38.941-.118 78.83 2.464 118.197-.146 46.256 8.198 91.847 15.393 137.242 2.788 36.784 2.572 73.866-1.724 110.523l-1.403.141zm9.24 3.844c3.402-74.944 2.116-150.667-13.112-224.262-5.938-108.121-4.28-216.837 9.03-324.362-.838-13.442-2.938-58.364 16.88-45.12-1.463 52.487-12.868 103.974-18.184 156.034-4.816 179.55-2.755 173.361 10.858 227.868 2.934 42.952 6.88 86.353 6.927 129.185-1.74 27.302 9.105 63.57-11.371 79.634l-.365 1-.663.038zm18.738-82.093c1.854-145.811-19.019-292.098.077-437.433.012-19.564-1.492-71.531 4.68-70.335-5.396 132.506-12.442 265.32-2.888 397.803 2.156 64.146 3.79 128.328 3.013 192.522-12.97-26.017-.385-55.225-4.882-82.564zm43.674 78.249c-.1-43.468 2.597-86.918 7.372-130.102 34.192 14.127 4.61 58.41 11.149 85.98-.537 12.863 5.769 53.649-18.52 44.127zm26.616 0c2.632-15.143 5.976-65.555 5.939-25.362-.181 8.723-1.408 17.768-5.939 25.362m36.976-3.57c-2.19-152.916 24.418-305.975 4.787-458.617-7.546-45.736-6.314-92.012-4.535-138.159 12.79 55.32 1.318 115.192 10.668 131.232 9.533 122.58 3.075 245.59 1.33 368.324-6.408 32.282-2.718 75.503-11.455 101.67zm8.768-5.95c4.824-39.772 17.253-79.047 9.427-119.344-2.122-96.602.021-193.225.405-289.825 1.636 131.815 1.601 264.012 2.794 395.613.188 8.518-15.523 39.276-12.626 13.565zm9.64-149.93c-3.624 2.162 3.805 2.52 0 0m19.462 137.469c6.263-9.414-6.172-30.367-4.647-7.898 4.744-80.787 13.227-162.378-.513-242.745-3.647-70.416 3.016-140.896 1.655-211.421 2.681-37.817-4.824-78.685 5.816-114.643 28.486-21.076 55.638 15.563 39.47 41.718 6.276 169.34 4.373 338.834 2.911 508.256 4.704 23.962-7.921 56.833-33.871 53.012-9.977-4.204-14.008-16.472-10.82-26.286zm28.29-307.974c3.488-75.949 1.066-152.083-5.084-227.833-14.64 29.243-2.83 64.471-8.268 96.035.395 47.038 4.726 93.974 11.447 140.491 1.15-2.809 1.726-5.667 1.905-8.698zm-5.02-11.207c-1.525-7 2.673 2.206 0 0m20.538-114.62c-3.624 2.16 3.806 2.519 0 0m0-4.761c-3.624 2.161 3.806 2.52 0 0M375.078 592.65c-1.526-7 2.672 2.206 0 0m-124.585-19.457c-6.093-13.08 6-.374 0 0m182.735-18.351c-15.267 3.404 6.556-24.966-10.638-14.593-2.613-116.918-9.13-233.843-7.601-350.806 1.27-30.512 5.066-61.325 4.353-91.588 18.303-22.645 11.834 27.738 16.102 40.617 1.603 30.065 6.338 59.642 12.893 88.88 16.555 67.986 22.5-69.292 26.78-92.49 5.705-23.645-1.568-57.831 15.62-74.791 9.438 25.699 7.551 54.903 13.13 81.905 11.328 90.662 15.194 184.132-2.71 273.878-16.725-33.9-16.969-75.454-27.336-112.302 7.292 23.966-12.317-20.744-12.605 9.46-6.575 48.193-12.737 96.492-19.323 144.717-4.13 32.209-5.268 65.148-7.481 97.214l-1.183-.105zm-5.955-102.989c-3.624 2.162 3.806 2.52 0 0m15.194-162.9c-5.716-38.127-9.094-76.609-16.207-114.516-11.888 38.775-5.32 80.356-5.264 120.307 1.672 34.456.438 69.171 5.76 103.355 24.477 15.866 16.422-99.162 15.711-109.15zm59.175 59.686c12.017-79.12 4.657-159.818-9.53-238.115-23.698 33.266-10.378 76.037-16.611 113.671 2.186 42.43 7.077 85.979 26.14 124.437zM178.104 553.956c-1.832-9.12 4.228 3.547 0 0m225.731-16.435c1.506-15.96 2.134 8.174 0 0M507.8 509.245c-2.935-17.104 5.05-22.489 2.547-.861.417 14.95-4.532 25.399-2.547.861m-23.964 19.42c-5.538-14.522 2.698-47.063 1.413-12.934.056 4.338-.04 8.772-1.413 12.934m-345.581-8.628c-1.474-7.236 3.738 3.4 0 0m188.898-6.022c-.133-9.126 1.645 4.972 0 0m.09-8.925c.887-9.672.887 9.67 0 0m-170.147-1.687c-1.527-7 2.672 2.206 0 0m170.1-7.83c.645-8.2.645 8.2 0 0M7.317 454.514c11.013-141.931-1.39-122.033 1.901-4.439-.365 10.485-2.436 25.635-1.902 4.44m264.052 9.37c.195-22.457-14.234-80.452.583-82.157 6.315 26.682 11.733 53.522-.583 82.157M51.12 443.51c-3.198-28.806 4.548-12.903.927 6.46zm4.705-28.464c-8.006-4.891 2.667-7.933 0 0m110.549-18.113c-9.37-60.938-9.096-122.95-10.632-184.478-1-64.678-5.646-79.53 11.228-205.375 7.302 15.068-8.5 61.198-6.661 87.566-2.862 64.828-1.587 129.84-.527 194.677 16.294 32.026-23.296 87.65 6.592 107.598zM48.013 317.458c-32.032 188.393-16.016 94.195 0 0m173.898-17.554c-8.299-6.591 3.211-8.638 0 0M330.53 264.2c-1.527-7 2.672 2.205 0 0m1.172-17.852c-1.527-7 2.672 2.206 0 0m-55.08-5.95c-1.526-7 2.673 2.205 0 0M512.08 223.57c4.463-4.286-.883 8.231 0 0m-144.59-38.607c1.2-61.414 3.75-122.961 12.42-183.811 9.485 33.095-8.207 65.897-6.51 99.334-2.2 34.194-1.274 68.625-6.002 102.627-.443-6.047.132-12.099.093-18.15zm231.392-10.017c-1.526-7 2.672 2.206 0 0m-66.126-1.59c-1.932-46.13-11.249-71.252-8.976-170.1 15.74 4.483 3.259 47.272 7.82 66.12 1.082 34.632 5.082 69.39 1.156 103.986zm-2.4-111.841c-3.625 2.161 3.805 2.52 0 0m68.766 103.225c.886-9.67.886 9.672 0 0m-347.82-10.83c-3.813-15.56 4.574 5.85 0 0m34.606-2.154c-6.34-48.122-12.105-96.324-17.613-144.55 13.291 23.076 6.604 54.876 11.343 81.318-1.206 16.029 15.687 34.434 16.165 7.258 3.906-23.246-4.291-70.856.121-79.421 1.854 44.702 5.102 90.37-6.158 134.16 2.934-11.571-1.384 1.18-3.858 1.236zm113.285-.903c.804-25.252 4.43-80.606 7.233-86.419-.653 28.926-3.573 57.744-7.233 86.42m-211.423-6.688c.744-14.663 11.819-47.865 6.157-13.735-.746 4.999-2.346 10.21-6.157 13.735m409.86-16.911c1.501-10.117 1.793 11.58 0 0m-310.39-12.39c-3.417-5.614 6.51 2.284 0 0m310.683-12.602c.335-11.135 1.163 7.277 0 0M128.87 94.584c-7.465-49.037 3.938-126.936 8.555-38.73-1.558 12.928-1.945 27.202-8.555 38.73M455.338 78.79c1.02-22.415-17.11-78.677 10.23-76.21 7.067 25.988-8.39 50.692-10.23 76.21m39.252-.231c-1.526-7 2.672 2.206 0 0m-226.68-6.05c2.369-5.184.925 8.632 0 0M137.171 55.946c-1.526-7 2.672 2.206 0 0m247.271-30.943c-1.526-7 2.672 2.206 0 0"/></svg>