<svg xmlns="http://www.w3.org/2000/svg" width="186.934" height="402.828"><defs><filter id="a" width="1.038" height="1.018" x="-.019" y="-.009" style="color-interpolation-filters:sRGB"><feGaussianBlur stdDeviation="1.474"/></filter></defs><g style="display:inline"><path d="M394.406 451.892 238.46 274.728l-.002-41.292L405.631 49.242l19.762-.178v402.828Z" style="opacity:.319536;mix-blend-mode:normal;fill:#fff;fill-opacity:1;stroke:none;stroke-width:2;stroke-linecap:round;stroke-linejoin:round;stroke-opacity:1;paint-order:markers stroke fill;filter:url(#a)" transform="translate(-238.46 -49.064)"/></g><path d="m238.46 247.123.001 27.605c.048 7.721 2.308 9.27 9.346 9.348 7.81-.066 5.92-8.51 5.94-19.686v-14.078q0-6.707 2.144-9.623 2.144-2.911 6.984-2.912 4.73 0 6.817 2.912 2.091 2.916 2.092 9.623v14.078c-.34 8.258 1.3 10.323 5.957 10.323 5.036 0 9.047 0 9.216-10.541 0 0 .685-4.183 1.998-5.42 1.316-1.24 3.665-1.185 6.835-1.043 3.685.165 15.451.135 19.06.156 25.317 57.529 46.253 123.31 71.813 180.69 5.686 10.832 20.748 17.896 31.218 9.906 9.913-7.99 7.029-22.718 7.375-34-.102-110.33.198-236.68-.156-347-.306-10.338-9.111-19.821-19.469-18.219-12.43 1.13-20.2 12.85-23.92 24.15-21.12 48.25-8.317 15.92-28.758 65.53a7.1 7.1 0 0 0-.656 2.97 7.093 7.093 0 0 0 7.094 7.093c3.068 0 5.697-1.96 6.687-4.687 21.475-52.083 9.798-22.1 31.975-72.78 2.182-3.995 7.108-9.932 11.844-6.75 2.82 7.385.412 16.074 1.219 23.906-.102 109.46.197 234.929-.157 344.379.394 5.453-6.339 4.874-8.687 1.906-7.492-7.821-9.416-19.666-14.594-29.125-21.486-49.102-38.983-106.209-60.469-155.309-2.493-6.645-8.103-7.098-12.343-7.281-2.158-.312-12.647.03-15.063.125-2.416.096-6.273-.08-8.183-.064-1.32.01-3.174-.111-4.178-.89-1.22-.945-1.335-2.864-2.133-5.08q-2.086-8.797-8.191-13.636-6.106-4.836-14.907-4.838c-7.698 0-13.577 2.363-17.648 7.092q-6.105 7.092-6.104 21.17" style="display:inline;color:#000;fill:#000;stroke-width:1.52742" transform="translate(-238.46 -49.064)"/></svg>