<svg xmlns="http://www.w3.org/2000/svg" xml:space="preserve" width="364.526" height="147.702"><g style="fill:#2b1100"><path d="M278.203 322.479q.804 1.365.38 3.008-.426 1.644-1.832 2.471-1.53.903-3.592.334l-18.9-5.134 5.749 9.761q1.024 1.736.587 3.359t-2.216 2.67q-1.736 1.024-3.347.606c-5.392-1.395-11.93-2.116-16.02-8.703s-2.273-13.745-.23-18.883q.416-1.609 2.153-2.633 1.778-1.046 3.409-.644 1.63.406 2.63 2.1l5.359 9.099 4.728-18.55q.416-1.75 1.782-2.554 1.364-.803 2.995-.4 1.63.404 2.436 1.769.803 1.366.286 3.229l-3.581 13.307 14.735 4.021q1.684.4 2.489 1.767m5.507-.013q-1.447-.374-2.47-2.111l-13.009-22.085q-.999-1.694-.583-3.307.417-1.609 2.154-2.633 1.778-1.046 3.408-.644 1.632.406 2.631 2.1l11.474 19.479 9.513-5.603q3.597-2.12 5.426.982.925 1.57.475 2.84-.452 1.268-2.271 2.34l-13.605 8.016q-1.698 1-3.143.626m23.657-13.935q-1.445-.374-2.445-2.07l-13.033-22.127q-.999-1.696-.625-3.141.373-1.445 2.069-2.445l14.311-8.429q1.779-1.049 3.127-.839 1.348.208 2.176 1.613 1.755 2.979-1.844 5.098l-10.422 6.139 3.264 5.543 9.596-5.652q3.598-2.12 5.328.817.83 1.407.355 2.686-.47 1.281-2.248 2.328l-9.596 5.652 3.557 6.038 10.422-6.139q3.599-2.12 5.353.857.829 1.406.356 2.688-.47 1.28-2.249 2.328l-14.31 8.429q-1.697 1-3.142.626m24.879-14.461q-1.61-.416-2.634-2.153l-13.033-22.126q-.999-1.694-.583-3.306.417-1.609 2.153-2.633 1.778-1.046 3.41-.644 1.63.406 2.629 2.1l13.033 22.127q1.024 1.736.588 3.359-.438 1.623-2.217 2.67-1.736 1.024-3.346.606m12.713-7.684q-1.444-.373-2.444-2.069l-13.033-22.127q-.998-1.695-.626-3.142.374-1.445 2.07-2.444l8.354-4.921q4.839-2.85 9.369-3.151t8.315 1.87 6.441 6.679q2.68 4.55 2.775 8.922.097 4.372-2.375 8.167-2.47 3.796-7.352 6.67l-8.354 4.921q-1.693 1-3.14.625m12.513-17.203q.9-3.342-1.634-7.645-2.534-4.3-5.882-5.114-3.348-.813-7.608 1.696l-3.723 2.193 9.965 16.916 3.723-2.193q4.26-2.51 5.159-5.853m19.458-1.629q-1.447-.374-2.445-2.07l-13.033-22.126q-1-1.695-.625-3.142.373-1.445 2.068-2.444l14.311-8.429q1.779-1.047 3.127-.839t2.176 1.614q1.755 2.978-1.844 5.097l-10.422 6.139 3.265 5.542 9.595-5.652q3.599-2.12 5.328.817.83 1.406.356 2.686-.47 1.281-2.249 2.328l-9.596 5.652 3.557 6.039 10.422-6.139q3.599-2.12 5.354.858.828 1.406.356 2.687-.471 1.281-2.25 2.328l-14.31 8.429q-1.697 1-3.141.625m98.552-9.303q.279 2.644-1.308 5.331-1.414 2.397-3.737 3.451t-5.243.666q-2.922-.386-6.062-2.24l-10.995-6.49q-1.695-1-2.067-2.447-.372-1.446.628-3.141l13.055-22.114q1-1.695 2.447-2.067 1.445-.372 3.141.628l10.582 6.247q4.588 2.709 6.088 6.354 1.498 3.643-.551 7.116-1.317 2.23-3.529 3.24-2.212 1.007-4.824.523 2.097 2.298 2.375 4.943m-10.238 2.094q1.399-.15 2.375-1.804.975-1.653.432-2.95-.545-1.296-2.818-2.639l-6.158-3.636-3.66 6.2 6.158 3.636q2.273 1.342 3.671 1.193m-2.777-16.775 5.414 3.197q2.15 1.27 3.531 1.193 1.383-.076 2.237-1.522.903-1.53.325-2.817-.577-1.289-2.727-2.558l-5.414-3.196zm15.687 29.274q-1.382-5.164 2.278-11.364l7.882-13.351q1-1.695 2.611-2.11 1.61-.414 3.305.586 1.694 1 2.11 2.61.413 1.612-.586 3.306l-8.053 13.641q-1.855 3.141-1.45 5.666t3.051 4.086 5.051.696 4.261-4.006l8.053-13.641q1-1.694 2.611-2.11 1.61-.414 3.306.587 1.694 1 2.13 2.622.434 1.624-.565 3.318l-7.882 13.351q-3.637 6.16-8.878 7.439-5.244 1.28-11.526-2.429-6.324-3.734-7.709-8.897m20.494-27.867q-.414-1.471.488-3.001.88-1.488 2.354-1.815t3.046.601q1.57.927 2.018 2.389.446 1.463-.432 2.95-.903 1.53-2.411 1.866-1.509.335-3.079-.592-1.57-.928-1.984-2.398m8.184 4.831q-.412-1.47.489-3 .879-1.489 2.354-1.815 1.474-.328 3.045.6 1.53.904 1.978 2.365.446 1.462-.433 2.95-.902 1.53-2.391 1.878t-3.059-.58q-1.569-.928-1.983-2.398m31.561 41.29q.353 1.241-.402 2.521l-4.246 7.191q-1.22 2.069-2.176 2.979-.958.913-2.129 1.057-1.173.145-3.053-.353a31 31 0 0 1-3.953-1.47 37 37 0 0 1-3.793-1.933q-4.754-2.806-7.186-6.666t-2.302-8.327q.128-4.467 2.861-9.097 2.684-4.547 6.533-6.816 3.848-2.272 8.354-2.064 4.504.206 9.093 2.914 2.892 1.709 4.785 3.745a16.9 16.9 0 0 1 3.045 4.614q.409.909.379 1.672-.033.762-.569 1.67-.757 1.281-1.983 1.757-1.228.472-2.22-.113-.662-.39-1.026-.856-.365-.466-.842-1.361-1.04-1.728-2.164-2.894-1.125-1.165-2.695-2.092-3.927-2.319-7.143-1.263t-5.898 5.602q-2.76 4.672-2.083 8.107.673 3.437 4.808 5.877a22 22 0 0 0 4.172 1.905l3.195-5.415-2.976-1.757q-1.364-.805-1.705-1.927-.34-1.12.391-2.361.732-1.24 1.879-1.482 1.147-.243 2.511.562l6.819 4.026q1.362.808 1.719 2.048m-2.049 18.717q-.373-1.446.627-3.142l13.055-22.113q1-1.695 2.447-2.068 1.446-.373 3.141.629l14.303 8.442q1.777 1.05 2.247 2.331t-.359 2.686q-1.757 2.976-5.353.853l-10.416-6.149-3.271 5.54 9.589 5.661q3.598 2.123 1.863 5.059-.83 1.404-2.178 1.611t-3.125-.842l-9.59-5.662-3.562 6.035 10.416 6.149q3.595 2.123 1.839 5.099-.83 1.406-2.179 1.613-1.347.207-3.125-.842l-14.303-8.443q-1.695-1-2.066-2.447m24.676 14.568q-.372-1.447.652-3.182l13.03-22.073q1-1.695 2.612-2.11 1.609-.413 3.346.61 1.777 1.05 2.213 2.672.434 1.624-.565 3.317l-11.493 19.469 9.508 5.612q3.595 2.123 1.766 5.224-.927 1.57-2.256 1.789-1.328.22-3.146-.854l-13.599-8.027q-1.696-1-2.068-2.447M405.527 194.36c-5.055.031-6.069 1.511-6.12 6.119.043 5.113 5.571 3.875 12.888 3.888h9.217q4.391 0 6.3 1.404 1.906 1.404 1.907 4.573 0 3.097-1.907 4.463-1.909 1.37-6.3 1.369h-9.217c-5.406-.222-6.758.852-6.758 3.901 0 3.297 0 5.923 6.902 6.034h4.68q1.51 0 2.627.684 1.116.686 2.125 2.125l9.361 13.68q1.08 1.584 2.592 2.375a6.9 6.9 0 0 0 3.24.793q2.52 0 4.428-1.55 1.907-1.546 1.908-3.85 0-1.73-1.296-3.673l-4.463-6.408q-1.728-2.446-3.493-3.672-1.765-1.223-4.14-1.584 5.76-1.366 8.928-5.363 3.167-3.996 3.168-9.758 0-7.559-4.643-11.555-4.644-3.996-13.861-3.996z" style="fill:#2b1100" transform="translate(-236.56 -194.36)"/><path d="M178.231 56.674 29.813 142.107s-1.009 1.011-.165 2.202c.843 1.19 1.911.832 1.911.832l148.1-85.25s3.061-1.46 4.708-1.5c1.806-.01 4.542 1.057 5.507 1.742l148.418 85.433 1.746-3.033L191.62 57.1c-1.618-.657-4.766-2.708-7.164-2.866-2.228-.056-6.225 2.44-6.225 2.44" style="fill:#2b1100;stroke-width:3.3721;stroke-linecap:round;stroke-miterlimit:4;stroke-dasharray:none"/><path d="M357.624 125.615c-2.547 1.026-5.689 7.77-8.38 9.36-1.84 1.086-4.661-.016-4.661-.016l-2.918 6.22s2.197.856 5.27.65c2.936-.197 9.35-10.312 11.01-10.985 2.839-1.152 3.01.606 2.984 2.04-.016.848-.695 3.227-2.102 5.156-1.407 1.93-3.582 3.347-4.467 3.96-2.73 1.89-4.38 2.253-6.897 2.442-2.3.174-7.425-1.909-7.425-1.909l-1.746 3.033s8.896 3.934 14.858 1.123c2.707-1.275 5.604-3.721 7.726-5.902 1.904-1.957 3.803-7.17 3.64-10.652s-4.345-5.545-6.892-4.52" style="fill:#2b1100;stroke-width:3.31959;stroke-linecap:round;stroke-miterlimit:4;stroke-dasharray:none"/></g></svg>