<svg xmlns="http://www.w3.org/2000/svg" width="364.526" height="147.702"><g fill="#2b1100"><path d="M41.643 128.12c.536.91.663 1.913.38 3.008-.284 1.096-.895 1.919-1.832 2.47-1.02.603-2.217.714-3.592.335l-18.9-5.134 5.75 9.76c.682 1.158.877 2.279.586 3.36-.29 1.082-1.03 1.972-2.216 2.67-1.157.682-2.274.885-3.347.606-5.391-1.396-11.929-2.116-16.02-8.703-4.09-6.588-2.273-13.745-.23-18.883.277-1.072.996-1.951 2.153-2.633 1.185-.698 2.322-.912 3.41-.644 1.086.27 1.963.97 2.63 2.1l5.358 9.099 4.728-18.55c.277-1.166.872-2.018 1.782-2.554s1.908-.668 2.995-.4c1.088.27 1.898.859 2.436 1.769.535.91.631 1.987.286 3.229l-3.58 13.307 14.734 4.02c1.122.268 1.953.857 2.49 1.768zM47.15 128.107c-.964-.25-1.788-.953-2.47-2.111L31.671 103.91c-.666-1.13-.86-2.231-.583-3.307.278-1.072.996-1.951 2.154-2.633 1.185-.698 2.322-.912 3.408-.644 1.088.27 1.965.97 2.631 2.1l11.474 19.479 9.513-5.603c2.398-1.413 4.207-1.086 5.426.982.617 1.048.775 1.993.475 2.84-.3.845-1.058 1.626-2.27 2.34l-13.606 8.016c-1.132.667-2.179.875-3.143.626zM70.807 114.172c-.964-.25-1.778-.94-2.445-2.07L55.33 89.975c-.666-1.13-.874-2.178-.625-3.141.25-.963.938-1.778 2.07-2.445l14.31-8.43c1.186-.698 2.228-.978 3.127-.838.898.138 1.625.677 2.176 1.613 1.17 1.986.555 3.685-1.844 5.098L64.121 87.97l3.264 5.543 9.596-5.652c2.398-1.413 4.175-1.141 5.328.817.553.938.671 1.833.355 2.686-.313.854-1.063 1.63-2.248 2.328l-9.596 5.652 3.557 6.038 10.422-6.14c2.4-1.412 4.184-1.126 5.353.858.553.938.671 1.833.356 2.688-.313.853-1.063 1.629-2.249 2.328l-14.31 8.429c-1.132.667-2.178.875-3.142.626zM95.686 99.71c-1.073-.276-1.952-.995-2.634-2.152L80.02 75.432c-.666-1.13-.86-2.231-.583-3.306.278-1.072.996-1.951 2.153-2.633 1.186-.698 2.322-.912 3.41-.644 1.086.27 1.963.97 2.63 2.1l13.032 22.127c.683 1.157.878 2.278.588 3.359-.292 1.082-1.03 1.972-2.217 2.67-1.157.682-2.273.885-3.346.606zM108.4 92.027c-.964-.25-1.778-.938-2.445-2.07L92.922 67.832c-.666-1.13-.874-2.178-.626-3.142.25-.963.94-1.778 2.07-2.444l8.354-4.921c3.226-1.9 6.35-2.951 9.37-3.151 3.02-.2 5.791.423 8.314 1.87 2.523 1.447 4.672 3.674 6.441 6.679 1.787 3.033 2.712 6.007 2.775 8.922.064 2.915-.727 5.637-2.375 8.167-1.647 2.53-4.098 4.754-7.352 6.67l-8.354 4.92c-1.129.667-2.175.876-3.14.626zm12.512-17.203c.6-2.228.056-4.776-1.634-7.645-1.689-2.867-3.65-4.571-5.882-5.114-2.23-.542-4.769.023-7.608 1.696l-3.723 2.193 9.965 16.916 3.723-2.193c2.84-1.673 4.56-3.624 5.16-5.853zM140.37 73.195c-.965-.25-1.779-.94-2.445-2.07l-13.033-22.126c-.666-1.13-.875-2.178-.625-3.142.248-.963.938-1.778 2.068-2.444l14.311-8.43c1.186-.697 2.228-.977 3.127-.838.898.138 1.625.677 2.176 1.614 1.17 1.986.555 3.684-1.844 5.097l-10.422 6.139 3.265 5.542 9.595-5.652c2.398-1.413 4.176-1.141 5.328.817.553.937.672 1.833.356 2.686-.313.854-1.064 1.63-2.249 2.328l-9.596 5.652 3.557 6.039 10.422-6.14c2.4-1.412 4.184-1.126 5.354.859.553.938.67 1.833.356 2.687-.314.854-1.064 1.63-2.25 2.328l-14.31 8.429c-1.13.666-2.178.875-3.14.625z"/><g><path d="M238.922 63.892c.186 1.763-.25 3.54-1.308 5.33-.942 1.599-2.189 2.749-3.737 3.452-1.549.702-3.297.925-5.243.666-1.948-.257-3.968-1.004-6.062-2.24l-10.995-6.49c-1.13-.668-1.819-1.482-2.067-2.447-.248-.964-.039-2.011.628-3.141l13.055-22.114c.667-1.13 1.483-1.82 2.447-2.067.963-.248 2.011-.04 3.141.628l10.582 6.247c3.06 1.806 5.088 3.924 6.088 6.354.998 2.429.816 4.8-.55 7.116-.879 1.487-2.056 2.567-3.53 3.24-1.475.67-3.082.846-4.824.523 1.398 1.532 2.19 3.18 2.375 4.943zm-10.238 2.094c.932-.1 1.725-.701 2.375-1.804.65-1.102.794-2.086.432-2.95-.363-.864-1.303-1.744-2.818-2.64l-6.158-3.635-3.66 6.2 6.158 3.636c1.515.895 2.74 1.292 3.671 1.193zm-2.777-16.775l5.414 3.197c1.434.846 2.61 1.244 3.531 1.193.922-.05 1.668-.56 2.237-1.522.602-1.02.71-1.96.325-2.817-.385-.86-1.293-1.712-2.727-2.558l-5.414-3.196zM241.594 78.485c-.922-3.443-.162-7.23 2.278-11.364l7.882-13.351c.666-1.13 1.537-1.833 2.611-2.11 1.073-.276 2.176-.081 3.305.586 1.13.667 1.832 1.537 2.11 2.61.275 1.075.081 2.177-.586 3.306l-8.053 13.64c-1.236 2.096-1.72 3.983-1.45 5.667.27 1.683 1.287 3.045 3.051 4.086 1.764 1.04 3.447 1.274 5.051.696 1.604-.577 3.024-1.911 4.261-4.006l8.053-13.641c.667-1.13 1.536-1.833 2.611-2.11 1.073-.275 2.175-.081 3.306.587 1.13.666 1.84 1.54 2.13 2.622.29 1.083.101 2.188-.565 3.318l-7.882 13.35c-2.425 4.107-5.384 6.587-8.878 7.44-3.496.854-7.338.043-11.526-2.43-4.217-2.488-6.785-5.454-7.709-8.896zm20.494-27.867c-.276-.981-.113-1.981.488-3.001.586-.992 1.371-1.597 2.354-1.815.983-.218 1.998-.018 3.046.6 1.047.619 1.72 1.415 2.018 2.39.297.976.154 1.958-.432 2.95-.602 1.02-1.406 1.642-2.41 1.866-1.007.224-2.033.026-3.08-.592-1.047-.618-1.708-1.418-1.984-2.398zm8.184 4.83c-.275-.98-.112-1.98.49-3 .585-.991 1.37-1.597 2.353-1.814.982-.22 1.998-.02 3.045.6 1.02.602 1.68 1.39 1.978 2.365.297.975.153 1.958-.433 2.95-.602 1.02-1.398 1.646-2.39 1.878-.993.23-2.012.038-3.06-.58-1.045-.62-1.708-1.418-1.983-2.398zM301.833 96.739c.235.827.102 1.668-.402 2.52l-4.246 7.192c-.813 1.379-1.539 2.372-2.176 2.979-.639.608-1.348.96-2.129 1.057-.78.097-1.8-.021-3.053-.353a31.103 31.103 0 01-3.953-1.47 37.311 37.311 0 01-3.793-1.933c-3.17-1.871-5.564-4.093-7.186-6.666-1.62-2.574-2.389-5.35-2.302-8.327.085-2.978 1.04-6.01 2.861-9.097 1.79-3.031 3.967-5.303 6.533-6.816 2.565-1.515 5.35-2.203 8.354-2.064 3.002.138 6.034 1.108 9.093 2.914 1.928 1.139 3.523 2.388 4.785 3.745a16.874 16.874 0 013.045 4.614c.273.605.398 1.164.38 1.672-.022.508-.213 1.064-.57 1.67-.505.855-1.165 1.439-1.983 1.757-.819.315-1.559.277-2.22-.113-.44-.261-.784-.545-1.026-.856-.244-.311-.524-.764-.842-1.361-.693-1.152-1.416-2.117-2.164-2.894-.75-.777-1.648-1.474-2.695-2.092-2.619-1.546-4.998-1.967-7.143-1.263-2.144.705-4.109 2.57-5.898 5.602-1.84 3.115-2.534 5.817-2.083 8.107.448 2.292 2.052 4.25 4.808 5.877a21.828 21.828 0 004.172 1.905l3.195-5.415-2.976-1.757c-.909-.536-1.478-1.18-1.705-1.927-.227-.747-.097-1.534.391-2.361.488-.826 1.114-1.321 1.88-1.482.764-.162 1.6.025 2.51.562l6.82 4.026c.907.539 1.48 1.22 1.718 2.048zM299.784 115.456c-.249-.965-.04-2.011.627-3.142L313.466 90.2c.667-1.13 1.483-1.82 2.447-2.068s2.011-.04 3.141.629l14.303 8.442c1.185.7 1.934 1.478 2.247 2.33.313.854.193 1.75-.359 2.687-1.17 1.984-2.956 2.268-5.353.853l-10.416-6.15-3.27 5.54 9.588 5.662c2.398 1.415 3.02 3.102 1.863 5.059-.553.936-1.279 1.473-2.178 1.61-.898.139-1.94-.142-3.125-.841l-9.59-5.662-3.562 6.035 10.416 6.149c2.396 1.415 3.01 3.115 1.84 5.099-.555.938-1.28 1.475-2.18 1.613-.898.139-1.94-.143-3.125-.842l-14.303-8.443c-1.13-.667-1.818-1.483-2.066-2.447zM324.46 130.024c-.248-.965-.03-2.025.652-3.182l13.03-22.073c.667-1.13 1.536-1.833 2.612-2.11 1.072-.275 2.188-.072 3.346.61 1.185.7 1.922 1.59 2.213 2.672.29 1.083.102 2.188-.565 3.317l-11.493 19.469 9.508 5.612c2.396 1.415 2.986 3.157 1.766 5.224-.618 1.047-1.37 1.643-2.256 1.789-.886.146-1.934-.138-3.146-.854l-13.599-8.027c-1.13-.668-1.82-1.482-2.068-2.447z"/></g><g><path d="M168.968 0c-5.056.032-6.07 1.512-6.122 6.12.044 5.112 5.573 3.875 12.89 3.888h9.216c2.928 0 5.028.468 6.3 1.404 1.27.936 1.907 2.46 1.907 4.572 0 2.065-.635 3.552-1.906 4.463-1.273.913-3.373 1.37-6.301 1.37h-9.217c-5.406-.222-6.758.852-6.758 3.901 0 3.297 0 5.922 6.903 6.034h4.68c1.007 0 1.881.228 2.626.684.744.457 1.453 1.166 2.125 2.125l9.362 13.68c.719 1.055 1.583 1.847 2.591 2.374a6.882 6.882 0 003.24.793c1.68 0 3.155-.517 4.428-1.549 1.271-1.032 1.909-2.314 1.909-3.851 0-1.152-.433-2.376-1.297-3.672l-4.463-6.408c-1.151-1.631-2.317-2.855-3.492-3.672-1.178-.816-2.557-1.343-4.141-1.584 3.84-.911 6.816-2.7 8.928-5.363 2.11-2.664 3.168-5.917 3.168-9.758 0-5.04-1.547-8.89-4.643-11.555C197.805 1.332 193.185 0 187.04 0z"/></g><path d="M178.231 56.674L29.813 142.107s-1.009 1.011-.165 2.202c.843 1.19 1.911.832 1.911.832l148.1-85.25s3.061-1.46 4.708-1.5c1.806-.01 4.542 1.057 5.507 1.742l148.418 85.433 1.746-3.033L191.62 57.1c-1.618-.657-4.766-2.708-7.164-2.866-2.228-.056-6.225 2.44-6.225 2.44z"/><path d="M357.624 125.615c-2.547 1.026-5.689 7.77-8.38 9.36-1.84 1.086-4.661-.016-4.661-.016l-2.918 6.22s2.197.856 5.27.65c2.936-.197 9.35-10.312 11.01-10.985 2.839-1.152 3.01.606 2.984 2.04-.016.848-.695 3.227-2.102 5.156-1.407 1.93-3.582 3.347-4.467 3.96-2.73 1.89-4.38 2.253-6.897 2.442-2.3.174-7.425-1.909-7.425-1.909l-1.746 3.033s8.896 3.934 14.858 1.123c2.707-1.275 5.604-3.721 7.726-5.902 1.904-1.957 3.803-7.17 3.64-10.652-.162-3.482-4.345-5.545-6.892-4.52z"/></g></svg>