<svg xmlns="http://www.w3.org/2000/svg" viewBox="0 0 402.83 195.39"><path d="M201.56 0c-.42.002-.83.012-1.25.031-14.025-.111-25.793 11.17-27.281 24.406-1.168 5.161-1.738 13.255 5.25 14.562 5.933 1.326 9.92-4.818 8.906-9.969.337-7.44 4.994-15.66 13.594-14.875 9.838-.883 19.635 8.773 15.97 18.47-2.666 9.886-12.475 15.63-19.095 22.811-2.216 3.122-3.121 6.671-3.469 10.344s-.135 15.453-.156 19.062C136.5 110.16 70.72 131.094 13.34 156.654c-10.832 5.687-17.896 20.75-9.906 31.22 7.99 9.912 22.718 7.028 34 7.374 110.33-.101 236.68.198 347-.156 10.338-.306 19.821-9.111 18.219-19.469-1.13-12.43-12.85-20.2-24.15-23.92-48.25-21.12-102.89-39.03-152.5-59.47a7.1 7.1 0 0 0-2.969-.657 7.093 7.093 0 0 0-7.094 7.094c0 3.068 1.961 5.698 4.688 6.687 52.083 21.475 109.07 40.511 159.75 62.688 3.995 2.182 9.931 7.108 6.75 11.844-7.386 2.82-16.074.412-23.906 1.219-109.46-.101-234.93.197-344.38-.156-5.453.393-4.875-6.34-1.906-8.688 7.82-7.492 19.666-9.416 29.125-14.594 49.102-21.486 106.21-38.983 155.31-60.469 6.645-2.493 7.098-8.103 7.28-12.344.313-2.157-.028-12.646-.124-15.062s.054-4.74 1.312-6.594c13.133-9.669 25.887-25.64 21.125-42.625-3.47-12.416-16.37-20.632-29.38-20.563z" style="color:#000;fill:#000"/></svg>